/* XPM */
static char *b926ee6de3894becd99f76171705fcec3ykZaH9yClhTkcxM[] = {
/* columns rows colors chars-per-pixel */
"75 71 238 2 ",
"   c None",
".  c black",
"X  c #7A0000",
"o  c #680000",
"O  c #723600",
"+  c #703500",
"@  c #623C2E",
"#  c #5B4A00",
"$  c #5A4600",
"%  c #644C00",
"&  c #6C4900",
"*  c #695300",
"=  c #774200",
"-  c #5E4B2E",
";  c #56462F",
":  c #574E36",
">  c #654A2F",
",  c #775334",
"<  c #840000",
"1  c #8B0000",
"2  c #930000",
"3  c #9B0000",
"4  c #A30000",
"5  c #AB0000",
"6  c #B30000",
"7  c #BB0000",
"8  c #8B2E00",
"9  c #812F00",
"0  c #9C2E00",
"q  c #922E00",
"w  c #8A3800",
"e  c #973A00",
"r  c #A82E00",
"t  c #B62E00",
"y  c #A83900",
"u  c #B73900",
"i  c #A92E2E",
"p  c #AB002E",
"a  c #C40000",
"s  c #CC0000",
"d  c #D30000",
"f  c #DC0000",
"g  c #E40000",
"h  c #EB0000",
"j  c #F40000",
"k  c #CD2E00",
"l  c #D22E00",
"z  c #DA2E00",
"x  c #C93900",
"c  c #DB3800",
"v  c #EA3700",
"b  c #E92E00",
"n  c #C60034",
"m  c #D43532",
"M  c #E83A33",
"N  c #EC003C",
"B  c #934300",
"V  c #874000",
"C  c #B84700",
"Z  c #B25400",
"A  c #B56600",
"S  c #BB7600",
"D  c #A56800",
"F  c #88492E",
"G  c #9A562E",
"H  c #895937",
"J  c #945231",
"K  c #AA4B2E",
"L  c #B7482E",
"P  c #A85A2E",
"I  c #B4592E",
"U  c #B15439",
"Y  c #996539",
"T  c #966F35",
"R  c #A26E3C",
"E  c #A86739",
"W  c #B86A39",
"Q  c #B8723B",
"!  c #AE6E33",
"~  c #9F6B00",
"^  c #CA4700",
"/  c #D84400",
"(  c #CD5900",
")  c #E94400",
"_  c #F94400",
"`  c #C86B00",
"'  c #C9482E",
"]  c #D7472E",
"[  c #C95A2E",
"{  c #D6572E",
"}  c #DA473A",
"|  c #C55638",
" . c #D65838",
".. c #C44337",
"X. c #E54A3B",
"o. c #EF4E32",
"O. c #C46939",
"+. c #CF703A",
"@. c #EB6338",
"#. c #AF3C4F",
"$. c #B10050",
"%. c #EB004D",
"&. c #CB3C43",
"*. c #F83945",
"=. c #CF0053",
"-. c #B4534E",
";. c #9A6A42",
":. c #997441",
">. c #A76A42",
",. c #A37442",
"<. c #AA7442",
"1. c #AB7A44",
"2. c #A97B48",
"3. c #B37540",
"4. c #B37B43",
"5. c #BB7B44",
"6. c #B77947",
"7. c #B87050",
"8. c #B66F6D",
"9. c #885240",
"0. c #C64D47",
"q. c #CC5548",
"w. c #D85545",
"e. c #D94842",
"r. c #E94C44",
"t. c #F94E41",
"y. c #E95449",
"u. c #F95248",
"i. c #EC5B57",
"p. c #F35751",
"a. c #C76D43",
"s. c #D66847",
"d. c #C67A45",
"f. c #D67743",
"g. c #D67756",
"h. c #CC6E55",
"j. c #E57849",
"k. c #F9635D",
"l. c #E86E53",
"z. c #CF756D",
"x. c #FC6867",
"c. c #FD7976",
"v. c #F07771",
"b. c #B5883C",
"n. c #9C853C",
"m. c #C58800",
"M. c #D3A23A",
"N. c #EB8F3C",
"B. c #AE8249",
"V. c #A5884B",
"C. c #B38349",
"Z. c #BA844B",
"A. c #BB8B4D",
"S. c #B78648",
"D. c #BC8D51",
"F. c #BC9153",
"G. c #B49258",
"H. c #BA8575",
"J. c #C8864A",
"K. c #CB954D",
"L. c #C48D51",
"P. c #CA8954",
"I. c #D68A57",
"U. c #C39454",
"Y. c #CA9354",
"T. c #CB9B5A",
"R. c #CA9857",
"E. c #D39C5C",
"W. c #D69658",
"Q. c #D58E49",
"!. c #E49758",
"~. c #E48751",
"^. c #CCA25D",
"/. c #D3A65C",
"(. c #D8B25B",
"). c #E5AB5E",
"_. c #D79A64",
"`. c #CC8F6B",
"'. c #E98D6D",
"]. c #CEA864",
"[. c #D3A564",
"{. c #DCA464",
"}. c #DBAB64",
"|. c #DCAC6B",
" X c #D6A967",
".X c #DBB266",
"XX c #DCB56A",
"oX c #DDB86B",
"OX c #DCAD73",
"+X c #DCB677",
"@X c #CEAC77",
"#X c #E4A76B",
"$X c #E3B46B",
"%X c #E2BB6C",
"&X c #E7B468",
"*X c #E7AB76",
"=X c #E3B374",
"-X c #E5BC76",
";X c #E3BC7C",
":X c #EABB7B",
">X c #E7B377",
",X c #E9C67A",
"<X c #FF7D85",
"1X c #B88C89",
"2X c #BAA091",
"3X c #D0958B",
"4X c #FB8987",
"5X c #E8978A",
"6X c #FF8992",
"7X c #F5948E",
"8X c #DAAF8A",
"9X c #E9BB86",
"0X c #E8A699",
"qX c #FAA29D",
"wX c #E9BB9B",
"eX c #EFB48A",
"rX c #FCA8A6",
"tX c #E9BBA6",
"yX c #F9B9B6",
"uX c #F2B2AC",
"iX c #E3C482",
"pX c #ECCC84",
"aX c #E8C787",
"sX c #F1D688",
"dX c #F2DB9A",
"fX c #EECF92",
"gX c #F6E698",
"hX c #ECC7A7",
"jX c #F3D9A6",
"kX c #F6C6B9",
"lX c #F4D6B6",
"zX c #EECBAD",
"xX c #F8E8A5",
"cX c #F9E8B7",
"vX c #D1C390",
"bX c #FCC8C6",
"nX c #F2D5C5",
"mX c #F9E9CA",
/* pixels */
"                                                                                                                                                      ",
"                                                                                            i.f                                                       ",
"                                                                                          k.g c.bX                                                    ",
"                                                                                        i.g v.bXbX                                                    ",
"                                                                                    t.p.g 4XbXbXrXqX                                                  ",
"                                                                                  } y.h 7XbXbXrX4Xc.                                                  ",
"                                                                                    a <XbXbXrX4Xx.u.                                                  ",
"                                                                                      -.uXrX4Xx.u.t.                                                  ",
"                                                                                        0.4Xk.o.u.i.                                                  ",
"                                                                                            u.t.y.g                   kXyX                            ",
"                                                                                      t.y.r.r.y.f z.              c.qXbXyXj x.                        ",
"                                                                                  <Xo.u.u.r.} e.k h.w.        i.t.c.qXbXrXg k.                        ",
"                                                                                  6Xp.t.u.y.} m &.7 g h 3X3Xg p.u.c.rXbXrXh x.                        ",
"                                                                                x.6Xx._ %.N s.^ `.vX0Xa a d w.r.u.<XrXbX7Xh                           ",
"                                                                    8.6.E 3.e n v 6Xc.j N.W.C.V.b.@XhX7.n q.r.u.u.4XuXbX7Xh                           ",
"                                                          3X8.6 6 A Q S.U.5.4.a.f z.=.`.@Xn.:.S.^.(.%XW.a  .}   p.v.uXuXv.h                           ",
"                                                      8.7 7 Z 5.7.U.R.W D.W U.D.E ~ D H.H.T V.G.].%XsX%Xd s.}       3 7 d }                           ",
"                                                  8.7 7 -.Z.L.Y.L.P.L.R.T.T.U.U.U.Z.Z.A D 8.1X2X.X(.gXsXg s.r.X.                                      ",
"                                              3X6 a 0.&.[ d.a.d.$X.XT.R. X[.L.[.|.Z.y 3.E 5 6 8.iX,XgXsXh l.r.u.                                      ",
"                                            8.7 0.&.a s d d d f.}.}.|.,X].+X,X].^.6.6 6 6 t C 6 7.].vXsXj p.r.u.u.                                    ",
"                                          z.].@XP.s ' d c d { {.-XI.=XiX+X@XoXL.[. XJ.7 L a a ..6 5 $. X@.M o.v _                                     ",
"                                        8._.iX8Xg.s m f / f f.=X_.s.s q.aX+X6 7 h.^.P.a ..0.q.a a.T.b.A.x.*.x.x.x.                                    ",
"                                      H.^.iXaX9Xw.e.w.e.f f c } f f d s.8X8XC m a a n a s s d =.| W.[.K.*X<X6X6X6X                                    ",
"                                    3X6 +XfX9Xs f f g f M g g f } / ] d s s s k ^  .d `.8X5Xz.d d ] s.K.'.x.c.<X                                      ",
"                                    7 7 _.aXs OXf 5X0X5Xg M g ) g f f z { ' x l l s g.8XwXhXtX2Xf w.s |.&Xh / z.                                      ",
"                                  H.` _.+XaXzXhX%.kXnXtXh p.h g { ~.j.m d k d m f h.0XwXwXnXuX3Xf m } I.#X=.[.m.                                      ",
"                                  7 iXiX=XdXcXwXzXnXkX0Xh r.v @.!.).!.!.E.l d d h.d tXhXzXnXuXtXi.f g.9X$X$X{.J.8.                                    ",
"                                `.R.fX,X#XjXfXwXtXyXqXh y.h o.~.!.&X!.#X=Xs ] d d d z.zXnXnXnXbX5Xg y.#XI.XX|./.m.                                    ",
"                                (.T.;XOX;XaXeXhXl.g ) M j j v j.~.#X&X#X>Xs s >XaXd d 5XmXnXnX0Xh y.g f f d W.}./.8.                                  ",
"                              @X%XP.a =X>X>XfXcXzXh u.M j v h @.!.!.&X,X#Xg.a ;XxX_.zX'.nX7Xh j i.h ] X.c s.}.Y.O.S                                   ",
"                              K.-X,X|.OXaX:XdXjXv.h p.h b v j j.!.).!.,X=XI.sXiXxXjXjX0XlX5XuXj h l.h X.g d {.W.7 S `.                                ",
"                              M.[.a |.=X=X>X>X9X*XeX'.j X.j h g h { s.d ,X|.+XgXgXcX*XhXwXlXkXwXlXv.h h l.g.+.[ a A 8.                                ",
"                            2XK.W.Y.W.-X>X#X>X9XfXfXeXh o.v g v f f Q.#Xa ,X{._.gXdXa jX'.lXcXmXjXj l.h 9X#X_.`.| t L                                 ",
"                            8.` %X}._.W._.pXsX!.*X:X#Xg X.g g f { ] s %X#Xa pX( ;XdXh.dXf dXcXcXeX*Xh *XaX*X XOXP.7 C                                 ",
"                            #.Y.}.Y.E.$X!.>XsXj.j.j.f v f g / f f.#X&X&X,X[ U pX_.9XOX,X{.xXxXjXjXeXg iX:X;X,X+XT.6 C                                 ",
"                            -.C Y.Y.E.&XW.#X#XI.g h v f z f d / d J..X,X,X,XT.P.+XW.iX_.fXaXf ~.#X:XpXsXpXiX|. X_.W 6                                 ",
"                            6 6 d.L.}.%X{.I.d d  .] z z f / d s s d./.%X$X%X,XL.+XpXiXiX_.*XaXpXpX:X!._.>X#X{.W.Y.L t                                 ",
"                            6 3.R.L.E.[.E.}.W. .d l l d x O.d.O.a d.K.W 5 5 W Y.iX6.5 iX;XOXI.d ( >X:X+. .OX[.P.7 >.W                                 ",
"                            -.! L.5.Q J.d.{.E.[ a x a ' | O.Q 5.d.u Q U.^. X}.T.XXXX X,Xa.=X,X,XsXsX#Xd s a J.a 6 Q 6.                                ",
"                            -.Z Z.Z.C 7 5.R.W.I a u a W 5.W 5.S.F.U.U.F.A.I 6.T.W oX X X[.a.-XpX,X,X-X!.s | 7 u 6 I 6.                                ",
"                            8.A 4.3.U 6 L 5.Z.L 6 t 5 E 3.C.4.4.C.E Q D.F.R.oX^.A.T.Q W oX/.5 /.,XoX%X$X' a C u 5 I W                                 ",
"                            1X6 1.I 5 y 5 y 5 5 r 5 5 K Q E E Q 1.y B.F.^.].^.2 ^.5./.}.5 %XT.6 .X$X7 7 u t 6 5 K S.W                                 ",
"                              5 U C 4 5 r 5 4 r 4 3 3 3 G E E R E 3 2 S.T.^.S.E ^.4 U.%XQ 7 oXJ.7 Y.a.7 C 7 6 3.3.4.>.                                ",
"                              5 p 4 4 4 3 4 3 0 0 3 3 2 2 2 2 J 2 2 ,.A.R U.R A.F.3 ^..X.XK.J..Xd.( O.C 7 7 C 6.1.W E                                 ",
"                              -.5 i 4 4 4 4 3 2 3 q 2 2 q 2 1 2 q 2 G 2 2 1.3 F.P A.^.}./..XK.K.oXR./.K.d.6 C K S.6.                                  ",
"                                5 i 4 5 0 3 e R G 2 q 2 8 1 1 8 2 1 2 2 e G 1.S.3 U.S./.^.7 Q.K.(./.J.J.O.6 5 5 4.>.                                  ",
"                                i 4 4 e 3 3 G 1.R B 2 1 1 < 1 1 1 1 2 Y 1.Q S.A.P ! 6 K.K.a s /.N.K.K.+.O.6 y W Q                                     ",
"                                  4 P <.P 0 2 <.1.w 1 V J F < 1 1 1 w R R 1.D.1.J.5 t x [ d +.!.Q.J./.J.Q 6 5.Z.!                                     ",
"                                  4 P C.4.e Y R R G G J 2.:.8 < 1 1 2 Y R B.4.4.J.Q 7 x s d { +.Q.Q.J.O.u u Z.A                                       ",
"                                    4 >.D.4.B.F.R B.S.T 1.T w 1 8 8 1 Y R S.4.Q W C a x l l d s a +.[ 6 6 i t #.                                      ",
"                                    4 P 2.C.C.D.B.,.B.R R J w 1 1 8 2 G R Q 4.W 6 a a ^ ^ l k x a a 7 u t 5 5                                         ",
"                                      4 4 3 C.<.B.2.1.T B.C.Y 1 B 2 2 2 3 e K r 7 t x a a s ^ a O.K.S.5 u 5                                           ",
"                                        4 K F.R.B.B.2.2.,.,.Y T ,.R J 2 q 4 4 5 6 u 7 d.J.I 7 7 U.U.E 5 y                                             ",
"                                          0 <.G.B 1.C.2.Y R ,.,.,.,.G 2 0 3 r y y t 5 U./.5.U.5.L.Z.U P >.                                            ",
"                                            P D.U.G.2 ,.,.2.V.;.B B 1 2 2 3 3 3 4 5 Z 4.F.U.^.6.S.D.E ;.                                              ",
"                                              2.L.F.2.U.2.,.,.Y w 1 8 1 q 2 G 1.2.G 2.U.6.1.<.>.1.Y 9.                                                ",
"                                                . 2.B.B.2.Y :.;.H F < 1 8 1 Y 2.2.2.2.,.2.>.<.Y 9.>                                                   ",
"                                              * * . o 8 1 1 ;.;.Y H w X < X < < F 2.,.;.;.;.H > : % * %                                               ",
"                                            * % % * * $ & O O 8 F w X X X X , F H T H H , @ $ # * & % % %                                             ",
"                                            % % % % % % % # > > & + + + + O , , , & > - ; - % % % % % % %                                             ",
"                                              % % % % % % % % $ - - - - - - - $ # - > % % % % % % % % %                                               ",
"                                                    % % % % % % % % % % % % % % % % % % % % % % % %                                                   ",
"                                                              % % % % % % % % % % % % %                                                               ",
"                                                                                                                                                      ",
"                                                                                                                                                      ",
"                                                                                                                                                      ",
"                                                                                                                                                      ",
"                                                                                                                                                      ",
"                                                                                                                                                      ",
"                                                                                                                                                      ",
"                                                                                                                                                      "
};
