/* XPM */
static char *_58dd5b982074522aa5a149d2014eb9cPbEG6brgij9pmzrP[] = {
/* columns rows colors chars-per-pixel */
"75 71 250 2 ",
"   c None",
".  c #080401",
"X  c #130600",
"o  c #190600",
"O  c #150901",
"+  c #190900",
"@  c #230300",
"#  c #2D0100",
"$  c #260D01",
"%  c #330200",
"&  c #3C0100",
"*  c #390C02",
"=  c #381302",
"-  c #2B1202",
";  c #430100",
":  c #4B0000",
">  c #4D0C01",
",  c #430C02",
"<  c #540100",
"1  c #5B0000",
"2  c #5A0B01",
"3  c #4B1402",
"4  c #4B1B03",
"5  c #421803",
"6  c #511402",
"7  c #591502",
"8  c #541B02",
"9  c #5B1C02",
"0  c #5D1709",
"q  c #640100",
"w  c #6C0100",
"e  c #680A04",
"r  c #730100",
"t  c #7B0100",
"y  c #760903",
"u  c #651402",
"i  c #6C1302",
"p  c #6A1D03",
"a  c #621C03",
"s  c #721B02",
"d  c #7B1902",
"f  c #741714",
"g  c #6E0D17",
"h  c #552204",
"j  c #5B2504",
"k  c #5A2B06",
"l  c #593907",
"z  c #412A05",
"x  c #642404",
"c  c #6D2303",
"v  c #632B06",
"b  c #6C2D05",
"n  c #6A2B08",
"m  c #732404",
"M  c #7B2302",
"N  c #732C05",
"B  c #7B2C05",
"V  c #6C3307",
"C  c #6C3309",
"Z  c #693608",
"A  c #743407",
"S  c #7D3306",
"D  c #7B3408",
"F  c #7B3C0A",
"G  c #753B08",
"H  c #722419",
"J  c #772426",
"K  c #76332B",
"L  c #7C420C",
"P  c #734208",
"I  c #6D430A",
"U  c #684134",
"Y  c #7C5644",
"T  c #830100",
"R  c #8C0000",
"E  c #880B03",
"W  c #930100",
"Q  c #9C0100",
"!  c #910A03",
"~  c #990D05",
"^  c #871502",
"/  c #951603",
"(  c #881115",
")  c #A40100",
"_  c #AC0201",
"`  c #A90B02",
"'  c #B30201",
"]  c #BB0100",
"[  c #B60B03",
"{  c #A81605",
"}  c #B51504",
"|  c #B01B1F",
" . c #832303",
".. c #8B2A04",
"X. c #872805",
"o. c #972405",
"O. c #873608",
"+. c #923E0B",
"@. c #983808",
"#. c #862A15",
"$. c #913816",
"%. c #A72607",
"&. c #B9270A",
"*. c #A7380A",
"=. c #AA361A",
"-. c #B12E11",
";. c #82282A",
":. c #963734",
">. c #B02C2A",
",. c #C40100",
"<. c #CC0101",
"1. c #C70A06",
"2. c #D40000",
"3. c #DB0100",
"4. c #D80B06",
"5. c #C91806",
"6. c #D9140A",
"7. c #D91513",
"8. c #E50906",
"9. c #FC0B05",
"0. c #F60704",
"q. c #E81716",
"w. c #FC1B19",
"e. c #F21308",
"r. c #C72A08",
"t. c #C6390C",
"y. c #D52C19",
"u. c #CF391F",
"i. c #F52815",
"p. c #CC2E25",
"a. c #FC2826",
"s. c #FF2E34",
"d. c #E93939",
"f. c #FF3B36",
"g. c #F22E2A",
"h. c #83430C",
"j. c #8B440D",
"k. c #8B490E",
"l. c #864B0F",
"z. c #93440C",
"x. c #934A0D",
"c. c #9B4A0D",
"v. c #9E450A",
"b. c #99530C",
"n. c #8B4C10",
"m. c #994B13",
"M. c #955512",
"N. c #9A5312",
"B. c #9C5B14",
"V. c #925A13",
"C. c #8C5110",
"Z. c #A6450B",
"A. c #A6570A",
"S. c #A74914",
"D. c #B54B15",
"F. c #A35314",
"G. c #A85916",
"H. c #BA5C19",
"J. c #B5581A",
"K. c #B04A08",
"L. c #9C641A",
"P. c #AD661A",
"I. c #A86416",
"U. c #B36B1A",
"Y. c #B96B1B",
"T. c #B6651B",
"R. c #B2741B",
"E. c #BB731C",
"W. c #BC7C1D",
"Q. c #AB7011",
"!. c #B75434",
"~. c #B45222",
"^. c #97682E",
"/. c #AD6C25",
"(. c #BB6B23",
"). c #B76824",
"_. c #BB742A",
"`. c #BA7924",
"'. c #B96B3D",
"]. c #B87933",
"[. c #AE6A31",
"{. c #9A542E",
"}. c #C6480E",
"|. c #C34B14",
" X c #C65816",
".X c #D25111",
"XX c #C6661D",
"oX c #C3731C",
"OX c #C4791D",
"+X c #D84839",
"@X c #CC522D",
"#X c #FF423D",
"$X c #C66A26",
"%X c #D46C29",
"&X c #CC7D2C",
"*X c #C57725",
"=X c #C37D33",
"-X c #D87433",
";X c #FE3A44",
":X c #FF3A47",
">X c #864444",
",X c #915452",
"<X c #BD6247",
"1X c #D4574E",
"2X c #FF5A56",
"3X c #F34F4B",
"4X c #CE7752",
"5X c #FF625D",
"6X c #E17050",
"7X c #D5786A",
"8X c #DA7873",
"9X c #FA6865",
"0X c #FB7977",
"qX c #E67465",
"wX c #BF812E",
"eX c #BF8834",
"rX c #CA8629",
"tX c #D6952B",
"yX c #C48C33",
"uX c #C98A36",
"iX c #D58735",
"pX c #C99236",
"aX c #D69936",
"sX c #D48C2C",
"dX c #DBA43B",
"fX c #E3AE38",
"gX c #CA8114",
"hX c #A6854C",
"jX c #D28D52",
"kX c #E3964A",
"lX c #DDAD51",
"zX c #E7B656",
"xX c #E2AA4E",
"cX c #D7976A",
"vX c #D58E6D",
"bX c #E48E6D",
"nX c #E4AC6C",
"mX c #EAC64B",
"MX c #EDC956",
"NX c #F1D459",
"BX c #F2CF74",
"VX c #FE8A88",
"CX c #FF918F",
"ZX c #FF9593",
"AX c #FF9895",
"SX c #E2948B",
"DX c #DFA589",
"FX c #E8AF8D",
"GX c #DF8F8A",
"HX c #F1CF96",
/* pixels */
"                                                                                                                                                      ",
"                                                                                            7.]                                                       ",
"                                                                                          7.<.g.0X                                                    ",
"                                                                                        7.<.g.VXAX                                                    ",
"                                                                                    9.7.,.d.CXCX9X2X                                                  ",
"                                                                                  [ 7.,.3XCXVX2X#Xa.                                                  ",
"                                                                                    ) >.ZXVX2X3Xw.9.                                                  ",
"                                                                                      t qX2Xf.w.9.8.                                                  ",
"                                                                                        ! f.w.0.8.1.                                                  ",
"                                                                                            9.4.6.]                   VX0X                            ",
"                                                                                      8.4.1.1.1.' |               a.2XAX0X8.7.                        ",
"                                                                                  s.9.9.8.4.[ ` ~ ( }         7.9.a.2XCX9X<.q.                        ",
"                                                                                  3X9.0.6.1.[ ' Q T ,.3.:.:.1.q.9.a.5XZX3X2.q.                        ",
"                                                                                q.:Xw.0.8.3.1.~ $.hX<XW T _ 1.4.9.s.9XCX1X3.                          ",
"                                                                    g n p b < R 8.;Xa.0.t.*.C l I ^.jX#.R ~ 1.9.9.f.9XZXd.2.                          ",
"                                                          >Xf r w M S S j.B b / ] | ( m.^.l z P V.Q.gXS.W { _   q.p.qX8Xp.3.                          ",
"                                                      J r t d B d j.x.s h.s k.F 9 8 x K K z l I L.W.fX(.) } `       < t Q [                           ",
"                                                  ;.t T E X.+.z.z.z.z.N.N.m.j.x.k.D D m u H K Y R.oXmXdX] r.<.1.                                      ",
"                                              ,Xt T E R E o.o.@.(.W.m.m.I.G.z.I.U.D w p f w w H /.fXNXfX<.5.<.3.                                      ",
"                                            J T ( W Q Q Q Q Q o.T.T.P.pXB.wXyXB.N.B r r r r y r m L.hXfX3.6.8.8.8.                                    ",
"                                          ;.I./.@.Q Q ) ) ) ` H.&X*._.yX/./.].O.I.P.O.T T T T E t w w L.e.8.0.0.0.                                    ",
"                                        ( F.yX_.=.) _ _ ' _ &.XXJ.{ Q ~ yX].t t ..F.+.R W ! ~ R o.c...S i.9.w.w.a.                                    ",
"                                      ;.N.wXjX].` ' [ [ ] ] ] [ ' _ _ %.'.[.! E R R W Q W Q Q Q ~ Z.G.b.+X;X;X:X:X                                    ",
"                                    >Xt ].xX].) ' ] ] ] ,.,.,.] ] ' ` ) Q W Q W Q ~ W =.'.!.>._ ) Q %.c.u.g.q.d.                                      ",
"                                    y T G.jX) !.] 1X1X+X,.<.,.,.,.' ' ' ` ~ Q Q Q Q %.!.4XvXvX,X_ { Q T.oX<.4.;.                                      ",
"                                  $...F._.uXlXjX,.vXSX7X<.6.<.<.5.t.&.' ) ) ) ) ) | '.jX4XDX7X<X] ' _ D.T.' A.O.                                      ",
"                                  T yXyX(.lXBX4XbXFXGX1X3.4.3.5.}..XD.D.D.) ) ) %.) hXvXGXDX8X7X5.] &.uX$XoXP.@.#.                                    ",
"                                n.z.xXrX).zXjXjX7XbX1X2.4.3.4.t.}.oX}.XX$X) ` ) _ ] | vXDXDXGXDX1X,.1. X=.(.T.G.z.                                    ",
"                                U.S.=X(.=XiX-XcXy.2.8.3.3.3.2.r.}. X&X X*X) Q $XuX_ ' @XFXDXSX1X2.1.<.] ' ) S.T.A.H                                   ",
"                              {.`.@.R _.*X$XkXBXkX3.6.3.3.3.3.r.}.}.oXrXJ.*.Q =XNX~.cXu.FX1X4.3.6.2.<.1.] { Y.v.X.S                                   ",
"                              b.rXrXY.*XaX&XzXzXp.8.4.8.3.3.2.5.}. X XsX$XS.dXyXMXnXnX4XnX1XqX3.3.6.<.1.] _ H.Z.T  .;.                                ",
"                              A.G.R ).(.$X&X%X-X@X6Xy.8.3.2.2.,.,.} } ) rXT.`.zXmXNX$XcX6XnXnX6XFXy.2.,.&.} %./ T d H                                 ",
"                            K A.F.@.S.rX$X$X%X-XkXkX-X3.2.<.<.,.,.' -.T.Q sXG.S.mXlX) lX@XnXHXHXnX3.6.<.iX).D.S.E t w                                 ",
"                            K  .OXT.G.D.D.dXdX|.%XiX.X<.1.,.,.] } _ ) gXY.W aX/ yXxX%.xX] lXBXBX-X%X<.%XiX$X~./.$.r w                                 ",
"                            g z.P.Z.D.Y.D.&XfXr.r.t.,.,.<.] ] ' %.U.oXOXsX/ E pXF.yX[.rX~.NXMXzXzXiX,.iX&X&XuX`.m.t y                                 ",
"                            y y j.c.A.E.D. XXX-.] ,.,.] ] ' ' ) Q *.Y.rXtXtXm.z.].v.yXD.kXpX,.t.%X-XaXfXaXrX).P.F.d w                                 ",
"                            w r O.+.T.rXT.*._ ) [ ' ' _ _ ` ) W W @.I.*XE.`.rXz./.aXpXyXJ.$XiXaXiX&X|.D.&XY.J.S.+.y r                                 ",
"                            w M x.O.A.G.S.Y.K.{ Q ) ) ) ) / X.o.R ..z.d q q ^ z.rXO.q pX=XJ.S._ } %XrX{ { (.G.@.t s m                                 ",
"                            y M j.S  .+...P.F.! W W W ! ^  .B X.X.r M j.B.P.P.M.R.R.I.yX/ `.tXpXdXdXJ.Q Q R @.T t m N                                 ",
"                            g i D D r r X.x.x.^ t T T d M M B D L l.k.k.S i N M.d `./.P.G...*XaXtXtXrXZ.W ! t t w i N                                 ",
"                            J i N s e w r B O.y w r w i N A N b A p c F h.k.W.M.h.N.M d R.F.w F.tXOXrXY.E T y r w u c                                 ",
"                            K w N i q w q q q q q q 1 q c x a x b < A L L.I.M.: B.B B.U.q OXN.t E.E.t T T T r w e D p                                 ",
"                              w q e q q q 1 1 1 < < < < 6 7 9 x 7 : : G C.C.A a B.1 k.OXX.r W.+.r c.X.T t t r m c A p                                 ",
"                              q q q 1 1 1 1 < < < : : : : : : > : : v G x L x F h.< L.R.R.c.O.R...E ^ T t r r B m m u                                 ",
"                              g q q 1 1 < < < : : : : ; ; : ; ; : : > : : v < h.2 F L.Q.G.Q.z.A.gXF.b.c. .r w e A N                                   ",
"                                q 1 1 1 < < : 9 3 : & ; & & & & ; & ; : : 6 b G < k.S I.N.T @.Z.I.I.@.+. .r w q A p                                   ",
"                                q 1 1 < < < 6 v j , ; & & & & & & ; ; 3 v v A G u p w z.Z.R Q A.K.A.Z... .r w m m                                     ",
"                                  q 2 x 7 : : x v ; & & , & % & & & ; h x v L b O.w t R / Q %.K.K.*.A.O. .r B S p                                     ",
"                                  1 u b n < 8 9 j 3 > , k h & & & & ; 4 9 V A B O.M T W Q ) { %.%.*.@...r r D s                                       ",
"                                    1 x F V Z L j Z G 4 k h ; & & & ; 6 x G N m M E R W Q ) ) ) Q / ^ y r w w q                                       ",
"                                    < u V b C L Z j Z j h , ; & & ; ; > j c b s r T R W Q ) Q W R T t r w w q                                         ",
"                                      1 < < A v v v v 8 Z G 4 & ; ; : : : < e w r T R R R W ! R ^ x.X.w w w                                           ",
"                                        1 2 l.C.Z Z C v h k 4 h k h > : : < 1 q r r t X.+.d t r k.x.i q q                                             ",
"                                          < x L < v C k h h h k j h 3 : : < 1 1 q w w M.G.B j.B O.G u u 0                                             ",
"                                            6 O.h.L : k h v Z 4 ; : & : : : : < < 1 q N h.h.M.N L h.a 6                                               ",
"                                              k h.l.v L v h h 4 & & & & & : 6 v N 6 A k.N n n x v 8 *                                                 ",
"                                                . v C C v 4 k 4 5 * & & & & 3 v n v v x k x k 6 , +                                                   ",
"                                              $ O . o * & & 4 4 5 = % % % % % % , k k 4 4 5 = @ O + + +                                               ",
"                                            + + + + O O @ # % % * % # # # # # % = 5 = = = o X O + + + + +                                             ",
"                                            + + + + + O O O O o @ @ @ @ @ @ - - - @ o O . o O o O + + + +                                             ",
"                                              + + + + o o + O O O O O O O O O X X O O O O + + + + + + +                                               ",
"                                                    + + + + o + O + o + o + o O + + + + + + + + + +                                                   ",
"                                                              + + O + + + + + + + + + +                                                               ",
"                                                                                                                                                      ",
"                                                                                                                                                      ",
"                                                                                                                                                      ",
"                                                                                                                                                      ",
"                                                                                                                                                      ",
"                                                                                                                                                      ",
"                                                                                                                                                      ",
"                                                                                                                                                      "
};
