/* XPM */
static char *_288345606d54cbb8b315674a439a6a7wQkjhpcqV0drfRHa[] = {
/* columns rows colors chars-per-pixel */
"75 71 240 2 ",
"   c None",
".  c #030000",
"X  c #0B0100",
"o  c #130000",
"O  c #1B0000",
"+  c #1E0D00",
"@  c #230100",
"#  c #2C0100",
"$  c #2E0C00",
"%  c #330200",
"&  c #3B0100",
"*  c #340A00",
"=  c #3C0C00",
"-  c #3A1500",
";  c #2D1600",
":  c #430100",
">  c #4B0100",
",  c #420C00",
"<  c #4B0C00",
"1  c #530100",
"2  c #5B0100",
"3  c #540C00",
"4  c #5C0C00",
"5  c #580A0C",
"6  c #441200",
"7  c #4B1200",
"8  c #4C1A00",
"9  c #461A07",
"0  c #531300",
"q  c #5A1400",
"w  c #541B01",
"e  c #5B1C01",
"r  c #581A09",
"t  c #591A19",
"y  c #421E14",
"u  c #630100",
"i  c #6C0100",
"p  c #650C01",
"a  c #690C00",
"s  c #730100",
"d  c #7C0000",
"f  c #720C00",
"g  c #7F0900",
"h  c #641301",
"j  c #6A1400",
"k  c #6D1B01",
"l  c #631905",
"z  c #741401",
"x  c #721C01",
"c  c #7B1C01",
"v  c #7D1401",
"b  c #7A1919",
"n  c #5C2101",
"m  c #562101",
"M  c #4D2101",
"N  c #642301",
"B  c #6B2401",
"V  c #6C2A02",
"C  c #662A01",
"Z  c #732401",
"A  c #7C2401",
"S  c #742B01",
"D  c #7D2B02",
"F  c #6F3202",
"G  c #743202",
"H  c #7C3402",
"J  c #7B3C03",
"K  c #782E10",
"L  c #573021",
"P  c #6C2A29",
"I  c #7D4109",
"U  c #6F4212",
"Y  c #840100",
"T  c #8B0100",
"R  c #8A0A00",
"E  c #840B01",
"W  c #940100",
"Q  c #9C0000",
"!  c #9A0B01",
"~  c #8B1102",
"^  c #841A01",
"/  c #8B1D01",
"(  c #851302",
")  c #961702",
"_  c #A30000",
"`  c #AC0000",
"'  c #A40D01",
"]  c #AB0A01",
"[  c #B40100",
"{  c #BC0100",
"}  c #B90905",
"|  c #AC1704",
" . c #B31601",
".. c #A71514",
"X. c #832302",
"o. c #8C2401",
"O. c #842B02",
"+. c #8C2E02",
"@. c #922402",
"#. c #972603",
"$. c #843201",
"%. c #8A3303",
"&. c #843B03",
"*. c #8E3C03",
"=. c #9C3304",
"-. c #943C04",
";. c #9D3D04",
":. c #943705",
">. c #963914",
",. c #962B14",
"<. c #A72702",
"1. c #B32703",
"2. c #A63805",
"3. c #B53805",
"4. c #AA2D15",
"5. c #B9261B",
"6. c #A93424",
"7. c #BB3625",
"8. c #C40000",
"9. c #CB0100",
"0. c #C30E06",
"q. c #D30101",
"w. c #DD0101",
"e. c #DB0C0A",
"r. c #C61804",
"t. c #DB1A19",
"y. c #E60201",
"u. c #EC0101",
"i. c #E60B08",
"p. c #F60100",
"a. c #FE0302",
"s. c #FD0C09",
"d. c #FF110E",
"f. c #E21617",
"g. c #FF1915",
"h. c #FF171A",
"j. c #FF0E11",
"k. c #C53309",
"l. c #C3251A",
"z. c #D12213",
"x. c #FF231F",
"c. c #FD1A21",
"v. c #FF1621",
"b. c #D2322F",
"n. c #FF3935",
"m. c #F22E2B",
"M. c #8C4304",
"N. c #8D4806",
"B. c #944404",
"V. c #9C4305",
"C. c #954C04",
"Z. c #9A4908",
"A. c #9B5307",
"S. c #974517",
"D. c #9A5712",
"F. c #A44D05",
"G. c #AB4C05",
"H. c #AB440B",
"J. c #A54C0C",
"K. c #A84508",
"L. c #B94909",
"P. c #A45306",
"I. c #A4520A",
"U. c #A85808",
"Y. c #B45B0C",
"T. c #BA5A0D",
"R. c #B6550A",
"E. c #A44A19",
"W. c #AA5A13",
"Q. c #AA5A11",
"!. c #BA5C13",
"~. c #B74216",
"^. c #B3690E",
"/. c #B8640C",
"(. c #AE6813",
"). c #AA6917",
"_. c #B66915",
"`. c #BA7615",
"'. c #8C5B2F",
"]. c #B3472B",
"[. c #BA5A2B",
"{. c #B45D35",
"}. c #A34727",
"|. c #826520",
" X c #B56D34",
".X c #C7450C",
"XX c #C95D14",
"oX c #D2521A",
"OX c #CB4D10",
"+X c #C5720D",
"@X c #C26C16",
"#X c #CA7D14",
"$X c #C67817",
"%X c #D4781C",
"&X c #C2680E",
"*X c #D15731",
"=X c #F5413E",
"-X c #CB7629",
";X c #C86A34",
":X c #D37831",
">X c #BD5941",
",X c #BE7146",
"<X c #C8534B",
"1X c #D2574A",
"2X c #D04A43",
"3X c #FF4A46",
"4X c #F75553",
"5X c #CF704D",
"6X c #FE635F",
"7X c #D6746B",
"8X c #D16C66",
"9X c #FE6664",
"0X c #FE6E6B",
"qX c #FF7572",
"wX c #FF706E",
"eX c #CE8919",
"rX c #D58C18",
"tX c #D59518",
"yX c #D49829",
"uX c #D38C36",
"iX c #DC9935",
"pX c #CC8B2F",
"aX c #E19E39",
"sX c #DFAC28",
"dX c #D7A13B",
"fX c #E3B528",
"gX c #E9BB35",
"hX c #E5AD35",
"jX c #EDC23C",
"kX c #E9CB29",
"lX c #DB8848",
"zX c #D78450",
"xX c #E89E5C",
"cX c #EAB24B",
"vX c #E9AA55",
"bX c #D58868",
"nX c #DB926E",
"mX c #E2A97C",
"MX c #F1C954",
"NX c #F2CE6C",
/* pixels */
"                                                                                                                                                      ",
"                                                                                            8._                                                       ",
"                                                                                          8.{ s.4X                                                    ",
"                                                                                        9.[ e.9XqX                                                    ",
"                                                                                    a.q.` f.0X0X3Xm.                                                  ",
"                                                                                  Q [ [ m.0X9Xn.x.s.                                                  ",
"                                                                                    d ..0X6Xn.x.a.p.                                                  ",
"                                                                                      1 2Xn.g.a.a.w.                                                  ",
"                                                                                        i g.a.p.w.{                                                   ",
"                                                                                            p.9.{ _                   9X4X                            ",
"                                                                                      w.8.` [ [ Q E               s.n.wX4Xq.q.                        ",
"                                                                                  h.a.p.w.8.Q T d u W         8.a.s.n.9X=X[ w.                        ",
"                                                                                  c.a.y.9.[ _ W d 2 [ 9.b b ` q.p.j.n.wXm.8.y.                        ",
"                                                                                q.c.a.a.w.8._ d k '.}.s u T ` 9.p.j.=XwXb.8.                          ",
"                                                                    > < : < # 2 q.c.j.a.r.^ 8 ; - I  Xp u Y ` u.a.g.4XqXt.8.                          ",
"                                                          t > : > 3 q q N 3 6 d _ W u V U ; + M F N.Y.^ s Y T   y.0.b.1X} {                           ",
"                                                      5 > 1 1 4 1 B V > N > N e % # % r y $ - M I U.tXU.Y W W       # 1 Y Q                           ",
"                                                  5 1 2 2 p k Z k Z k S S S k N B 0 3 < > = y L C.G.fXeXQ ] [ `                                       ",
"                                              P 1 u i i i a f f F.F.D A &.&.B *.N.q > < > > : : N.rXkXeX[ { { 9.                                      ",
"                                            5 2 i i s s d d d E ;.V.*.`.$.D.(.H H 4 > > 1 1 1 > 1 J |.tX9.q.q.y.q.                                    ",
"                                          l %.S.v d d Y Y Y T =.Y.^ J.(.N.N.D.h &.M.j 2 2 u u u 2 > > I w.u.y.u.u.                                    ",
"                                        u D ).Z.E Y T W W W ! H.=.Y d s ).D.2 2 p O.c u i i i i i A a e i.a.a.a.a.                                    ",
"                                      5 H ).).E.T W Q Q _ _ Q Q W T T Y S.S.i i i i i s s d d s d X.:.V z.v.c.c.c.                                    ",
"                                    P 2 D.`.W.T W Q _ _ ` ` ` _ _ Q T T d s s s s s d ( }.,.~ Y Y d g A | i.u.f.                                      ",
"                                    2 2 %._.Y 4.Q 7.7.5.[ [ [ ` _ Q Q T Y d d d d d R >.{.5X>X6.T T d K.L.{ { h                                       ",
"                                  l a O.Z._.uX[._ 5X8X<X{ 8.{ [ ` | ! W T Y d Y Y T E.{.}.bX>X6.Q Q T / ;.W o.h                                       ",
"                                  2 ).(.J.pXMX*X5XnX8Xb.8.8.8.[ 1.1.<.<.#.Y Y Y T Y {. X5XbX>X>X` _ ' Y.Z.G.*.x 4                                     ",
"                                B A eXW.V.pX-X;X*X*Xb.9.9.8.8. .1.L.<.H.H.Y Y T Y T ! 5XbXbX8X7X5.[ ` 2.) J.V.%.k                                     ",
"                                Z.A Q.J.Q./.~.;X0.8.q.9.q.9.8. . .3.R.2.L.Y d J.).T Q 4.mXnX7Xb.8.{ ` _ W Y X.B.D 3                                   ",
"                              K U.z i J.G.~.-XcX:X8.9.q.9.9.8.} 1.1.L.T.=.( d W.gX#.5X| nXl.8.q.9.8.[ ` Q W K.c p 4                                   ",
"                              S /./.V.J.@XT.iXiX0.9.q.q.9.9.{ [ 1.3.3./.G./ $X_.fXdXiX].zXl.*Xq.9.9.{ ` _ T ;.^ 1 p t                                 ",
"                              $.%.i B.K.H.T..XXXk.oXr.9.9.8.{ [ _ Q W Y _.;.A.sXsXMXH.;X*XzX5X*XxX0.{ [ ' W E s u 1 3                                 ",
"                            t $.D c o.R.L.3.L.XX%X%XOX8.8.{ [ ` _ W ) 2.s `.+.o.sXyXd pX1.lXvXNXlX8.8.[ !.2.#.^ u 1 >                                 ",
"                            5 4 U.-.%.#.=.eX%X1..XXXk.{ [ ` ` _ Q T Y Y.V.i $Xs ).yXT pX_ uXMXcXoX.X[ L.@XH.>.V.z > >                                 ",
"                            > Z -.X.+.K.) Y.rX| [  .` ` ` ` Q Q R F.G.G.+Xi u ^.%.W.B.!.2.jXhXiXiXXX` XXR.Y.Y.I.D > >                                 ",
"                            > 1 B A +.G.+.2.2.! Q _ _ _ Q Q W Y d v V./.+X+XD k I.A (.@.$X`._  .3.OX%XrX$X_.V.B.O.1 >                                 ",
"                            > > h x B.R.=./ Y T W W W W T T Y d s z *.U.Z.A.^.x N.`._._.=.H.@X$X$XR.<.<.Q.2.:.X.x > >                                 ",
"                            : 1 B k $.*.+.V.o.Y Y Y Y Y d s p i u h k 2 : : 2 Z ^.h = _.Q.:.) T W L.T.W Y Z.%.z 1 1 <                                 ",
"                            : 3 l 4 2 k a -.O.i s i i i u p 4 4 4 1 3 k H M.M.S C.C.*.^.i I.`./.eX#X:.d d i z 2 1 < <                                 ",
"                            > > w q > > h Z Z 2 2 2 2 2 1 4 3 0 e N N N q : 3 S 1 A.M.M.%.a P.#X#X+XY.o.i i 2 1 > : <                                 ",
"                            > > < < > : > 3 q > > > : > < 7 < 7 7 : < e n V A.S l S 4 2 C.O.: +.+XF.U.F.i 2 2 > : : :                                 ",
"                            t : < > : : & : & : & & & & = , & = , % 7 w G M.G @ J 3 H B.: U.D 1 Z.F.2 2 2 1 1 : : 0 ,                                 ",
"                              : : : & & & & & % % # # # % % % = % # @ 8 N F w & G % C U.4 > P.k 1 A a 2 2 1 > < < 7 :                                 ",
"                              : & & & % % % % # # # # @ @ @ # # @ @ = w = e = w n % J C.A.Z j A.j u u 2 1 > > 3 < > :                                 ",
"                              : : & & % % % # # # @ @ @ @ @ O @ @ @ @ @ # 6 @ n & w &.M.&.C.c D P.O.H Z 4 > > : 7 7                                   ",
"                                & & % % # # # % # O @ O O O O O O @ @ O @ # 6 0 % N q &.S u c X.B.*.z x u > > : 0 :                                   ",
"                                & & % % % # # = * @ @ O O o O O O O @ # = = w w : > > B A i s +./ -.X.a 2 > : > <                                     ",
"                                  & % = % # @ * = @ O O O O o O O O @ % = = w < q : 1 u s d R +.o.( O.k p > 0 e :                                     ",
"                                  % & 7 6 # % % * @ @ @ * * O o O O O # * 7 7 3 q 2 2 i s Y T R R ^ x p 1 > 0 >                                       ",
"                                    % : w , 6 m * 6 6 $ - # O O O O O # = 0 7 3 3 2 i s d Y Y Y d s u 1 > > > &                                       ",
"                                    % & 7 6 7 m 6 = 6 * * @ O O O @ O # % , < > 1 u i s d Y d s i u 2 > > : :                                         ",
"                                      % % # 7 = 6 = = $ 6 8 @ O @ O @ @ # % & : 1 2 u i i i i u u Z 4 : : &                                           ",
"                                        % & C C 6 6 6 - * * # $ * * @ @ # # % & > 1 1 p x 2 1 1 B V : : &                                             ",
"                                          # = m # = 6 = % * * * * % @ @ # # % & & : : S J 3 B 3 e 0 : & =                                             ",
"                                            % e n m @ * $ - - # @ @ @ @ @ @ # # # % & 3 l N G 7 w e = #                                               ",
"                                              * n N = m = % $ @ O O O O @ O # , < % 7 N 7 , = = , % o                                                 ",
"                                                . = 7 6 6 @ $ $ O O O O O o @ , 6 = = = = * * # O .                                                   ",
"                                              X . . . o O O @ @ + O o o o o o o O * * # # @ O . . . X .                                               ",
"                                            . . . . . . . o o o o o o X X X o o O + O o X . . . . . . . .                                             ",
"                                            . . . . . . . . . . X . . X X X X X X . . . . . . . . . . . .                                             ",
"                                              . . . . . . . . . . . . . . . . . . . . . . . . . . . . .                                               ",
"                                                    . . . . . . . . . . . . . . . . . . . . . . . .                                                   ",
"                                                              . . . . . . . . . . . . .                                                               ",
"                                                                                                                                                      ",
"                                                                                                                                                      ",
"                                                                                                                                                      ",
"                                                                                                                                                      ",
"                                                                                                                                                      ",
"                                                                                                                                                      ",
"                                                                                                                                                      ",
"                                                                                                                                                      "
};
