/* XPM */
static char *_4b1efbe8520482cfdd896babff2ff0fK2hv8GYwh9SfcEjk[] = {
/* columns rows colors chars-per-pixel */
"75 75 236 2 ",
"   c None",
".  c #282B31",
"X  c #263A6F",
"o  c #722F6A",
"O  c #124378",
"+  c #3A5172",
"@  c #484668",
"#  c #6C7978",
"$  c #72807F",
"%  c #1A5588",
"&  c #3D5D88",
"*  c #2C7983",
"=  c #435E83",
"-  c #56678C",
";  c #51779B",
":  c #507EA6",
">  c #91308B",
",  c #A5469E",
"<  c #9C659A",
"1  c #A1649F",
"2  c #B26AAF",
"3  c #CA6FC7",
"4  c #D97CD5",
"5  c #C979C7",
"6  c #1F8896",
"7  c #348B96",
"8  c #1F91A6",
"9  c #04A3B9",
"0  c #15A7BB",
"q  c #2AA7BC",
"w  c #37A7BA",
"e  c #2DA7AC",
"r  c #458695",
"t  c #779595",
"y  c #6C8D95",
"u  c #4C9BA6",
"i  c #4E94AE",
"p  c #689CBE",
"a  c #7498B2",
"s  c #5BA3AD",
"d  c #48A4B8",
"f  c #59ACB8",
"g  c #55B3B0",
"h  c #63A2AD",
"j  c #62A7B9",
"k  c #75AAB7",
"l  c #66B1BA",
"z  c #3EC3BF",
"x  c #79C5BE",
"c  c #17B9CE",
"v  c #34ADC1",
"b  c #33AEC8",
"n  c #2CB7C9",
"m  c #3EB6C7",
"M  c #33BBD1",
"N  c #48ABC5",
"B  c #47B4C4",
"V  c #46B8D0",
"C  c #7CA5C1",
"Z  c #7FACCA",
"A  c #63BDCB",
"S  c #6BBBC5",
"D  c #79BAC7",
"F  c #71AFCD",
"G  c #1AC0D6",
"H  c #3BC8D9",
"J  c #3BCECB",
"K  c #3CD5E5",
"L  c #46C7D6",
"P  c #5CC8D7",
"I  c #55D8DA",
"U  c #43DDD9",
"Y  c #69C6D7",
"T  c #76CCD5",
"R  c #67DAD9",
"E  c #75CED1",
"W  c #67E1DD",
"Q  c #79E1DF",
"!  c #48D6E4",
"~  c #5AD8E7",
"^  c #4ACEE2",
"/  c #64C9E2",
"(  c #6BD8E9",
")  c #74DBEB",
"_  c #43E2EA",
"`  c #59E6EB",
"'  c #62E4EC",
"]  c #63ECEC",
"[  c #6CEAE7",
"{  c #6BF3EE",
"}  c #76F2EF",
"|  c #68EBF5",
" . c #6CFEFD",
".. c #69F5F8",
"X. c #72F6F4",
"o. c #71F9F5",
"O. c #74FEFD",
"+. c #7CFFFF",
"@. c #7AF6F5",
"#. c #74E7EC",
"$. c #889392",
"%. c #979B9C",
"&. c #8DA29F",
"*. c #93B8BC",
"=. c #8AADAD",
"-. c #B6B9B9",
";. c #A7AAAF",
":. c #90C1BC",
">. c #BCC0BC",
",. c #86BBC3",
"<. c #99B9C7",
"1. c #8CBADA",
"2. c #86B7D4",
"3. c #97BCD5",
"4. c #A1BEC0",
"5. c #85BCE0",
"6. c #DE86DC",
"7. c #D298D6",
"8. c #E282DE",
"9. c #D8A4DE",
"0. c #DE96E1",
"q. c #E789E4",
"w. c #F791F3",
"e. c #E6B6ED",
"r. c #EBB7F2",
"t. c #E7A9EB",
"y. c #89C0C6",
"u. c #99C9C9",
"i. c #88C9D6",
"p. c #9BCED4",
"a. c #97C7D7",
"s. c #89D5D7",
"d. c #9CD5DB",
"f. c #98D6D9",
"g. c #8BD3CC",
"h. c #A3CDCB",
"j. c #A8CAD5",
"k. c #B3C9D8",
"l. c #A1D5DB",
"z. c #A6DADE",
"x. c #ACDBDB",
"c. c #A9D5D7",
"v. c #B7D7D8",
"b. c #BEC0C0",
"n. c #92E1DE",
"m. c #A9E1DE",
"M. c #8EDDE6",
"N. c #85D7E4",
"B. c #94DCE7",
"V. c #8FCEE1",
"C. c #ACDCE3",
"Z. c #A1D9E3",
"A. c #B4DEE1",
"S. c #B8D9E5",
"D. c #A3C9E0",
"F. c #8BE3EA",
"G. c #8BE5E6",
"H. c #96E4E7",
"J. c #82FFFF",
"K. c #87F7FA",
"L. c #99F9FA",
"P. c #94EDEF",
"I. c #ADE3E4",
"U. c #ACE5EA",
"Y. c #A4E6EA",
"T. c #B4E3E5",
"R. c #BBE4E5",
"E. c #B9E6E9",
"W. c #B3EBED",
"Q. c #BCEAED",
"!. c #B7E6E9",
"~. c #A7EBF2",
"^. c #BBECF3",
"/. c #B3ECF3",
"(. c #AEF3F4",
"). c #ABFFFE",
"_. c #A6F7F9",
"`. c #B2F4F6",
"'. c #BDF2F3",
"]. c #B4FDFC",
"[. c #BBFEFD",
"{. c #B8F7F9",
"}. c #B2F4EB",
"|. c #C4C4C4",
" X c #CACCCC",
".X c #C8C7C6",
"XX c #CDD7D6",
"oX c #D4D5D4",
"OX c #DBDCDC",
"+X c #D6D6D7",
"@X c #CCCFCC",
"#X c #E2D9DD",
"$X c #DBE1DF",
"%X c #CBE1DC",
"&X c #D7CBEC",
"*X c #C8D8E6",
"=X c #D4DEEF",
"-X c #ECD1F2",
";X c #C2E4E6",
":X c #C3EBED",
">X c #CBECEE",
",X c #C7E5E5",
"<X c #D3EBED",
"1X c #DAE6E6",
"2X c #C8F0EF",
"3X c #CAEDF4",
"4X c #D7ECF7",
"5X c #C3F2F3",
"6X c #CAF4F4",
"7X c #C3FEFD",
"8X c #CBFCFD",
"9X c #C6F7F7",
"0X c #D2F3F3",
"qX c #DCF3F4",
"wX c #D4FEFE",
"eX c #DCFDFD",
"rX c #D6F7F8",
"tX c #D5F0EF",
"yX c #E3E4E5",
"uX c #EAEDED",
"iX c #E7E5E9",
"pX c #F1EEED",
"aX c #E7EEF6",
"sX c #F4EDFA",
"dX c #F8EAF7",
"fX c #E4F4F6",
"gX c #EDF2F2",
"hX c #E5F5FA",
"jX c #EDF5FA",
"kX c #E3FDFD",
"lX c #EBFDFD",
"zX c #F3F3F5",
"xX c #F4F3FA",
"cX c #F3FDFD",
"vX c #FEFEFF",
"bX c #FBF5FC",
/* pixels */
"                                                                                                                                                      ",
"                                                                                                                                                      ",
"                                                                                                                                                      ",
"                                                                                                                                                      ",
"                                                                          ;                                                                           ",
"                                                                        + / 7                                                                         ",
"                                                                        ; ) A                                                                         ",
"                                                                      X D F./                                                                         ",
"                                                                      : Y.rX~ A                                                                       ",
"                                                                      v 0XcXN.^                                                                       ",
"                                                                    *.~.S.cXT | f                                                                     ",
"                                                                      3XH.a.~ Y                                                                       ",
"                                                                  4     '.#.Y     C                                                                   ",
"                                                                  4 q.    B.    5.a                                                                   ",
"                                                                    dXw.  g.  a.S.                                                                    ",
"                                                            .X      /.sX7.d.a.vXiX      .X                                                            ",
"                                                            yX        wX=X^.aXbX      -.OX                                                            ",
"                                                             XgX      :X8X8XvXiX      cX                                                              ",
"                                                              vXOX    v.8X8XbX      bXuX                                                              ",
"                                            |.                1XvX-.    ~.eXzX    uXvXh.                .X                                            ",
"                  S w s                     OX|.                lX*X    E 8X    r eXL.                 X.X      2             O % y                   ",
"                  l.).) ~ ^ ~ /     2.        gX                5X7XB   e {.    P +.]                 pX      o 8.  -.<.i p D 2./.=.                  ",
"                    5X`.tXE.Y ! R   1.3.      uXgX              c.wX) 8   [.  0 | O.                bXoX      0.8.  pX^.Y.hXkX8XW.                    ",
"                      {.6XvXhXB Y   F cX        vXH.              8X`.V I 7Xy.H +.X.              tXvX      l.dX    zXM.lXcX9X^.                      ",
"                      R.7Xl.A.T +.    4XzX      pX7XU             :XwX) ~ 7XN.` J.W             T.vXOX      8Xr.  %XkXN.U.Y.[.h.                      ",
"                        :XkX6X:XU.s.*.S.vXyX      ).O.      OX-.    eXU._ 7XB...O.     X      A.wX:X      5XkX9.x m.^.U.(.7Xc.                        ",
"                          oX        j.^.gXvX X    V O.o.      %.#   6X9X~.kX~. .}   t $.      8X{.v     ;XwX{./.u.        *.                          ",
"                            > 3 0.e.-X3X[.eXbX    d ' O.{     u.d.  ;XkXcXcXkX].    n.y.    5X8X(       ).].fX4X*XS.1.p @                             ",
"                          2 4 q.*X5X9XwX8X[.8XqX    n #.+.[     L.  fXcXkXcXlXcX$X  F.    ^.wXB.v     ).kXvXvXbXdXgX*XD Z a                           ",
"                                            G.G.wXgXi.K @.+.R   f f ,XlXkXzXkXcXXXw h   v.eXU.L L P.8XtX#X                                            ",
"                                                z ).eX>XF.L.8XlXI.6 i.eXkXxXkXrXl 6 A.lXkX8X#.@.[.6X                                                  ",
"                                            0 v q c ] 8XlXhXlXlXkXT S U.jXsXkXf.l s.kXlXlXlXwXwXC.m 9 d d                                             ",
"                               XyXgXvXvXvXwX{._.P.M.N.F.kXcXlXkXlXW.d.d.aXdX>Xd.a.'.eXkXcXcXhXG.! ' | X. .[.vXvXvXgXyX X                              ",
"                                      ,XE.:X9X8XwXeXeXwXkXkXlXbXjXfXC.z.3XlX;Xl.C.hXfXxXkXlXwXO.J.J.+.o.o.{ [ x. X                                    ",
"                                                  x.E.Q.kXlXkXhXxXsXhXT.:XkXR.!.hXdXxXkXeXcX8X] R R                                                   ",
"                                                        $XkXeX5XqXhXlXhX>X0XtXkXkXaX<X9XrXqX                                                          ",
"                                                  y c.f.g u f a.z.T.Q.0X;XE <XtX!.z.p.D s u Y f.*.y                                                   ",
"                                                -.t m.P.f u l s.l.m.:XfXS.A <XqX;Xz.p.D s u E Y.*.$.oX                                                ",
"                                                        @XeXrX6XqXjXlXkX<X<X>XkXlXfX>X5X6X0XXX                                                        ",
"                                                  R R W eXlXeXhXsXdXfXE.:XcXR.!.hXsXsXrXkXcXqX!.R.                                                    ",
"                                      m.` { o.O.+.J.J.+.eXkXlXzXhXfXC.C.0XlX:Xz.R.hXaXjXkXkXkXwXeXeXwX9X6X^.R.,X                                      ",
"                            -.+XyXbXvXvXcXL. ...| ' ~ }.lXcXkXeXwXT.c.d.aXxX<Xp.p.:XwXeXlXcXqXG.B.H.~.`.[.kXvXvXvXzXiX@X                              ",
"                                          j d m 9 Y >XeXqXlXhXlXeXD ,.I.lXsXhXd.k y.kXlXlXlXkX_._ M v v w ,.                                          ",
"                                                .XeX].` G.wXeXhXh.* D wXqXsXwX5Xj * v.lX9XL.M.6X8XK.                                                  ",
"                                            #X<X7XQ H / 9XwXA.  s d E.eXeXzXwXlXh.Y k   I +.] L p.%X[.[                                               ",
"                          a k 2.*XaXsXbXvXvXkXP.    V (.wXE.    P.  fXcXkXlXeXcX,Xg.(.    W +.' c     wX[.[.wX9X9X5X&X6.4 5                           ",
"                              1.1.D.S.<XeX].`.    q F.wXQ.    h.I.  H.8XlXcXlXkX    9Xu.    X.O.~ d     vXrX`.4X-Xe.0.3 ,                             ",
"                          @         z.3X9XwX      A 8X5X      &.y   }  .6XkX'.wXv.  =.$.      O.X.n     +XvX4X^.k.        t                           ",
"                        k.N N i D I.*.e.eX:X    <.eX8X      oX-.    +...Q.[.~ 9X5X    |.      g O.(.      iXbXD.  G././.`.a.&                         ",
"                      +XB.s.B.T [.    sX'.      zXlX              [ +.! E.[.K B.wXu.            J eXpX      bX;X    [.s.B.M.p =                       ",
"                      ~.Z.vXaXs.Q.  6.jX       XvX;X              o.X.c c.].J Y 8XE.              I.vX      oXeXF   U.N.cXcXZ.i                       ",
"                    C.) qX8Xi.{.Q.  q.7.      gXuX              R +.' 9   ].  b ~.8X                cXiX      3.Z   :XL.!.jXkXa.%                     ",
"                  c.).[.]._.Y.9X    8.        lX                {  .B     _.    Y 8XE.                zX        Z     kXqXkXlXlXS.-                   ",
"                  *.p.j.          2         $X                  _.!.    oX7X    s lX6X                 X+X        y           OXyX;.                  ",
"                                            9.                m.vX X    iX8XW.    $XvX                  |.                                            ",
"                                                              cXOX    ;.vX[.'.      zXzX                                                              ",
"                                                             XcX.     #XvX{.wXA.    %.vX                                                              ",
"                                                            $X%.    %.vX4X5X4X9X       XyX                                                            ",
"                                                            |.      #XhXa.A.t.kXp.       X                                                            ",
"                                                                  # 4X3.  s.  r.&X                                                                    ",
"                                                                  k 2.    d.    w.2                                                                   ",
"                                                                  C     5X~.;   < 4                                                                   ",
"                                                                      :X/.l.i.-   1                                                                   ",
"                                                                    +X8XT.cXB.B.t                                                                     ",
"                                                                    oXqX0XcX(.`.t                                                                     ",
"                                                                      uXrXfX7Xx.                                                                      ",
"                                                                      |.cX6X8X                                                                        ",
"                                                                        zXlXT.                                                                        ",
"                                                                        oXcXt                                                                         ",
"                                                                          v.                                                                          ",
"                                                                                                                                                      ",
"                                                                                                                                                      ",
"                                                                                                                                                      ",
"                                                                                                                                                      ",
"                                                                                                                                                      "
};
