/* XPM */
static char *b07e7ceceb0a4126980130f8084fbb74UIFANpJ027ATHSJn[] = {
/* columns rows colors chars-per-pixel */
"75 75 235 2 ",
"   c None",
".  c #282D31",
"X  c #263A6F",
"o  c #722F6A",
"O  c #144378",
"+  c #3A5272",
"@  c #484668",
"#  c #6C7978",
"$  c #72807F",
"%  c #1B5588",
"&  c #3E5D89",
"*  c #2D7983",
"=  c #435E83",
"-  c #56678C",
";  c #51779B",
":  c #507EA6",
">  c #91308B",
",  c #A5469E",
"<  c #9C659A",
"1  c #A1649F",
"2  c #B26AAF",
"3  c #CA6FC7",
"4  c #D97CD5",
"5  c #C979C7",
"6  c #258A94",
"7  c #3F8C99",
"8  c #2191A6",
"9  c #00A3B9",
"0  c #14A6BA",
"q  c #2AA7BC",
"w  c #38A7BA",
"e  c #2FA7AC",
"r  c #458695",
"t  c #779595",
"y  c #6C8D95",
"u  c #4C9BA6",
"i  c #4E94AE",
"p  c #689CBE",
"a  c #7498B2",
"s  c #5BA3AD",
"d  c #48A4B8",
"f  c #59ACB8",
"g  c #55B3B0",
"h  c #63A2AD",
"j  c #62A7B9",
"k  c #75AAB7",
"l  c #66B1BA",
"z  c #3EC3BF",
"x  c #79C5BE",
"c  c #19B9CE",
"v  c #35ADC1",
"b  c #34AEC8",
"n  c #2DB7C9",
"m  c #3EB9C8",
"M  c #34BBD1",
"N  c #48ABC5",
"B  c #44B3C5",
"V  c #46B8D0",
"C  c #7CA5C1",
"Z  c #7FACCA",
"A  c #63BDCB",
"S  c #6BBBC5",
"D  c #79BAC7",
"F  c #71AFCD",
"G  c #1BC0D6",
"H  c #3BC7D7",
"J  c #3BCECB",
"K  c #3DD5E5",
"L  c #44C7D8",
"P  c #5CC8D7",
"I  c #55D8DA",
"U  c #43DDD9",
"Y  c #69C6D7",
"T  c #77CCD5",
"R  c #67DAD9",
"E  c #75CED1",
"W  c #68E1DD",
"Q  c #79E1DF",
"!  c #49D6E4",
"~  c #59D8E7",
"^  c #4ACEE2",
"/  c #64C9E2",
"(  c #69D9E8",
")  c #74DBEB",
"_  c #43E2EA",
"`  c #59E6EB",
"'  c #62E3EC",
"]  c #63ECEC",
"[  c #6CEAE7",
"{  c #6BF3EE",
"}  c #76F2EF",
"|  c #68EBF5",
" . c #6DFEFD",
".. c #69F5F8",
"X. c #72F6F4",
"o. c #72F9F5",
"O. c #74FEFD",
"+. c #7CFFFF",
"@. c #7AF6F5",
"#. c #74E7EC",
"$. c #889392",
"%. c #979B9C",
"&. c #8DA29F",
"*. c #93B8BC",
"=. c #8AADAD",
"-. c #B6B9B9",
";. c #A7AAAF",
":. c #90C1BC",
">. c #BCC0BC",
",. c #86BBC3",
"<. c #99B9C7",
"1. c #8CBADA",
"2. c #86B7D4",
"3. c #97BCD5",
"4. c #A1BEC0",
"5. c #85BCE0",
"6. c #DE86DC",
"7. c #D298D6",
"8. c #E282DE",
"9. c #D8A4DE",
"0. c #DE96E1",
"q. c #E789E4",
"w. c #F791F3",
"e. c #E6B6ED",
"r. c #EBB7F2",
"t. c #E7A9EB",
"y. c #89C0C6",
"u. c #99C9C9",
"i. c #88C9D6",
"p. c #99CAD5",
"a. c #89D5D7",
"s. c #9CD5DB",
"d. c #98D6D9",
"f. c #8BD3CC",
"g. c #A3CDCB",
"h. c #A8CAD5",
"j. c #B3C9D8",
"k. c #A1D5DB",
"l. c #A6DADE",
"z. c #ACDBDB",
"x. c #A9D5D7",
"c. c #B7D7D8",
"v. c #BEC0C0",
"b. c #92E1DE",
"n. c #A9E1DE",
"m. c #8EDDE6",
"M. c #85D7E4",
"N. c #94DCE7",
"B. c #8FCEE1",
"V. c #ACDCE3",
"C. c #A1D9E3",
"Z. c #B4DEE1",
"A. c #B8D9E5",
"S. c #A3C9E0",
"D. c #8BE3EA",
"F. c #8BE5E6",
"G. c #96E4E7",
"H. c #82FFFF",
"J. c #87F7FA",
"K. c #99F9FA",
"L. c #94EDEF",
"P. c #ADE3E4",
"I. c #ADE6EB",
"U. c #A3E6E9",
"Y. c #B4E3E5",
"T. c #BBE4E5",
"R. c #B9E6E9",
"E. c #B3EBED",
"W. c #BCEBED",
"Q. c #B7E6E9",
"!. c #A7EBF2",
"~. c #BCECF3",
"^. c #B3ECF3",
"/. c #AEF3F4",
"(. c #ABFFFE",
"). c #A6F7F9",
"_. c #B2F4F6",
"`. c #BEF3F4",
"'. c #B4FDFC",
"]. c #BBFEFD",
"[. c #B8F7F9",
"{. c #B2F4EB",
"}. c #C4C4C4",
"|. c #CACCCC",
" X c #C8C7C6",
".X c #CDD7D6",
"XX c #D4D5D4",
"oX c #DBDCDC",
"OX c #D6D6D7",
"+X c #CCCFCC",
"@X c #E2D9DD",
"#X c #DBE1DF",
"$X c #CBE1DC",
"%X c #D7CBEC",
"&X c #C8D8E6",
"*X c #D4DEEF",
"=X c #ECD1F2",
"-X c #C2E4E6",
";X c #C3EBED",
":X c #CBECEE",
">X c #C7E5E5",
",X c #D3EBED",
"<X c #DAE6E6",
"1X c #C8F0EF",
"2X c #CAEDF4",
"3X c #D7ECF7",
"4X c #C3F2F3",
"5X c #CAF4F4",
"6X c #C3FEFD",
"7X c #CBFCFD",
"8X c #C6F7F7",
"9X c #D2F3F3",
"0X c #DCF3F4",
"qX c #D4FEFE",
"wX c #DCFDFD",
"eX c #D6F7F8",
"rX c #D5F0EF",
"tX c #E3E4E5",
"yX c #EAEDED",
"uX c #E7E5E8",
"iX c #F1EEED",
"pX c #E7EEF6",
"aX c #F4EDFA",
"sX c #F8EAF7",
"dX c #E4F4F6",
"fX c #EDF2F2",
"gX c #E5F5FA",
"hX c #EDF5FA",
"jX c #E3FDFD",
"kX c #EBFDFD",
"lX c #F3F3F5",
"zX c #F4F3FA",
"xX c #F3FDFD",
"cX c #FEFEFF",
"vX c #FBF4FC",
/* pixels */
"                                                                                                                                                      ",
"                                                                                                                                                      ",
"                                                                                                                                                      ",
"                                                                                                                                                      ",
"                                                                                                                                                      ",
"                                                                          c.                                                                          ",
"                                                                        t xXXX                                                                        ",
"                                                                        I.kXlX                                                                        ",
"                                                                        8X8XcX}.                                                                      ",
"                                                                      z.6XdXeXyX                                                                      ",
"                                                                    t `./.xX,XwX+X                                                                    ",
"                                                                    t N.G.hXY.7XOX                                                                    ",
"                                                                  1   - i.C._.;X                                                                      ",
"                                                                  4 1   ; !.5X    ,.                                                                  ",
"                                                                  2 w.    s.    2.a                                                                   ",
"                                                                    %Xr.  d.  1.3X#                                                                   ",
"                                                            |.      f.jXt.A.i.gX@X      v.                                                            ",
"                                                            tX|.      4X3X2X,XcX%.    %.oX                                                            ",
"                                                              cX%.    Z.7X].cX@X    . xX|.                                                            ",
"                                                              fXvX      ~.].cX;.    oXcX                                                              ",
"                                             X                  cX#X    E.7XuX     XcXn.                v.                                            ",
"                  ;.<XoX          y         OX|.                5XkXs     6X.X    R.(.                  oX        2           g.u.,.                  ",
"                  - A.kXkXjXdXjX    Z         lX                R.qXY     (.    B  .{                 zX        8.    8XU.).'.].(.x.                  ",
"                    % p.jXhXE.K.4X  2.3.      uXlX                7XU.b   '.  9 ' +.R               pXfX      7.q.  W.'.i.eX0X) V.                    ",
"                      : V.kXxXM.I.  F eXXX      cXP.              R.7X/ n '.x.G X.o.              -XcX|.      hX8.  W.a.0XcXC.!.                      ",
"                      = p D.G.a.].    A.zX      iXwXJ             u.qXU.K ].Q.! +.[               kXlX      `.aX    ].T N.i.N.OX                      ",
"                        & B./.W.E.N.  S.vXuX      /.O.g       }.    8X8X( '.R...H.    -.XX      7XqX<.    4XwXe.<.P.D i N N j.                        ",
"                          t         j.^.0XcXOX    n X.O.      $.=.  z.wX{.jX5X .}   t &.      4X8XY       qX4X2Xl.        @                           ",
"                            , 3 0.e.=X3X'.5XcX    N ~ o.X.    u.4X    jXkXxXkX7XG.  P.u.    W.qXD.v     _.'.wX3XA.S.1.5.                              ",
"                          5 4 4 %X4X8X8XqX].].qX    c ' +.R     /.E <XxXjXkXjXxX0X  L.    Q.wX^.V     L.jXcXcXvXaXpX&XZ C a                           ",
"                                              [ ].$Xp.L ] O.I   k Y g.jXqXzXwXjXT.u s   Y.qX4X/ H Q 7XrX@X                                            ",
"                                                  J.7X5XN.K.7XxX{.+ h 5XqXaXeX7XD * x.jXwXeXF.` '.wX X                                                ",
"                                          ,.q v v M _ K.jXhXkXjXjXy.k d.dXzXhXP.y.D wXjXjXkXeXqX:XY 9 B d f                                           ",
"                              XXuXfXcXcXcXjX6X[.!.U.N.D.0XxXkXwXqX`.p.s.,XvXdXs.x.P.wXwXkXkXxXE.~ ` | X. .K.xXcXcXlXuXXX-.                            ",
"                                      .XQ.~.5X8XqXwXwXqXjXjXjXfXdXdXT.k.:XkX9XV.z.gXgXzXhXjXjXH.+.H.+.O.o.{ ` l.                                      ",
"                                                    T.R.0XxXjXeXaXsXhXE.T.xX;XT.dXaXaXgXwXkXwXW R R                                                   ",
"                                                        +X0X9X4X:XdXkXjX9X,X,XdXkXhXrX5XeXwX|.                                                        ",
"                                                XX$.y.U.E u s S p.l.-X0X,XA T.0X;XZ.k.p.f u g G.P.t -.                                                ",
"                                                  $ *.b.Y u h D p.l.T.9X,XY -X9XW.I.l.a.l u f G.l.y                                                   ",
"                                                          0XqX5X3XfXjXjX,XrXrXdXjXhX3X8XeXjX#X                                                        ",
"                                                  R R ] 8XxXjXwXlXaXgXR.R.kX;XT.dXaXaXhXjXkXjXW.Q.z.                                                  ",
"                                    |.z.[ { o.O.+.H.H.O.qXkXjXzXdXgXV.k.R.kX2XC.V.dXhXzXkXjXjXqXqXwXqX7X5X;XW.>X                                      ",
"                              +XuXfXcXcXcX].O...| ' ! F.dXxXkXjXwXW.p.d.,XsXdXs.s.E.jXjXkXxXkXD.M.N.D.!.'.qXcXcXcXfXuX|.                              ",
"                                            d d 9 B P.eXqXkXkXkXkXa.l s.wXaXhXE.S i.jXkXkXgXkX8X| c q v 0                                             ",
"                                                  5X].@.#.7XgXkXY.6 l eXwXzXgXjXE 6 V.hX7XK.D.:XwX(.z                                                 ",
"                                            @XrX6XL.L ^ I.wXc.  h w T.xXgXxXjXkX:Xf f   R +.X.K i.fXqXF.F.                                            ",
"                          a Z Z &XyXaXvXcXcXkX(.    v m.qX;X    F.  <XxXkXxXjXxXyX  K.    [ +.} n     0XqX].qX7X8X4X*Xq.4 2                           ",
"                            @ p 1.A.&XpXeX'.(.      ) 8X4X    y.d.    '.jXxXxXjXT.  s.u.    } O.' d     vXeX].2X=Xe.0.3 >                             ",
"                          *.        u.E.`.7X-X    v [.qX      $.t   }  .!.wX!.8X4X  $ %.      o.+.m     |.cXpX~.j.        XX                          ",
"                        c.6X/.I.E.P.E 9.jX4X      ;XwXZ.      |.    O...N.6X! Q.wX    -.oX       .(.      uXcXj.:.a.I.5X5XjX;X                        ",
"                      *.].U.I.m.jX$X  r.7X      oXcXY.            W +.` M.6X_ ) qX;X            U 6XlX      zX3X    J.T z.k.6XT.                      ",
"                      `.8XxXxXm.lX    sXk.      cXrX              X.+.L ,.6XI V _.8X              G.cX        cXF   P V dXcX5X`.                      ",
"                    T.7XwXgXU.^.lX  8.7.      XXxX                O.| 0   6X  8 M.qXx.              fXfX      3.1.  / ! A R.2X^.4X                    ",
"                  =.^.2.Z j : <.>.  8.o       fX                ] +.P     [.e   B 6X4X                fX        2.    ( ~ I ~ ) (.l.                  ",
"                  y % O             2        X|.                K.wXr     qXE     -XkX                 XoX                    d w l                   ",
"                                             X                g.cXyX    sXwX!.    -.cX<X                -.                                            ",
"                                                              yXlX      vX7X7Xc.    oXcX                                                              ",
"                                                              zX      uXcX7X6X;X      yX|.                                                            ",
"                                                            #X-.      vXpX4X*XqX        tX                                                            ",
"                                                             X      uXcX3.d.9.aX{.       X                                                            ",
"                                                                    A.p.  f.  w.sX                                                                    ",
"                                                                  a 5.    G.    q.4                                                                   ",
"                                                                  C     P #.`.    4                                                                   ",
"                                                                      Y ~ p.U.4X                                                                      ",
"                                                                    f | T xXA./.<.                                                                    ",
"                                                                      P M.xX2Xv                                                                       ",
"                                                                      A ~ 3XG.:                                                                       ",
"                                                                        ~ D.Z X                                                                       ",
"                                                                        A ) ;                                                                         ",
"                                                                        * / +                                                                         ",
"                                                                          i                                                                           ",
"                                                                                                                                                      ",
"                                                                                                                                                      ",
"                                                                                                                                                      ",
"                                                                                                                                                      "
};
