/* XPM */
static char *_7e17723fd6b4674844c60f9d34ce73di0CWTcszgXCUF0Kl[] = {
/* columns rows colors chars-per-pixel */
"75 75 219 2 ",
"   c None",
".  c #131719",
"X  c #1C263F",
"o  c #27263A",
"O  c #40173C",
"+  c #111E40",
"@  c #092648",
"#  c #083352",
"$  c #25364B",
"%  c #313652",
"&  c #541851",
"*  c #5D395B",
"=  c #61265C",
"-  c #673B65",
";  c #773F76",
":  c #16454B",
">  c #0E4F57",
",  c #145055",
"<  c #3D4B4B",
"1  c #274858",
"2  c #374A5A",
"3  c #29595F",
"4  c #215158",
"5  c #3E5B5B",
"6  c #085966",
"7  c #195F6A",
"8  c #274B63",
"9  c #2A5D65",
"0  c #295D6B",
"q  c #335D65",
"w  c #3A5D6C",
"e  c #255F71",
"r  c #365D73",
"t  c #03616E",
"y  c #0E6662",
"u  c #17636F",
"i  c #0A6D7A",
"p  c #1B6573",
"a  c #166976",
"s  c #0A717F",
"d  c #1B7579",
"f  c #29646B",
"g  c #336065",
"h  c #34656C",
"j  c #39686D",
"k  c #226974",
"l  c #276875",
"z  c #3C6E73",
"x  c #366D77",
"c  c #24747A",
"v  c #34747D",
"b  c #3B727B",
"n  c #377E7C",
"m  c #397578",
"M  c #404646",
"N  c #435554",
"B  c #495758",
"V  c #525656",
"C  c #575D5C",
"Z  c #435B6B",
"A  c #415665",
"S  c #465F72",
"D  c #6D416A",
"F  c #7D467B",
"G  c #714371",
"H  c #755779",
"J  c #46666A",
"K  c #566C6D",
"L  c #586564",
"P  c #55716F",
"I  c #476172",
"U  c #456D74",
"Y  c #4E6E73",
"T  c #4A697C",
"R  c #476679",
"E  c #576B78",
"W  c #4C757C",
"Q  c #417A7C",
"!  c #4B797B",
"~  c #477377",
"^  c #527374",
"/  c #5B7273",
"(  c #547C7D",
")  c #5B7A7C",
"_  c #56767B",
"`  c #6A6D6C",
"'  c #656366",
"]  c #6E726E",
"[  c #637C7D",
"{  c #697A7B",
"}  c #747474",
"|  c #777679",
" . c #767979",
".. c #7B7C7C",
"X. c #817C7C",
"o. c #58827C",
"O. c #80807C",
"+. c #1F7F89",
"@. c #217B86",
"#. c #2B7B84",
"$. c #257B87",
"%. c #397585",
"&. c #347B85",
"*. c #397D87",
"=. c #4E6E83",
"-. c #536E81",
";. c #4C7C83",
":. c #4A7985",
">. c #5A7583",
",. c #537B82",
"<. c #5C7E81",
"1. c #657D82",
"2. c #6B7D89",
"3. c #687481",
"4. c #787C88",
"5. c #854A82",
"6. c #8A4B86",
"7. c #845385",
"8. c #805A82",
"9. c #8D548A",
"0. c #985398",
"q. c #896D8E",
"w. c #856488",
"e. c #81798D",
"r. c #8A7691",
"t. c #8D6891",
"y. c #248284",
"u. c #2B848A",
"i. c #23868B",
"p. c #3A8482",
"a. c #33848C",
"s. c #3B858B",
"d. c #368B8B",
"f. c #3C8C8B",
"g. c #318382",
"h. c #3C908E",
"j. c #3C8C91",
"k. c #378994",
"l. c #3E9293",
"z. c #3D9898",
"x. c #3A9595",
"c. c #42848B",
"v. c #4E868C",
"b. c #498889",
"n. c #548585",
"m. c #5B8184",
"M. c #53848A",
"N. c #5D858B",
"B. c #548A8A",
"V. c #5B8B8D",
"C. c #43908E",
"Z. c #4F918E",
"A. c #5B8F91",
"S. c #429593",
"D. c #449898",
"F. c #499898",
"G. c #459598",
"H. c #5B9595",
"J. c #549695",
"K. c #648384",
"L. c #6B8485",
"P. c #658589",
"I. c #6C8689",
"U. c #648B8D",
"Y. c #6C8A8C",
"T. c #628886",
"R. c #748585",
"E. c #7C8483",
"W. c #768389",
"Q. c #738C8D",
"!. c #7B8C8D",
"~. c #74908F",
"^. c #648D91",
"/. c #6B8D91",
"(. c #748E91",
"). c #7C8D92",
"_. c #788895",
"`. c #669393",
"'. c #6B9494",
"]. c #6B9896",
"[. c #6C9598",
"{. c #629898",
"}. c #6D9898",
"|. c #649798",
" X c #749393",
".X c #7C9494",
"XX c #749896",
"oX c #729798",
"OX c #749898",
"+X c #7C9898",
"@X c #7F9798",
"#X c #68918C",
"$X c #828383",
"%X c #838B8B",
"&X c #8B8C8D",
"*X c #8A8488",
"=X c #938B8F",
"-X c #87908F",
";X c #828D92",
":X c #8C8E93",
">X c #838494",
",X c #928D94",
"<X c #928D98",
"1X c #978598",
"2X c #849595",
"3X c #8B9495",
"4X c #859897",
"5X c #8B9897",
"6X c #869598",
"7X c #8D9398",
"8X c #849898",
"9X c #8C9898",
"0X c #929495",
"qX c #929897",
"wX c #969598",
"eX c #989698",
"rX c #939898",
"tX c #989898",
"yX c #989897",
/* pixels */
"                                                                                                                                                      ",
"                                                                                                                                                      ",
"                                                                                                                                                      ",
"                                                                                                                                                      ",
"                                                                                                                                                      ",
"                                                                                                                                                      ",
"                                                                                                                                                      ",
"                                                                                                                                                      ",
"                                                                                                                                                      ",
"                                        2 K                                                             % '                                           ",
"                                        @ ^.I.                                                        # I.$X                                          ",
"                                        @ Y OX(.`                                                 $ 1 >.9X$X                                          ",
"                                          T 2X X}.K.                                            $ r P.6X9X                                            ",
"                                          w 2X0XV.OXK   A                                 G   B ,.v.7X7X2X                                            ",
"                                          8 N.3XP.`.  $ S                                 F =   `.N.0XY.2X                                            ",
"                                          E /.n.M.P.  w R        .                ..      5.;   Y.;.;.H.4X                                            ",
"                                          ] 0X&X4XU.  -.4.      &X                *X      e.7.  ^.}.P.~.                                              ",
"                                                E.K.  2.:X      &X                3X      (.q.  n.        2                                           ",
"                                        - 5.6.    U _ 4.0X      yX}               tX       Xr.3.    h =.R                                             ",
"                                          O 8.1Xt.4./.;X0X      yXK.            R.tX       X).Y.>._.6XE                                               ",
"                                              o.+X4X'.8XeX      yXf.            I.tX      +X}.;XrX0XX.                                                ",
"                                                  Q.+X'.tX      OXh.            Q.4XY     oX.XyX*X                                                    ",
"                                      }  .          Q.|.4X*X  e D.h.             XoXp     }.yX4.          $X}                                         ",
"                                         .=X..          {.%X  k l.D.             X`.p   f.8X          &X0X}                                           ",
"                                            0XtX$X        OX  6 j.D.      o.    +X^.p   }.        &XyX0X                                              ",
"                                              %XtXQ.p     Z..Xk s.F.p.  M V     8XN.a J.R.  l u `.8XT.                                                ",
"                                                P.8X'.*.p c }.P.y.F.p.  K P   !.8XM.i.OX) i #.l.D.c                                                   ",
"                                                  L.+X.XM.#.S..Xv.D.f.  n.U.  W.8XM.H.Q.@.s.D.D.f                                                     ",
"                                                      (.+XU.c.+X3X.X X  z Q ..2X4X8X3Xn.h.F.S.                                                        ",
"                                                        Q.8X.X3XrX9XrX2X3 9 2X3X3XrX3XH.D.p.                                                          ",
"                              } $X                        L.2X3X9X5X2X.Xg 9  X2X2X3X3XXXg.                        *X..                                ",
"                                ` 0X&X[            .V ^     3X5X2X0X7X X~ U Q.8X3X8X9X9X    / B  .            3XyX .                                  ",
"                                    0XtXH.d.        5 n.b.q L.6X2X3X:X).) ) Q.<X:X.X4XL.J `. XL         I. XtXyXV                                     ",
"                        I Z           &X4XD.D.l.p.        e , ( Y.2X,X:XK.1.:X,X7X/.^ : x !       / I.+X+X9X$X          - X.*                         ",
"                    h     =.W.*X        4 v j.D.F.D.S.  $XR.h j ( P.7X3XY.R.4X3XR.) J q ) E.  I. X8XOXV.b q         ( e.0.*   B N                     ",
"                x #.j.%.    -.tX,X&X        6 +.u.x.z.}.qXqX.X<.<.) I.2X X2X4XY.<.<.<.(.5XqX4X+X XN.*.p         L. X4Xq.    % <.#XL.                  ",
"          4 m &.a.;.Q a.v     _ ;XtX0X=X      ^ ,.M.^.5X9X2X6X2X!.Q.R.!.!.!.).R.Q.!.:X+X2X4X9X~.a.@.d       Y.'.+X;Xw.    2 :.v.U.oX XI.B             ",
"        1 %.c.B.).rXrX) c.n.( m.(..X.X8X@X'.OXoXOXXX2XrX9X0X0X,X<X5X5X!.U x !.9X3X0X:X,X3X9X3X2X}.}.'.|.`.OXOX}.'._.P.o.<.^.<.7XyX3X X6X9X{           ",
"          + 1 =.N..XI.m. X    8.>XOXOXU.! y   #.u.i.U.9X9X4X3X3X:X XQ.!.Q.L.!.Q.!.:X7X8X8X2X5X XY.Y.1.    ..&XtXwX)._      X/.I.!. XyX3XO.            ",
"              + 1 e ^.(.    9.0X+XQ.[       6 c :.U. X5XqX7X8XU.<.1.L.2X;X2X3XI.K.<.T..X4X0X+Xz.j.y.@.6       ' $XwX7X-.    Q.OX8X&X}                 ",
"                    K     6.1XU.          k v./.@X8X~.R.2X!.~ z m.1.2X3XY.Q.3X3X1.1.^ U I.-XB.C.F.F.S.d.l         C *X;XT     E.X.                    ",
"                        F 5.          ] R.oX+X XQ.        h > ! U.3X,X7XP.P.3X,X3XP.U : 9         f.D.D.D.I.}         M Z I                           ",
"                                    $XtX7X X[       < ) H.h T.9X3X3X:X;XK.<.%X,X2X@X.X[ q A.m.N       n h.{.yX$X.                                     ",
"                                  &XtX%X          ` C _     3X7X2X0X7X X( ,. X3X,X8X9X3X    ) C `           K.yXwXC                                   ",
"                               .$X..              $X      n  X2X3X3X9X8Xh j .X8X3X3X5X8XK.      ..               .$X}                                 ",
"                                                        C.D.H.7XqX9X9X4X3 3 8X9X5X3X5X.X+XY.                                                          ",
"                                                      h.F.C.M.3X5X4X2XE.h h  .8X4X0X8XM. X8XY.                                                        ",
"                                                    S.D.C.@.!.XXv.+XQ.  n.B.  p.F.U..Xd.*.U.+X(.                                                      ",
"                                                y.z.D.d.d W 4Xj.v.@XY.  K.K.  p.F.u.!.|.d #.M.XX+X                                                    ",
"                                              V.XX|.k 0   -X|.i n.8XK.  < N   p.F.j.b 8Xc.  u b +X9XW.                                                ",
"                                            3XeX0X        +Xd u M.+X      `     D.j.6 }  X      / 0XtX&X                                              ",
"                                        } 3X&X          -Xb.  p ^..X            D.l.k   !.V.         .&X3X                                            ",
"                                      } $X          | eX+Xn.  t |. X            C.z.f   $X6X`.            $X}                                         ",
"                                                  *XtX2X}.      +X(.            h.J.h     tX}..XQ.                                                    ",
"                                                0XeX:X'.+X      eXI.            d.9X      eX8X(.8X'.                                                  ",
"                                            E 6X).1.(._..X      tX!.            K.tX      <X).(.q.,X:XH                                               ",
"                                          R -.R   ^ 3.r. X      tX                tX      :X2.1.E   5.9.5.                                            ",
"                                                  ,.  r. X      &X                0X      :X1.  T.        -                                           ",
"                                            :.&.F.P.  7.4.      &X                &X      W.-.  U }.R.Q.                                              ",
"                                          *.y.k ;.Q.  ; 7.      }                 ..      R -.  0 b ;.}. X                                            ",
"                                          &.x 2XK.).  & F                         `       S     e <.7XW U.                                            ",
"                                          #.I.tX<.4XO.  D                                 Z   o l ,.wX.XA.                                            ",
"                                          a.!.!.OXQ.                                            { M.m.2X'.                                            ",
"                                        0 s.`.oXL.                                                4.U.c.oX[                                           ",
"                                        f {./.                                                        P.{./                                           ",
"                                        z <.                                                            1.Y                                           ",
"                                                                                                                                                      ",
"                                                                                                                                                      ",
"                                                                                                                                                      ",
"                                                                                                                                                      ",
"                                                                                                                                                      ",
"                                                                                                                                                      ",
"                                                                                                                                                      ",
"                                                                                                                                                      ",
"                                                                                                                                                      "
};
