/* XPM */
static char *cf3b781e59834d4fe81ef0b133a13cd8ytR4n4R7VFq6UKMA[] = {
/* columns rows colors chars-per-pixel */
"75 75 178 2 ",
"   c None",
".  c #7299B3",
"X  c #7D9FB8",
"o  c #77A7BB",
"O  c #00C3C9",
"+  c #6FC3CA",
"@  c #75C4CA",
"#  c #73C8CF",
"$  c #7ACCD2",
"%  c #888C8E",
"&  c #919BAF",
"*  c #9C9CAB",
"=  c #8594B0",
"-  c #B08CAD",
";  c #BD8DBB",
":  c #96A7B1",
">  c #96A7BA",
",  c #98A8B8",
"<  c #8AB3B6",
"1  c #8BB5B8",
"2  c #80BABE",
"3  c #89BBBD",
"4  c #97B9BB",
"5  c #A3ABBB",
"6  c #ACB4B4",
"7  c #A2B2BF",
"8  c #B0B4B4",
"9  c #B2BCBC",
"0  c #BABEBE",
"q  c #C1ABBF",
"w  c #82BCC3",
"e  c #99B3C1",
"r  c #97BAC0",
"t  c #9AB9C3",
"y  c #A3B4C2",
"u  c #ACBAC1",
"i  c #B1BEC5",
"p  c #B2BFC8",
"a  c #C39BC1",
"s  c #C5ABC4",
"d  c #CCAFCC",
"f  c #CCB1CB",
"g  c #CDBED0",
"h  c #D4B5D3",
"j  c #D4BCD5",
"k  c #D8BDD7",
"l  c #DBBCDB",
"z  c #80C6C4",
"x  c #87C3CB",
"c  c #8CC5CB",
"v  c #95C2C6",
"b  c #9EC0C4",
"n  c #93C6CD",
"m  c #9BC4CB",
"M  c #96CBCD",
"N  c #9FCACE",
"B  c #94D0CF",
"V  c #80CBD1",
"C  c #8CCBD0",
"Z  c #93CDD2",
"A  c #9ACDD3",
"S  c #96D2D7",
"D  c #9CD3D6",
"F  c #9AD6D8",
"G  c #A4C2C6",
"H  c #ACC2C4",
"J  c #A2C8C7",
"K  c #A4C5CA",
"L  c #AAC4CB",
"P  c #ABCBCD",
"I  c #B4C2C2",
"U  c #BCC3C2",
"Y  c #B4C5CC",
"T  c #B9C7C8",
"R  c #B4CBCD",
"E  c #BCCBCC",
"W  c #B1D1CF",
"Q  c #BED2CF",
"!  c #A5CFD3",
"~  c #ABCDD2",
"^  c #B1C7D0",
"/  c #B4CCD1",
"(  c #BCCCD2",
")  c #A4D3D5",
"_  c #ACD3D5",
"`  c #AAD8D7",
"'  c #A4D4D8",
"]  c #AAD6D9",
"[  c #ADDADA",
"{  c #B4D3D4",
"}  c #BCD3D5",
"|  c #BCD9D7",
" . c #B3D4D8",
".. c #BBD6D8",
"X. c #B3DCDC",
"o. c #BCDBDB",
"O. c #C2C3C4",
"+. c #C1C7CD",
"@. c #C3CCCD",
"#. c #CDCDCD",
"$. c #C4D0CE",
"%. c #D2D0CF",
"&. c #C3CDD3",
"*. c #CCCED1",
"=. c #D4C3D5",
"-. c #D6C8D7",
";. c #D8C7DA",
":. c #D5CCD9",
">. c #D8CDDA",
",. c #C4D3D4",
"<. c #CBD5D6",
"1. c #C7DAD7",
"2. c #CBD9D7",
"3. c #C4D7D9",
"4. c #CBD7D9",
"5. c #C5DADB",
"6. c #C9DBDC",
"7. c #C8DCDC",
"8. c #CADDDD",
"9. c #CBDDDD",
"0. c #CBDCDD",
"q. c #CDDDDD",
"w. c #CEDDDD",
"e. c #CFDDDD",
"r. c #CCDADB",
"t. c #D0D1D1",
"y. c #D3D1D1",
"u. c #D2D1D2",
"i. c #D0D2D2",
"p. c LightGray",
"a. c gray83",
"s. c #D7D7D7",
"d. c #D3D4D4",
"f. c #D8D4D6",
"g. c #D4D6D9",
"h. c #D8D5D8",
"j. c #DDD6DD",
"k. c #DBD6DC",
"l. c #D2D8D8",
"z. c #D1D9DB",
"x. c #D1DBDB",
"c. c #D3DADA",
"v. c #D4D8D8",
"b. c #D6D8D8",
"n. c #D4D9DA",
"m. c #D4DBDB",
"M. c #D5DADA",
"N. c #D7DCDB",
"B. c #D5DBDD",
"V. c #D1DCDC",
"C. c #D1DDDD",
"Z. c #D3DDDD",
"A. c #D2DCDC",
"S. c #D5DCDC",
"D. c #D4DDDD",
"F. c #D6DCDC",
"G. c #D6DDDD",
"H. c #D7DDDD",
"J. c #D4DBDC",
"K. c #D8D9D9",
"L. c #D9D8D8",
"P. c #DAD9D9",
"I. c #D9D9DA",
"U. c #DAD9DB",
"Y. c #D8DBDB",
"T. c #D9DADA",
"R. c #DADBDB",
"E. c #DBDADB",
"W. c #DCDADC",
"Q. c #D8DDDD",
"!. c #D8DCDC",
"~. c #DADCDC",
"^. c #DADDDC",
"/. c #DADDDD",
"(. c #DBDDDD",
"). c #DDDDDD",
"_. c #DCDCDD",
"`. c #DADBDC",
/* pixels */
"                                                                                                                                                      ",
"                                                                                                                                                      ",
"                                                                                                                                                      ",
"                                                                                                                                                      ",
"                                                                                                                                                      ",
"                                                                                                                                                      ",
"                                                                                                                                                      ",
"                                                                                                                                                      ",
"                                                                                                                                                      ",
"                                        u T                                                             5 O.                                          ",
"                                        X 3.2.                                                        o 4.s.                                          ",
"                                        . ( w.r.@.                                                , t &.S.p.                                          ",
"                                          / b.r.e.,.                                            > p 3.V.Q.                                            ",
"                                          L S.Q.3.w.E   i                                 f   I } } `.F.S.                                            ",
"                                          t 3.N.,.6.  : Y                                 h a   6...Q.4.F.                                            ",
"                                          +.4.....3.  p ^       t.                t.      h f   4.( { 5.S.                                            ",
"                                          #.P.b.G.1.  ( <.      s.                b.      :.j   6.9.,.r.                                              ",
"                                                d.,.  <.k.      P.                P.      r.;.  }         u                                           ",
"                                        s j j     R &.<.P.      _.<.              _.      e.>.&.    L / R                                             ",
"                                          - j j.:.=.6.l.`.      _.$.            d._.      e.V.4.&.4.F.(                                               ",
"                                              ,.C.S.6.S._.      _.`             <._.      C.7.b._.`.t.                                                ",
"                                                  r.C.9._.      w.[             r.C.E     w.C._.k.                                                    ",
"                                      #.#.          r.5.S.f.  m X.X.            r.w.c     w._.t.          %.#.                                        ",
"                                        t.P.t.          5.b.  m [ X.            r.6.c   ] C.          b.`.:.                                          ",
"                                            _._.s.        w.  O [ X.      <.    C.3.c   9.        P.).N.                                              ",
"                                              l._.<.n     o.l.M ` X._   8 U     V.3.Z o.<.  N c 7.C.<.                                                ",
"                                                <.C.r._ n A 9.,.D o._   E E   <.S...F w.&.# ) [ X.B                                                   ",
"                                                  <.C.V.} D X.V...X.`   } 3.  4.S.X.5.l.S _ X.X.J                                                     ",
"                                                      r.C.3. .V.N.C.w.  P / <.c.N.S.N.} ` X.X.                                                        ",
"                                                        r.S.e.Q.N.Q.Q.S.G b N.N.Q.Q.P.o.X._                                                           ",
"                              #.s.                        <.b.Q.Q.N.S.S.H G V.N.S.Q.Q.w.)                         s.t.                                ",
"                                @.E.L.$.          <.0 E     S.Q.Q.E.b.r.R P r.V.N.S.Q./.    E 0 #.            P._.*.                                  ",
"                                    P._.5.`         9 }  .H <.N.S.P.`.g.( ,.<.W.`.C.S.<.R 3.w.T         <.l._.N.0                                     ",
"                        Y p           P.C.X.X.[ `         v 3 } r.S.`.b.,.,.I.`.b.<.E 1 P {       @.<.C.C.Q.s.          f h s                         ",
"                    L     ( <.f.        r ) [ X.X.X.X.  s.<.L L ( ,.P.S.r.<.F.F.<.} Y H $.d.  ,.e.V.w.3.~ G         Q :.l s   9 9                     ",
"                ~ ! [ ~     ( Q.W.g.        @ A ' X.[ 9.Q.Q.e.,.} ,.4.S.l.l.F.4.&.,.} r.S.Q.S.C.e.3._ c         <.r.S.;.    5 ,.r.,.                  ",
"          4 ~ _ ' { / ] ~     @.b._.W.P.      E ..} 6.N.Q.N.Q.F.d.r.4.l.r.d.r.<.<.V.F.V.C.S.N.r.) S C       6.6.V.V.=.    y / } r.9.e.4.H             ",
"        t ~  . .l.Q.Q.( X.} } } r.C.w.S.w.r.w.7.e.7.N.N.Q.Q.P.`.`.S.S.l.^ ~ l.Q.`.`.k.`.P.N.Q.S.9.6.5.9.5.w.C.w.e.V.,.} ,.3.3.Q.Q.b.r.S._.<.          ",
"          & 7 ^ 3.r.4.,.r.    j g.w.C.6.W z   ! ' F 1.N.Q.S.S.b.I.e.r.l.r.<.l.r.l.b.`.S.S.S.Q.V.4.4.,.    t.b.).W.r.(     e.r.,.r.l.Q.P.%.            ",
"              = e m 6.r.    j `.C.<.,.      w Z { 3.e.S.Q.Q.S.6.&.,.,.F.l.b.N.<.,.,.3.C.S.Q.C.[ ] S $ O       O.f.W.F.(     <.w.F.s.%.                ",
"                    E     h j.r.          n } r.V.S.l.<.b.r.R R } ,.F.`.r.<.Q.b.,.,.E R 4.l.} X.o.X.X.] N         O.p.z.(     p.%.                    ",
"                        h h           #.<.w.e.e.r.        K 2 { 4.b.k.F.4.,.P.P.S.4.R < G         ` X.X.X.<.%.        8 p Y                           ",
"                                    d._.Q.r.,.      6 ,.5.K ,.Q.F.`.`.z.,.,.b.`.F.V.C.,.G o.,.9       ` ` 5._.a.%                                     ",
"                                  P._.s.          @.U Q     Q.Q.S.k.F.e.( } r.S.k.F.F.F.    @.U @.          ,.Q.Q.O.                                  ",
"                              #.s.t.              p.      _ e.Q.`.Q.S.C.P L l.S.`.S.S.S.,.      p.              *.s.#.                                ",
"                                                        ` X.5.S.Q.S.Q.S.b b V.Q.S.Q.Q.l.C.r.                                                          ",
"                                                      ` X.X.o.b.Q.S.b.d.J J <.N.S.S.V...r.S.r.                                                        ",
"                                                    X.X. .D l.w...C.r.  } 3.  _ o.6.C.] _ 3.C.6.                                                      ",
"                                                D [ X.` C ( C.` } S.2.  ,.3.  _ X.' l.5.M A ..r.C.                                                    ",
"                                              | w.5.Z K   P.5.V ..S.,.  9 9   _ X.` ~ S. .  c ~ C.Q.<.                                                ",
"                                            P._.P.        C.M x ..C.      @.    X.X.O t.w.      @.P._.P.                                              ",
"                                        #.`.b.          V.|   c 3.w.            X.[ m   l.|         #.P.P.                                            ",
"                                      #.d.          *.W.C...  + 7.e.            X.[ m   f.C.r.            s.#.                                        ",
"                                                  g.W.F.9.      C.e.            [ o.L     _.7.w.r.                                                    ",
"                                                P.).`.e.C.      _.r.            ` /.      _.F.e.S.r.                                                  ",
"                                            &.H.V.&.<.V.e.      _.<.            3._.      j.z.4.:.k.`.g                                               ",
"                                          / ( ^   E &.>.r.      _.                _.      N.4.,.E   h k j                                             ",
"                                                  }   >.r.      P.                P.      P.&.  ,.        s                                           ",
"                                             .~ X.3.  k p.      s.                k.      d.(   R 9.<.r.                                              ",
"                                          _ D n { l.  d j       #.                p.      ^ (   K / } 6.e.                                            ",
"                                          ) P N.<.r.  ; h                         @.      Y     m } F./ 3.                                            ",
"                                          D r._.,.V.p.  f                                 Y   * m ( _.C.3.                                            ",
"                                          ] <.l.w.r.                                            *...3.b.7.                                            ",
"                                        y ` r.r.<.                                                p.3. .r.,.                                          ",
"                                        m 7.r.                                                        ,.5.&.                                          ",
"                                        P ,.                                                            ,.E                                           ",
"                                                                                                                                                      ",
"                                                                                                                                                      ",
"                                                                                                                                                      ",
"                                                                                                                                                      ",
"                                                                                                                                                      ",
"                                                                                                                                                      ",
"                                                                                                                                                      ",
"                                                                                                                                                      ",
"                                                                                                                                                      "
};
