/* XPM */
static char *f751dd687364419ff371baadc8e30791sVavjj5qvXIvClH0[] = {
/* columns rows colors chars-per-pixel */
"56 75 245 2 ",
"   c None",
".  c #000000",
"X  c #030B01",
"o  c #090C03",
"O  c #060609",
"+  c #0E1404",
"@  c #0C1A01",
"#  c #0C130C",
"$  c #131B0A",
"%  c #141B06",
"&  c #131B12",
"*  c #171C16",
"=  c #150F00",
"-  c #0B2D00",
";  c #1B240C",
":  c #1D2B0A",
">  c #162605",
",  c #193600",
"<  c #1B2413",
"1  c #1E2B15",
"2  c #1B241B",
"3  c #1E2A1A",
"4  c #152714",
"5  c #212D0F",
"6  c #243803",
"7  c #212C13",
"8  c #222D1B",
"9  c #233215",
"0  c #24321A",
"q  c #28351C",
"w  c #2C3B1D",
"e  c #2A3916",
"r  c #1B2722",
"t  c #242D23",
"y  c #263222",
"u  c #293523",
"i  c #2D3C23",
"p  c #2E3E2A",
"a  c #2C342D",
"s  c #313E26",
"d  c #2D3634",
"f  c #284504",
"g  c #2E411A",
"h  c #35491B",
"j  c #3B530E",
"k  c #2F4125",
"l  c #2E4028",
"z  c #324325",
"x  c #33442B",
"c  c #36492D",
"v  c #394C2C",
"b  c #384A27",
"n  c #3D532D",
"m  c #3A5224",
"M  c #354533",
"N  c #374832",
"B  c #3B4C33",
"V  c #3D4D3A",
"C  c #36443B",
"Z  c #3E5233",
"A  c #3D533C",
"S  c #2F4231",
"D  c #455D2D",
"F  c #445A28",
"G  c #415534",
"H  c #445B34",
"J  c #42563A",
"K  c #455C3B",
"L  c #495D3E",
"P  c #485D34",
"I  c #4A6329",
"U  c #506B2A",
"Y  c #56762E",
"T  c #4C6535",
"R  c #4B633B",
"E  c #4F6A39",
"W  c #526B3D",
"Q  c #536A38",
"!  c #547033",
"~  c #55713C",
"^  c #5B783B",
"/  c #647C3B",
"(  c #435443",
")  c #4A5D43",
"_  c #4A5D49",
"`  c #475B44",
"'  c #444A45",
"]  c #4D6243",
"[  c #4D634B",
"{  c #4F6946",
"}  c #516444",
"|  c #536C43",
" . c #53654C",
".. c #546C4B",
"X. c #5A6E4A",
"o. c #567144",
"O. c #597444",
"+. c #5D7A44",
"@. c #5A744B",
"#. c #5E7A4B",
"$. c #57724A",
"%. c #5A6D54",
"&. c #566A55",
"*. c #5D7552",
"=. c #5E7A54",
"-. c #5D7459",
";. c #627D4B",
":. c #627E44",
">. c #627C54",
",. c #637C5A",
"<. c #647857",
"1. c #656C58",
"2. c #5F7861",
"3. c #667A63",
"4. c #5E812B",
"5. c #67883D",
"6. c #6D903E",
"7. c #648345",
"8. c #65834C",
"9. c #69854D",
"0. c #6B8A4B",
"q. c #698A48",
"w. c #73944B",
"e. c #668354",
"r. c #6D8C53",
"t. c #668359",
"y. c #6A855B",
"u. c #6C8B5B",
"i. c #6A8453",
"p. c #718C56",
"a. c #6F9255",
"s. c #719254",
"d. c #7B9D55",
"f. c #73925D",
"g. c #7C9C5C",
"h. c #769855",
"j. c #708B47",
"k. c #7EA25A",
"l. c #6E8A64",
"z. c #6C826A",
"x. c #6B8664",
"c. c #728B64",
"v. c #758B6C",
"b. c #749264",
"n. c #7C9C64",
"m. c #76946A",
"M. c #7A946C",
"N. c #7D9B6C",
"B. c #789566",
"V. c #768C73",
"C. c #7C9776",
"Z. c #7C9B72",
"A. c #7A9778",
"S. c #6E8970",
"D. c #7EA164",
"F. c #839E5B",
"G. c #83A759",
"H. c #829E6A",
"J. c #829E73",
"K. c #849C7B",
"L. c #84947B",
"P. c #83A464",
"I. c #82A46B",
"U. c #86A96B",
"Y. c #8AAC6B",
"T. c #88A866",
"R. c #8EB268",
"E. c #93B869",
"W. c #84A473",
"Q. c #8BAC75",
"!. c #85A37B",
"~. c #8BA57C",
"^. c #8CAB7B",
"/. c #87A875",
"(. c #92AC7A",
"). c #8FB17A",
"_. c #8EB276",
"`. c #92B575",
"'. c #94B57D",
"]. c #95BA7C",
"[. c #9ABC7B",
"{. c #97B974",
"}. c #A1B46B",
"|. c #9BC176",
" X c #A4C87C",
".X c #859C82",
"XX c #8BA484",
"oX c #8CAC81",
"OX c #8BA789",
"+X c #92AD83",
"@X c #93AC89",
"#X c #95AA8B",
"$X c #94B583",
"%X c #9AB685",
"&X c #96B983",
"*X c #9ABC84",
"=X c #95B28B",
"-X c #9BBA8C",
";X c #99B489",
":X c #9AB795",
">X c #93AD8D",
",X c #A1BD89",
"<X c #A4BB98",
"1X c #9EC281",
"2X c #9FC18D",
"3X c #9FC091",
"4X c #A3C383",
"5X c #A6CB84",
"6X c #A3C48D",
"7X c #A9CB8D",
"8X c #A8C78A",
"9X c #A5C493",
"0X c #A9C694",
"qX c #ABCC94",
"wX c #A4C39B",
"eX c #ABCB9A",
"rX c #A9C798",
"tX c #B0CE9C",
"yX c #ADD297",
"uX c #B5D79B",
"iX c #B2CD87",
"pX c #ABC4A3",
"aX c #ADCDA4",
"sX c #A6C5A1",
"dX c #B2CDA3",
"fX c #B2C7AD",
"gX c #AFD0A2",
"hX c #B5D4A3",
"jX c #B9D5A3",
"kX c #BADAA5",
"lX c #BAD9A9",
"zX c #B6D5AB",
"xX c #BEDAB3",
"cX c #BBD5B6",
"vX c #C2DCBC",
"bX c #C2DDB1",
"nX c #C3DCA8",
"mX c #C6E2B9",
"MX c #CBE6AF",
"NX c #C6DEC3",
"BX c #CDE5C3",
"VX c #CEE8C2",
"CX c #D5E9C3",
"ZX c #D3F4C4",
"AX c #E5FFD9",
/* pixels */
"                                                                                                                ",
"                                                                                                                ",
"                                                                                                                ",
"                                                        mX                                                      ",
"                                                        qX                                                      ",
"                                                    [.1XE.                                                      ",
"                                                      G.P.yXlX                                                  ",
"                                                      [.R. X                                                    ",
"                                                    6XG.E.5XmX                                                  ",
"                                                    &XP.k.4XkX                                                  ",
"                                                      q.6.E.                                                    ",
"                                                      R.[. X                                                    ",
"                                                  |.7XiXzXZX5X                                                  ",
"                                                5XqX[.[.oX$X'.1X                                                ",
"                                              9X'.p.*Xf.0.f ;.nX0X                                              ",
"                                                g.P.+..._.P.o.P.T.                                              ",
"                                              dXqXr.J . ~.jX!   T.tX                                            ",
"                                                ;.6 5.T.@.;.I.:.                                                ",
"                                            `.g.<.g.R.qXy.>.2XM.F.6.                                            ",
"                                          eX`.! K.%X^.e.p.I J 6 0XkX*X                                          ",
"                                          r.k.k.0.J x I.|.G.U b H Q.*X                                          ",
"                                      MX X{.6XkXb...R W.wX8XE.;.P B.*X*X X X                                    ",
"                                    nXuXZXkXc.1.e v % % } jX6XB.} E     yXAX                                    ",
"                                          O.T ! e.W D +.T ) d . 9 b W                                           ",
"                                        4.~ b.U.7.w.P._.y.m ! Q T.w.I { q.6.                                    ",
"                                    <X(.9Xf.. D 5.`.qX/.$.&X*XN.).qXi.- 8.qX                                    ",
"                                  {.Y J [ % f.R.G.O.m.;XP ]  .i J ( O.|.f.u.4X                                  ",
"                                  +XQ F 6 v.dXc.lXW.. W.s.! h b q . O.lXxXs.;X                                  ",
"                                  4.^ _._.#.X 4 3.p J >.*X0.F D D i y >.v.v.u.G.                                ",
"                              nX4X5X|.u.A.m.T =.6 i c N.Z.a.E.j.F w < 5 h F o.E.uXyX                            ",
"                            CX(.pXVX$Xu.Q._.u.Z.y.J y./.I.nXMXtX6Xy.G ] m.H.N.n.xXNX                            ",
"                              Q.(.Q.G.D.eXjX=Xx.S.x @...Z.@XeXZ. .v R ..b.  m.s.].*X                            ",
"                            MX,XB.bXkX'. .L.z i z 6 h l . +.`.I.H.#.8 7 o     H.kXlX                            ",
"                              j XXxX#X .. . R O.W s.Y.s.g L.eXK.K.r.f.j 8 0       mX                            ",
"                                  , , i c c W 7.G.{.I.A.>.3 ..<.. | N.`.^ 7 n m                                 ",
"                            d.7.{ M.f.p u . D ! 9.6X7XW.S @ u G >...b.^.R d.^ n h.{.                            ",
"                            aX,Xg.b.i.D R T.G.R.8.C v.Q.M.` z n $.... . O.5X X8.Q.                              ",
"                            oX+XI.B.lX^.eXeXy.9X'.m F 7.^.] G B.D.b.#.H | 0XmX;X~.vX                            ",
"                          P.d.7.,.M.x.X.1.a . <.~ U 0.*Xe.c b ) x.| #.J b W.oX=X;.                              ",
"                        lXuXR.8.>.| F 7 . K r.P.[.5XQ.B.'.$.p c R t.b | B.U E N.0X0XqXMX                        ",
"                      dXdX-Xq.C.N.y.m.G X.>.m.<XeXbXrX/.x.B.| @.Z.m.!.0XqX&Xs._.9XpXp.                          ",
"                      eXyX|.s.    = x i i T 9.r.`.I.J a x e z ; ) N  .@X#Xy.,XiXeX^.F.kX                        ",
"                      vXmX      q $ 6 U p.p.~.~.*X0X*.> r.g.g.^ T ~ F : . X 3.rXdXvXf                           ",
"                          j z v e ! R.`.u.L 7 J x.p x >.Z.H.`.{.G.7.| Z u G 9 e , f                             ",
"                      F.h.O.F G.k.H c.W.] =.=.J 3 ; < ] H.6X6XW.U Y ^ g . 4 b ;./.x.O.r.P.                      ",
"                  T.T.8X/.7.7XyX{.R . . Z t.o.J H ) 0 >.rXx.a c P.{.T.R.4Xy.> w <.>.g.&XrXcX                    ",
"              zXhXyX0XtXe.wXlXhXQ.l W e.O.f.D.o.z ` l ..-.b h b.yXxXl.X.0XdXx.n.n.$.B <.,.0.                    ",
"            mXvXvX7X  U c.K.K l.T : J =.0.Q.{.I.[ . N w e./.$.] ( 3.... . u B ,.$X-X~ ;.n.=X                    ",
"                    M.W.:.b O.U z >.x.W.9X=XrXhX%.. K u.Q.y.; : @ . 9 u i z x  .K L.,.b.oXsX                    ",
"                    p.u.b U.Y.9.u y x &.3.XX(.K.B 4 c.m.-.p ^ 5.#.O.4 . 7 8 8 p v R ,.                          ",
"                  ~.J.i.-X9X^.$.; q q + q v.u 3 $ B 2.3 . #.1X'.8._.;X-.. y N z 8 s n ;.                        ",
"                      <X^.XXx.1 y ` z N J u 2 * + r y R R c.<XzX..J +X.X. & q ) c b $.b.&X                      ",
"                    K [ . A z 1 . . # 8 1 1 O $ $ & t.Z.[ p 2 _  .. . : o % $ & 0 B L o.J.;X                    ",
"                  P e.b.l.t.K < < w i g i z b P P #.m.( O . H | ~ R | r.t.c z e $ B i 0 K e.+X                  ",
"                  V.=Xm..X=.> O u 3 y 0 i Z H K >.f.Q.$.< * y.^.wX,.J I.=X3.W 7.+.T Q R ] [                     ",
"                  >X] u -.5 b x u G H T T >.8.r.y.t.A.Z.] . [ ` S.3.. 8 M ..r.U.T.H.s.f.g.`.                    ",
"              (.W.g.P.Y.P.8.o.K W e.~ ] H 8.n.T.6X$Xz ` t.o.h.8.! W A x y =./.rX6XrX9X_.Z.U.6XhXVX              ",
"            ,X-XoX9XwX6X/.x.r.oX-XN.#.M y p p B XX:X..l ^.9XP.u.W ;.@.| ] =.W.7XjXzXhXxXcX/.b.,XdX              ",
"          vXpXzXzXuX[.D.Y.R.Y.W.:X:Xl._ t l 0 . . v N ` OXM.. @.;.6 % $ t 4 &.<XV.fXpX  vXhX].&X-XdX            ",
"              mXcXD.=XlXjX7X_.> 4 >Xz.. * < 1 : 9 8 z B . . u.P.[.g.! P > . i ' . J ( X / ;X6XhXvXbXCX          ",
"              4XN.M.cXwXaX@X{ t . t M . & 8 b +.a.e.| N 8 V =X9X-X=X*XI.I.y.z @ i ; c ( v o.      mX            ",
"                  @XA.- z.V X 2 & # . # l I I Z x.^.m.*.. 0 :XdX9XXX:XZ.3.,.V E q.E w e s |                     ",
"                <.#.c V . > p 3 3 @ { N.a.a.k.8.r C =.A.x . -...XXV.. a . . % | N.&XQ.W :.u.i.                  ",
"            T.H.i.H z q V L s # @ A.eX_.o.oXlX).] X 0 ( V . < & V -.> c c J 8 c D.:XaX<XM.K.XX                  ",
"              :Xb.t.L w A N . # 2 S.z.e r :X:Xv.=...t.N * @ O 2 * y N p u V 3 + A S.*..XOX                      ",
"            ^.M.{ Z V N . O 3 : > > > 9 c A . . # &.A.l.0 y 0 1 1 8 ; 1 $ . . u v H z , A H                     ",
"          (.e.J x q N x i F B ` K./.e.R l.D.y.L . o M Z.u.o.| G B c z l x i 2 O K b.A.oX!.*.                    ",
"            ,.y.;.#.+.7.a.w.#.%.OXl.] M =X:Xl.&.. B m.+Xx.=.[ D ] h k u 3 & 8 & @ _ V.%.A.:X                    ",
"          eXqXY.b.n.I.;X].$XI.*.4 . 3 ( z.. V   N x.V.&.u.D.Y.D.f.#.| +.@.$.v G W W e.E Q B.D.                  ",
"      CXmXlX$XW.sXaXjXaXtXtX&XW.S.  [ [         t.X.4 [ aXgX|.          y.u.#...8.Z.[.9X$X/.$X%X}.  iX          ",
"        8XU.    BXcXaXvXxXtXhX                                                    A.^.9XkXzXrXsXpX              ",
"                                                                                        ].aXBXcX  NX            ",
"                                                                                                                ",
"                                                                                                                ",
"                                                                                                                "
};
