/* XPM */
static char *_dedf336c0954bf0fe71061e399afd31QCl2EINLeW2ksB68[] = {
/* columns rows colors chars-per-pixel */
"48 75 256 2 ",
"   c None",
".  c #000000",
"X  c #01010B",
"o  c #000B02",
"O  c #001B02",
"+  c #001A0B",
"@  c #000E12",
"#  c #2E0005",
"$  c #012C02",
"%  c #00260C",
"&  c #042906",
"*  c #00340D",
"=  c #013806",
"-  c #012D11",
";  c #002413",
":  c #003B13",
">  c #023514",
",  c #18370B",
"<  c #273C14",
"1  c #3A3813",
"2  c #2F2E0C",
"3  c #003A20",
"4  c #4C0307",
"5  c #580002",
"6  c #551B0E",
"7  c #620001",
"8  c #6B0304",
"9  c #780304",
"0  c #74190B",
"q  c #70170F",
"w  c #583916",
"e  c #51310C",
"r  c #682707",
"t  c #792A07",
"y  c #752A11",
"u  c #6A3213",
"i  c #6C3327",
"p  c #4B2720",
"a  c #004808",
"s  c #004413",
"d  c #014C14",
"f  c #074718",
"g  c #194816",
"h  c #025616",
"j  c #1A5917",
"k  c #124A08",
"l  c #254507",
"z  c #274816",
"x  c #374816",
"c  c #295717",
"v  c #365819",
"b  c #2F4F04",
"n  c #006F14",
"m  c #266517",
"M  c #386718",
"N  c #307210",
"B  c #0D5528",
"V  c #34502A",
"C  c #336425",
"Z  c #006730",
"A  c #475801",
"S  c #464815",
"D  c #554B16",
"F  c #475718",
"G  c #585718",
"H  c #514A05",
"J  c #695603",
"K  c #684815",
"L  c #685918",
"P  c #775917",
"I  c #73510B",
"U  c #486617",
"Y  c #59671D",
"T  c #506B14",
"R  c #766404",
"E  c #67661C",
"W  c #77691B",
"Q  c #6F7016",
"!  c #4E542C",
"~  c #72532C",
"^  c #4C652C",
"/  c #696825",
"(  c #746D21",
")  c #7A6923",
"_  c #777624",
"`  c #6C7338",
"'  c #597045",
"]  c #71744B",
"[  c #6A6358",
"{  c #870202",
"}  c #940001",
"|  c #9C0000",
" . c #98000A",
".. c #8C1406",
"X. c #910D11",
"o. c #A80003",
"O. c #B50102",
"+. c #B11713",
"@. c #93250B",
"#. c #832814",
"$. c #853816",
"%. c #932E0D",
"&. c #A43814",
"*. c #B3310F",
"=. c #863B2A",
"-. c #963B29",
";. c #8B312E",
":. c #B53228",
">. c #C80002",
",. c #DC0000",
"<. c #D40305",
"1. c #D10E13",
"2. c #E80203",
"3. c #FA0000",
"4. c #F51110",
"5. c #C93708",
"6. c #EA2D14",
"7. c #D33737",
"8. c #864614",
"9. c #875A17",
"0. c #934F0F",
"q. c #B14E16",
"w. c #866A16",
"e. c #8F7511",
"r. c #AC7113",
"t. c #8D532A",
"y. c #B4522C",
"u. c #867924",
"i. c #987826",
"p. c #977837",
"a. c #8F6D2A",
"s. c #B87723",
"d. c #AC762C",
"f. c #DE5606",
"g. c #CE4C0B",
"h. c #E75909",
"j. c #E9490E",
"k. c #D4791A",
"l. c #CB6D11",
"z. c #E9740E",
"x. c #C74D2F",
"c. c #CC7423",
"v. c #E76925",
"b. c #9A534D",
"n. c #944B46",
"m. c #B8534B",
"M. c #8E714B",
"N. c #B26759",
"B. c #8A756A",
"V. c #B1746C",
"C. c #E85250",
"Z. c #C66855",
"A. c #CA6F6D",
"S. c #DB615C",
"D. c #4E9018",
"F. c #699419",
"G. c #768624",
"H. c #67A41A",
"J. c #728069",
"K. c #948618",
"L. c #B18B13",
"P. c #AFA21A",
"I. c #898328",
"U. c #9D8D2B",
"Y. c #978627",
"T. c #9B942A",
"R. c #948D37",
"E. c #A38C2A",
"W. c #A88926",
"Q. c #B68826",
"!. c #A4922C",
"~. c #AB942D",
"^. c #AC9A2E",
"/. c #A7982C",
"(. c #B39C2F",
"). c #B9982A",
"_. c #AA9632",
"`. c #B39C31",
"'. c #B99B34",
"]. c #B08736",
"[. c #BCA334",
"{. c #B5A535",
"}. c #A7A132",
"|. c #91A817",
" X c #D59111",
".X c #E98A0E",
"XX c #E68518",
"oX c #EA9819",
"OX c #F68B10",
"+X c #D3A814",
"@X c #FFA519",
"#X c #C8942E",
"$X c #D5A92B",
"%X c #C6AA35",
"&X c #D7AA35",
"*X c #D8B539",
"=X c #CFAF34",
"-X c #EAAE2E",
";X c #E49423",
":X c #DFC53E",
">X c #E5C63A",
",X c #998C46",
"<X c #8D8D4E",
"1X c #B79847",
"2X c #B68F4A",
"3X c #B6A755",
"4X c #8E8B6F",
"5X c #A78579",
"6X c #B08E74",
"7X c #B6A762",
"8X c #C69248",
"9X c #D9B845",
"0X c #DAAE53",
"qX c #CAAB51",
"wX c #E7B655",
"eX c #D08779",
"rX c #FAB962",
"tX c #D0A473",
"yX c #E6C64B",
"uX c #E8CB56",
"iX c #F2CD6B",
"pX c #DFCE5D",
"aX c #988C83",
"sX c #B6928B",
"dX c #AC9690",
"fX c #ABA39C",
"gX c #B6A99C",
"hX c #B9B4A9",
"jX c #BBB8B2",
"kX c #B2AAA4",
"lX c #9FA08E",
"zX c #CD938B",
"xX c #E6938D",
"cX c #CAA699",
"vX c #C7B8AC",
"bX c #C6BBB3",
"nX c #D4B2A9",
"mX c #E6B1AB",
"MX c #ECAD9E",
"NX c #B9C2BD",
"BX c #FCF687",
"VX c #C8C3BB",
"CX c #D6C6BA",
"ZX c #F4ED9B",
"AX c #CDC9C3",
"SX c #D6CBC5",
"DX c #CED2C9",
"FX c #D7D3CA",
"GX c #DBDAD4",
"HX c #E2D6C8",
"JX c #E4DBD5",
"KX c #E4CFC7",
"LX c #DDE3DC",
"PX c #E6E4DB",
"IX c #E8E9E3",
"UX c #F3F4F0",
/* pixels */
"                                                                                                ",
"                                            =X                                                  ",
"                                            -X                                                  ",
"                                          uX+X).iXZX                                            ",
"                                      tXZXBX+XyXBXpX                                            ",
"                                        L.yX:X*XL.                                              ",
"                                           XL.;X                                                ",
"                                        :X-XR W.E.                                              ",
"                                        yXR # I w.                                              ",
"                                      R.` D 8X/ A I.                                            ",
"                                      ^.b p.iX1XT._                                             ",
"                                        ^.x 1X9X_ s                                             ",
"                                  v z   Y.[.U.u.* x T                                           ",
"                                  M h Y.[.%X[.E * s h s j                                       ",
"                                    #.P j * ( [.'.E.i.9.Y                                       ",
"                                Y w l.8 u z E Y.( H 2X%X%X                                      ",
"                                {.r.l.g.&.k d.N.g = wXwX                                        ",
"                                ^.!.s.#Xs K :.x.K d 0X0Xv                                       ",
"                                  *X`.E % u t.t.6 b }.Y w c                                     ",
"                              U F     %XY.D -.y 1 {.i.# &.G                                     ",
"                            e u.F z . R T.`.i.) /.G.X.q.s.r.n                                   ",
"                            0Xp.! = ( R.c G }.*XW.$ X k.l.9.                                    ",
"                          rXqX7X] e q.8Xa.. 1 K.1X1XY.W./ ;                                     ",
"                        9XQ.P 7X` r O.<.0.^ ,X=X7XG.e.U.!.^.T.                                  ",
"                          C Q / z 0 4 y { ! 7X&XE . % x E !.u.(                                 ",
"                        M h m N I.9.} 9 u ; E E O x v c x + F (.j                               ",
"                          #XT.v E S @.-.x s S F z z S :.q.+ /.I.m                               ",
"                          ~.) D q v < O > g @.@.D < r @.7 d./.S y.0.                            ",
"                        `.Y s y 9 J Y.' D & 9.k.k.P e 9 { i.  #.t.i                             ",
"                      h E [.v O ] qXyX7X8 6 I #Xd.- v Q.0.-   x 1 K                             ",
"                    M M % u.[.E f u.).e.R.#X& % % Y ).I.: & z z z m                             ",
"                    N F G s E [.T.x X I.-X-X9.. u.[._ a Q , z v v M                             ",
"                      &.$.x % : u.[.Y.= Q.&XL E.[.F d ` ).qX' b U U g ,                         ",
"                    w.l.q.+.D c + < U.^._ I.^.I.% * x <X=X9X! W E.x g v                         ",
"                  h E s..X0.M v g + * '.:X$X~.v F - > . J e.( t.y.e c M                         ",
"                  U h M s.1 C c F U.`.E._.^.W.(.!.u._ F d > s r } $.U M                         ",
"                  M U L X - F D !.^.F = R.2Xy e E U._.(.T.G.F z 7 5 s z                         ",
"                    . 9 a.Y.W @.P o ; v y.C.:.$.; o f _ U.!._.(.~._ F v                         ",
"                  a <X1XQ.u.u 0 2 c ^ K y.y.=.8.K z , ; $ v G u.U.^.`.Y m                       ",
"                  e.wXiXp.O P g E J : K #.! ~ =.w : S a ^ V + % ( U.I.M                         ",
"                G.R.iXiXp.l -Xi.F a.: S r -.x.&.z z o Y.qXz , S ].2XA h F ,                     ",
"                f.t.3X1XD a $XW.X ] ] = S $.t.F c k J.9X&Xi.f S &.<.@.Y.u.s                     ",
"                o.s._ % , x g z ! S ) d c z * p #.w ^ a.R F j D { 4 q i.U c                     ",
"              #X X0.+.g.v * : L ~ 4XI > v a M D X.K a l z g z + 5  .&.$ k Q a *                 ",
"            e.XX5.l.q.q.%XI.* I M.4Xb f R 1X<X= 1 e P F g - + ) ^.0.7 ' 7X=X,X^ b               ",
"            M ) #X@Xr.> S ^.'.) p.$ , f ,XyX'.G ; W &XL + W (.!./ f : g ,X9X,Xj M               ",
"            F d G.Q.$.1 r X E %X}./ = V ,XK.e./ % W -XW./.`./ % > z = d A R 1 a                 ",
"          M E Y g > % W d.K G < Y.^.E.u., k : * ( Y.{.{._ F / z x D ` U j j z 2                 ",
"          u.1XE.L z J $X&Xr.w.> 2 / U.).=X[.`.%X_.u.x = s 8.q.z $ a.iXqXH f 1 P L               ",
"          *.x.8.: @ U &X+Xi.i.i._.9X(.~.^.Y.E.[.!.W / E c 4 5 : O 2XrXrXY.: d #X[.w.            ",
"        y ..o...Y / Q {.{.U.).{.#Xk.Y.T % X # * _ E.^.^./.U.G.Y d / 0X7XS + P XX;XoXz.          ",
"          #XE.'././.%X!.u./ G w o.O.9 $ F 0X8Xo = & . F a.!.!.^._.Y.T.u.s G .Xz.l.OXoX&.XX      ",
"          c.c.t.Y z w.^.E & X e 0 2 q 8 F 0X,XV qX'.` ; a.L d ! ) u.Y.Y.^.%Xz.z. XOXXX*.OX      ",
"        r .  .o.6 < v 3Xd.P g S 0 }  .e G a.* / 0X9X<Xz -X#X= . o / w.h r.XXq.g.f.z.f.o..XOX    ",
"      *.*.@.8.q.y -.8.x.7.%.S f w &.$.: F F : E e.R b s K.I.~ sX4XuX%XZ e.OXg.f.z.l.O.*.f.q.    ",
"    *...X.&.#.y + @.*.q.t.~ u d D S x z g D G ! x $ V & J.] 5XIXbX1Xe.F.|.oXh.z.OXh.l.l.z.@XoX  ",
"    &.8 6 0 0 5 r y 9 i t.-.w * e 8.2 f e X.@.y y ! o 4XGXvXgXPXAXaXgX|.L.oXoXz.g.h.@Xl. X+X|.H.",
"    y.u ..+.y q { q -.8 u w < * i.*X9.> D u 4 4 y S V 4XHXIXCXCXgXaXGX4Xg.W.P.+XK.P.oX.X).H.H.F.",
"UXJXN.{ -.} 7 &.t.o.>.sXJ.A : -  X-Xr.@ f - ..o.i + lXgXhXvXfXvXB.[ VX4Xo.t.n H.D.G.z.z.r.m F F ",
"UXzXeXZ.o.n.V.:.| V.KXUXPX1XP.`.%X>X/._ W v u %.! . hXFXfXAXPXlXfXVXhX<Xr.t.a T j I 5.j.0.j T U ",
"DXV.AXIXJXIXJXS.>.mXUXUXPX' A G._ _ Y.E.(.{.~./.8X,.xXHXFXJXGXFXCXCXJX4Xl.i.a G j W k.OXK.T F.F.",
"SXV.dXDXIXIXKXm.o.sXVXVXvX` a z i @ $ G % f H Z %.C.MXHXPXGXgXJXPXvXHX4Xg.i.n Q N e..Xz.K.M T T ",
"PXxX5XfXbXjXkX-.} dXVXDXvX0.a w X.1 <X=X7X! k Z r m.nXm.xXMXC.MXIXGXA.@.s.0.h Y j W f.h.w.j U v ",
"GXzXbXDXbXDXCXy.>.CXPXUXbX4 e y y / ,X9X%Xz l C H b.sX=.O.2.<.A.PXPX6X7 x.0.d G d I f.h.0.d F x ",
"FXV.hXJXJXIXFXm.o.cXAXDXdX7 5 #X*X[.0.R e.      4 m.vXe q ;.7 B.SXbXB.9 :.8.h S d I j.j.8.s x x ",
"bXV.dXAXAXDXbX|  .5XkXDXdX} Q.:X$X X=XW.        r sXHX6X5 q { V.JXJXZ.O.:.@.d S s K j.          ",
"  b.aXfXkXjXdXb.fXVXGXGXcXq.>X[.*X%X).$X        FXVXVXHXV.o.o.zXUXIXN. .:.                      ",
"    5XfXkXdXfXFXGXLXIXGXcX Xk.s.>X*XQ.=X    4.xXCXDXHXLXnX| { B.SXFXb. .X.}                     ",
"        fXfXVXAXAXFXIXLXnX2.2.6.>X&Xj.v.v.<.2.S.mXnXmXbXgXN.b.} A.JXb.9 ;.9                     ",
"        :.cXNXkXbXDXLXLXmX3.3.4.uXuX3.3.4.<.} vXzX<.,.7.m.N.VX>.A.FX~ 5 6                       ",
"        8 +.N.kXNXAXGXIXmX,.<.1.>X>Xj.3.4.,.{ hXzX>.+.4.<.n.CX+.A.                              ",
"          8 O.7.zXAXLXIXA.>.1.5.>X>X<.<.6.      V.O.+.4.<.-.                                    ",
"              o.2.S.KXxXO.                            <.                                        ",
"                o.<.3.2.                                                                        ",
"                    2.                                                                          "
};
