/* XPM */
static char *_321a91c4bad4ab4d5454bc85e6b80b1GwybZuDmxFpaj3QU[] = {
/* columns rows colors chars-per-pixel */
"75 75 61 1 ",
"  c #000726",
". c #010826",
"X c #000B2C",
"o c #01102E",
"O c #000E32",
"+ c #020F3A",
"@ c #011135",
"# c #01153C",
"$ c #00183E",
"% c #0A1E3F",
"& c #001641",
"* c #011A44",
"= c #031749",
"- c #011D4B",
"; c #011F51",
": c #002147",
"> c #01214E",
", c #012353",
"< c #0F2751",
"1 c #012856",
"2 c #082856",
"3 c #01265A",
"4 c #01295C",
"5 c #092D5F",
"6 c #012661",
"7 c #012D60",
"8 c #032D63",
"9 c #022C66",
"0 c #002F67",
"q c #032F66",
"w c #052E64",
"e c #032D68",
"r c #012E68",
"t c #002F6B",
"y c #033063",
"u c #023266",
"i c #043165",
"p c #023565",
"a c #0A3267",
"s c #003068",
"d c #03336B",
"f c #023469",
"g c #01356A",
"h c #00316C",
"j c #04316D",
"k c #02346F",
"l c #01376F",
"z c #02366F",
"x c #0C346C",
"c c #013868",
"v c #023570",
"b c #013771",
"n c #023670",
"m c #033670",
"M c #073772",
"N c #053973",
"B c #083A72",
"V c #003A7B",
"C c #063D7A",
"Z c #043F7E",
"A c #083F79",
/* pixels */
"4467764413,,144444646444434444467r0hhhmmVZZCN7474,,,>>4444446644443133,4468",
"000076411111134448844664678477u7ru7u7444444w0447441,37xwjjmMBBzgrr643344369",
"gg007444111,,3334ay644444yyyuuuuuuggu3,--::->344e0776746r0rhssghjjsg7767666",
"gguy74333,3,,,,,388ur790u67780706u777433,2,3>>>,44rrsrhmmzhrs0suw0uszrss997",
"gu07743,,,3,,,,33144yyuau4444333,,,;,;33336;,,,32446rshhCCmmmmhhssksmhgsts7",
"070764333,3,,,,,,1144444441421>--=--;1333366www08076600ruszmmmjhssurssupu74",
"0077767764433,3,11,,,,,>>>>,32,,,>>,2244ur7rrmksrr07767767777yu0ssu7uu7747,",
"0700u00774441,,,>1,>>-,->----=-;,>;,4476777rtrssruu77077074444444741331>,,4",
"ssuus0u774413,>>>>>::----;------->,34uuuusuuususuuggu7747w421,1>>>>>>>:>:>-",
"sssssu084413,>>>>>>:->>>,>,>,,-->>>,344670uu0gsususu74412,,>>:>:--**$**:>:>",
"sdsu00uu443,,>>,>>>>>>>,,>133,>>,>>1,,,,3,34440puuu743>>----%:*:***$$$#$$$-",
"su70y44441,,1,,,>>>>>>>>,>>,>>>>,,,1,;->;,,,,3347ry4,-:*****$*$$*$$$$####$$",
"su07w444,33,,,,,,,,,,>>>>>>>>>:>>>>>>>>>--:--->,3443>*******$$***$*****$$$*",
"uu07744133,,3,,3,,,,,>-->-:--:-*->>>>>:*--*****:>,3,>*$$%$*&$***$**-,>>>>--",
"su077741,311,3,,,,,,->->-:>-:-*:*-*:::--*******-*:>>-*$**>:-------,4433>>,>",
"ss0u64433331342,3,>>>>:->-:--:*::$*****:--:--*-*:----***:2,;3,2,14rjw3112>>",
"sd006444433343,,,,,,>>----**-***--*&-*-;--=**----->-----,,,,,;33,4us033-,>>",
"swu77644343333,,,;>,>----**----*-*--:*--->--:$:->->>>>,,,,3,233,,,33333,1,,",
"uu0u066433333,,,->-->---=*------*::::-:->--:-:->>>>>,,3343334333,33,3,3,1,,",
"0y8474444333,,>,,>>->>------------>*>>>->>->>>>>>,,,,3312333332,33,3333313,",
"644644443333,,,>,>,>>;;;;;;------:---<->>>,,,>,;,,,,,3333,3,333341133211,>>",
"44434443333,,,,,,,,,,,,,;,,;>-:***-->--;>,,,,,,>>-,,,,333333333444433,,>>-*",
"344443333,,,,,,>>,,,,,,;1,,>----&-*-:-->>>>>-,-,--,,,3333333332311,>->>:-$$",
"33,333,33,,,,,>,>,;;--,;>>>---:*-=******--------;;-,,,,,,3333333,>>:***&$#$",
">>,>>>23,,,,>,>>>>>--***::-*$:$*$***$$$$#$**=--;;--,;,,,3,2,,2,>>-$$$$$$$##",
"->--*<-->>>,,>>>>>--:****$$$$$$$$%$$$$$$$**=----;;,-,,,,,>>:--*-*$$$$$#@@$#",
"---******-->---:-----%$*&$$#$$#$$$$$$$$**-->>>,,,,;,;,----&&$@$$####$#&%$$$",
"-*********-**-----:-**$$$$##@####$**-->>>>,>,3,,,,,,-=*$@@@@@@O@@@@#@%$*%$$",
"***&&**********---**$########$$*&&=---,,,>,1,3,,,><=**##@@@@OOOXX@@###$&$&$",
"********$******--***$$##$$$*$*=->--;>>;>>>>,>,>--->=*$####@@@@@@@O@#@###$$&",
"$*$$***:******-**-&$$#$&&**=----;;->>>>>>>>->------**$$#$##@#@@###@####&&#$",
"$$*$******$$*$**:-----*=*=---------------->:>-:------$$$$$$$$$$*&&$$####$$$",
"#$$****&*$$$$$*-*--->>--->---=-*=*******=-->>>>-----***$&$$&*&****=***$$$$&",
"@##$$$&&$####$**:--------;---=--=****-=*-->->>,>,>:-:**%***=**==-----=-****",
"#@@$$$$$####@$$*&--------------=-**--------->>,->--->*****---=-,-------****",
"@#$@$$$#@##@@@$&*------=----==---*--->--->;,,,,;>---**:=-*---;--,;,;->>--**",
"###$#@$$@#@O@@@#&**--***==--=------>-->;>>,,;,,>>----**>---;;;-,,3,,>>>>--*",
"@@#@@##@#@@OX@@#$&&**&=*--------*--;-,>;->---,->>-:*-**>;-;-,;;;,,,2,,,>-**",
"o@@@###@@@OO@XO@$&&=-&==--------------;-------------*--*---,,;,;,,,,,>----$",
"o@@@@@@@@O@OXXO@@##%&**---,------=----=;-**-*-:----*--->-;,>-;;;,>>-**&**&$",
"@o@@oOOOOOXOXXX@O##+#%$&&----&*==**-***-$****=---*=**---->>-->----=%@$+#$=&",
"oooXOO@XOOOX@X@XO@#@@@@@$$%**&*-*%*&&*&&$$&&**********--->>---**&&###$##$&#",
"XXXOXOOXXOX@XoXoO@OO@XX@@@@$$$$&$&&***&$$$$&********=-->>>----*$&$##@$$$#%&",
"oXXoX@X@O@XXoXXoXXXOX@XXoo#$$$@##$#$&$$$$$$**&&*-***----->--**$#####$$#####",
"XXXXoOXOX@XXXoXooXXXXXoXX@@@$$#$#$&#&$$&$&&$&&*&*-*--->:---***$##+#####$++@",
"XXXXXXXXXOX@XXoXXXX.XoXooo@@@@$@##@##$&#$$$$****-*-*---::-***$&&**$$###@+Xo",
"oXXXXX.XXXOo@XXXXXXXXX.XXXo@$@@$$$####&$&&&&*****-***==********-**-&&&$+ooX",
"@OOXXXOXXOXXX@@@XXXX.....oo@$@####$##&&&$##&&**=*-*-****&&$**&$*&&&&##*@Xoo",
"@@XoXXXXXXX@o@O@ooXX.XX.XXOO@#######$$&&&&&#&&***-***$&&&*&*&&$$&+#+OOO@@@@",
"@@@OoXO@OooXX@@@+oOoXXX.XXX+######$$&*&&&###&****-***&&*&$*&&&&$&##OOOO+#+#",
"#$@@@@@XXoXXooo@O@OOXXXXXXO+++#####$$&*&&&&&&******-**&**&*&&&#####+####&=*",
"=$@@@@O@XXXXXX..XOXXXXXXXooO+%##@##&&*-*=&**&***--*-=******&&&#&$#*----;-;-",
"-@#@@@XXXXXX.......XXXX XXOO%+$####&*=-----=-*--*----****-*-=*&&&*,5a441,,;",
"-&$@@@OXXXOX.XX.      XXXOO+++@###&&*=->;;--*-**------***=*>--=*=2,45w443,-",
"&&#@@OXOOXX XXX.X     XXXOOX+#+@&#$*---,,;,--==*--=----***=-;-,-,23642,,;-*",
"&&$#$@OXXXXX.X..  X XXXXXXO++@#@&&**--;-,-,--=*=*-->;----=--;,,;,w,24->--&#",
"&&%##OOXXXX X   .XXX XXOOOO@O++#&&*&=&==>,----*==--;-,-----;;,,,-22<>**-*$$",
"%&+&+OOOXXX  X X..XXXXXXXOOO##&#&#+&&&&-->,,------;;,>>-=*--;;;---<=%$***--",
"&+###+OOOXXX XXXXXXXXXXXOOO++##&&#&&&#&*->,>,>--=-;,;,>-----:-=&&#&&@$*-;,6",
"&&&#+OOOXXX .XXX.XO#+O++++O@####+#+##&&*--,>>-;-----;;>--***&&&$#&&&=-,440r",
"%+&+++oOXXXXXX...@#&&&&$++###@##+##$&&&*-:>>>----==-===--*&=&&&&&&=;44yydgk",
"+&&#+++XXXXXX..X.O$*>=-**####+#+++###&***-;>>-===&&&&&=-*=*--*--;;384uuzgjk",
"+#+++++OXXXXX  XXO&-,>--*&####O######@###$&**==*&*&**&*==--,--=;;;384uhmhju",
"++#+++OOOXX X   .X#*----=&##@++#+##@@@OO@O##&&=**=*=**=*>---;,;33;,340hmhw4",
"+++#OOOOXXXX     .X+=%+%+%++O+O+++O+#@OO*X###=&&&***=*---->,,,,;,;,34shms03",
"+OO+#OOOXXX       .XO++++O+OOXOO+OOXXOXOOXO#&&=&&***---*-=-->>,,,,,336shgy4",
"#O@OO@OXX X      .X. OXXXOXXXOXXOXOXXXXX.OXO$##&$$&**--*--;;,-,,,,,,,,44441",
"@@O#@o@XXX XX  X..XX XXX XXOOOXOOXXX XXXX.XOO@+##&**----;;3;,,,,>---*-->1,>",
"##@+#OOOXXXXX   X.X  XX XXXOOOOOOXX XXXXX. XOO++*-=;334433;;;;-*:$$$@$#$--*",
"###+O##@+XXXXXX XX  XXX OXOO+OOOOXOXXXXOOO++&&=;;;33333333;;=*&&$$$@#@@##&%",
"*&#&#+##+OOXXXXX XX.XXXO+O+#++OOO++OOOO+&*-;;;666643,,;;=-=*&&&#$$$$o$@$#$*",
"-=*=&&&&&++OO XXXO++++++++#&++O+O+++&=--;;336363,;;;---=*-***&&&$*$$$@@o+$$",
"3;-*==*&&+++OOXXOO&+++&&&&&&&#&#&&=*--;;;,,;;,,-----==*=--*******&&$@##@@$$",
"3;>---=*&&&+OOO@O#&====-==;;=-;=;;;;;====*&#&**-;;-;;;=*-*-*=***&*&*-*=----",
"63,;;--=*&&+#####&=;;;;;;;;;;;;;;;----=#$##&&*-,363;;;-=**-->,---=*=-;-;-,1"
};
