/* XPM */
static char *_49c152a97fa4efbe9d80928a42dbc2cyoiHRe3nKcFkVRk8[] = {
/* columns rows colors chars-per-pixel */
"75 75 160 2 ",
"   c #4D7283",
".  c #517485",
"X  c #547A8B",
"o  c #5A7E8D",
"O  c #577D90",
"+  c #597E91",
"@  c #5F828F",
"#  c #5D8293",
"$  c #62838F",
"%  c #638595",
"&  c #668996",
"*  c #6A8A96",
"=  c #628799",
"-  c #65899A",
";  c #6B8D9C",
":  c #6E909E",
">  c #72929E",
",  c #6C8FA1",
"<  c #6E91A2",
"1  c #7394A4",
"2  c #7997A3",
"3  c #7798A6",
"4  c #7A99A6",
"5  c #7396A8",
"6  c #7699AB",
"7  c #7C9CAB",
"8  c #759CB0",
"9  c #7C9EB1",
"0  c #7DA0AF",
"q  c #7EA1B3",
"w  c #7EA3B9",
"e  c #809DA4",
"r  c #819FAB",
"t  c #819FB1",
"y  c #83A1AD",
"u  c #89A4AD",
"i  c #8DA9AF",
"p  c #84A4B4",
"a  c #89A6B4",
"s  c #87A8B7",
"d  c #8CA9B5",
"f  c #84A6B9",
"g  c #89A7B8",
"h  c #86A9BC",
"j  c #8CABBB",
"k  c #92ACB6",
"l  c #98ACB5",
"z  c #92ADBB",
"x  c #95B1BE",
"c  c #9BB4BE",
"v  c #A0B5BF",
"b  c #A1B8BF",
"n  c #8CAEC1",
"m  c #92AFC1",
"M  c #8FB1C3",
"N  c #8CB3CB",
"B  c #94B3C3",
"V  c #9AB5C3",
"C  c #9EB9C5",
"Z  c #95B5C9",
"A  c #9AB7C8",
"S  c #97B8CB",
"D  c #9DBACA",
"F  c #9DBED3",
"G  c #A0B6C2",
"H  c #A2BBC5",
"J  c #A8BEC6",
"K  c #A3BDCB",
"L  c #A9BFCA",
"P  c #A1BFD1",
"I  c #ADC1C7",
"U  c #A6C0CE",
"Y  c #ABC2CD",
"T  c #B1C5CE",
"R  c #A6C1D1",
"E  c #ACC5D3",
"W  c #AEC8D6",
"Q  c #AFC8D8",
"!  c #B1C7D2",
"~  c #B4CAD5",
"^  c #BACDD6",
"/  c #B4CCD9",
"(  c #BACEDA",
")  c #BDD1DC",
"_  c #BDD3E1",
"`  c #C1D4DE",
"'  c #C2D4DE",
"]  c #C9D7DF",
"[  c #CAD9DF",
"{  c #C1D4E0",
"}  c #C2D6E1",
"|  c #C3D6E1",
" . c #C2D6E2",
".. c #C3D6E2",
"X. c #C8D7E1",
"o. c #C5D8E2",
"O. c #C6D9E3",
"+. c #C7D9E3",
"@. c #C6D8E4",
"#. c #C8DAE5",
"$. c #CBDBE5",
"%. c #C8D9E6",
"&. c #C9DBE7",
"*. c #CBDCE7",
"=. c #CEDEE7",
"-. c #C7DCE9",
";. c #CBDDE9",
":. c #C8DCEA",
">. c #CDDDE9",
",. c #CFDFEA",
"<. c #D1DEE6",
"1. c #D1DFE9",
"2. c #CFE0EB",
"3. c #D6E0E6",
"4. c #D8E0E6",
"5. c #D1E0E8",
"6. c #D0E1ED",
"7. c #D2E2EC",
"8. c #D4E3EC",
"9. c #D4E3ED",
"0. c #D6E5EF",
"q. c #D9E6EE",
"w. c #DDE8EF",
"e. c #D5E5F0",
"r. c #D9E7F0",
"t. c #D9E7F1",
"y. c #D7E8F4",
"u. c #D9E8F1",
"i. c #DCE9F3",
"p. c #DDEAF2",
"a. c #DDEAF3",
"s. c #DBE9F4",
"d. c #DFECF6",
"f. c #DFEDF8",
"g. c #E1E9ED",
"h. c #E1EDF5",
"j. c #E2EDF5",
"k. c #E2EEF5",
"l. c #E3EEF7",
"z. c #E4EFF4",
"x. c #E9EFF3",
"c. c #E3EEF8",
"v. c #E3EFF8",
"b. c #E3EEF9",
"n. c #E5F0F6",
"m. c #EBF2F6",
"M. c #E5F0F8",
"N. c #E5F1F9",
"B. c #E6F1FA",
"V. c #EAF2F8",
"C. c #E9F3FA",
"Z. c #EBF5FB",
"A. c #EDF5FA",
"S. c #ECF5FD",
"D. c #EFF8FD",
"F. c #F2F6F6",
"G. c #F1F7FA",
"H. c #F0F8FD",
"J. c #F4FBFD",
"K. c #FAFEFE",
/* pixels */
"D K R Q U C g B x a %. ./ s.>./ $.1.<.p.%.>.>.>.9.9.~ / ~ G V z t a z p L ! t 6 K )  .L / K E  .s.S.b.J.N.-./ Q M M j n 7 - . X # = 5 = - - = # # # # ",
"/ / E E Q C p z / L K  ./  . .C ! /  .>.1.z.b.s.p.t.%. .( L E K z z x g x V V g ! L ' ! P G Q L >.b.b.h.q._ F U Z M M Z p +   # # # < % , # # O O O O ",
"E / E D R B 6 p K Y z / / B E V V L ) %.z.J.S.h.h.b.q.%. ./ / ! K V z a G x z K K ! ~ ~ _ D ! K  .N.h.1.2.E h Z K Z Z Z 7 + X + ; , # = # # # # O O O ",
"B R Q R R j 7 9 j C z m ( H p a K E E %.A.J.S.N.N.N.a.1.%. .' / E V z a B z p K L  .~ ~ A G K m +.b.t.;._ Z 8 B x 6 z D p + O % 5 = # # # # # O X O O ",
"n A K Q B p g 7 m B B V %. .G a ( ! C %.b.Z.A.J.S.A.C.b.e.;. .( L V V g p d r g ! ( L H g G G t / $.%./ E s 5 q j 4 p P z + + * = X * 1 < - % # O X o ",
"f K P E p p f 7 t m j A '  .{ X. .C a %.D.J.J.J.J.A.A.J.V.>. ./ P j V G J ' ( d x G z j g V H , j K R A j q 5 5 f 6 5 p 4 + + + 1 4 7 7 p 7 1 6 5 , , ",
"9 D Q K f 7 p f t j g 9 K { / { _ z p g.K.J.J.J.K.J.J.J.J.V.e.! m L 0.g.b.H.N.1.V V r t 7 z V > 7 p j B 6 < 5 < 5 < 1 t < * % 6 j H K z j p q y 8 7 8 ",
"g K / Z g 6 j K ! P B t L :._ { ) z g h.K.K.K.J.A.A.K.K.K.A.%.E ( b.K.G.K.J.V.V.H B g 1 ; 9 t : 6 q q p 5 < < < < 5 , 4 1 < 1 j ^  . .' ! K C V n j j ",
"E D D m g f A K A K P / @._ / ,.( V V h.J.K.J.n.C.D.J.K.A.H.x.! >.K.J.J.K.A.l.l.C C d ; % 2 1 , 6 7 7 6 < : 5 : < 6 % 1 1 3 p j U ' -.N.d.o.) / / Q R ",
"K h N Z f 9 B P m m K E _ _ _ ,.~ C V >.K.K.A.q.N.d.N.C.V.V.e.K %.K.J.S.K.m.q.:.G a 4 % % , * , : < 1 7 ; ; < < < ; + * 7 p 7 K ) 2.q.N.n.n.y.0.>.} / ",
"8 h m Z m m Z P Z m F E _ _ ( _ Q x B  .J.J.C.N.2.o.e.s.t.a.( K 1.J.G.V.J.t.>.' g 1 : $ o 7 > + * 5 7 7 - - < 5 5 - % < y p s R -.' _ e.D.Z.h.N.N.0.-.",
"f f n m P P D A Q Q P ( / / Q E E V B E n.m.h.N. ./ @.2._ ..! B %.S.b.V.A.:.) ! > % * % d z : * 4 3 9 1 - = 6 5 ; - - 5 z p j R W W ) s.n.d.n.n.e.s.f.",
"n 9 n n S P Z Z / E D / Q P E P K D V K q.w.%.6.W C / ) / ) / K / h.0.a.9.~ C d % o o z ~ c % 3 5 , , ; % & 5 < < ; ; p j 0 x Y Y ) 8.2.8.C.n.p.b.N.N.",
"n t f f n P Z B Q E D P F F P E K V Z Y o.) ) ) U U W R E / E K Y ( / / R V z d $ o > G L C V d a c u = & - : < : ; 0 s p 0 B W ^ ) _ } y.s.d.D.K.D.Z.",
"n 9 n h f D F F Q R P E D j m D C C x Y U C ( U V U R B V K V P / K z p a g a 4 % > ~ %.%.%.' ' ( ~ z ; - : : ; # : 3 0 0 0 c / ~ R ~ ) 2.s.Z.D.K.J.J.",
"w 9 n f f Z Z R / / Q K D m B P D C z U K x K V B C x a p r p V K K 7 7 g a 3 # o T 9.w.s.t.9. .~ K y = ; : : ; # - : > y 0 V E W U R ) h.C.Z.Z.J.K.J.",
"9 n n 8 w n S P / { ( A h m B K A K P (  .z m d t z g y r r 7 p r t 7 1 1 p 7 % 2 2.u.n.N.h.0.' ~ L 1 ; * ; > % * ; ; 4 4 7 K b P K K 2.C.s.y.N.D.J.K.",
"9 w n 9 8 n Z P Q _ / A B m j m K P E ! ! / L m d r g g 7 4 r j p r 3 ; , 7 7 X a 8.d.Z.C.N.q.) ~ r % 1 ; 1 1 * ; 1 < 4 1 p ~ H x V U 2.N.2.2.N.J.D.J.",
"9 9 n 9 t t Z Z Z Q Q D P K t g B E ( ! m B K K P V d r 4 1 7 u p 1 > > 1 1 @ 1 ) n.N.C.n.n.5.[ ~ 2 X < s K c y % * > > 3 c R R j V U 2.6./ -.N.C.C.D.",
"w w 9 f 9 n m m m Q _ A z z z L K ! ( E C z d d j V V a 4 1 1 r l a & $ @ o > } n.n.n.d.d.p.5.) Y l l u Y ^ W H 7 * > 1 3 K Y K j j W 2._ W  .y.N.J.C.",
"h f t t 9 N n g L Q / z t m ^ %.( ( ~ F L z a 1 r g B L V 2 > r V l o o $ # T 0.5.n.d.d.N.d.@.Y z G ' K I ~ Y Y Y u > 0 > c U s s x W _ / F _ 2.b.f.f.",
"6 9 8 1 f t f t t K P t 7 K ! P ( _ ~ K E V g d a z H B z r r 7 p y > $ : x ^ *.s.u.5.d.n.2.H c u x Y Y E Y / ~ ( c > 0 1 B C p x c U ) W Q -.2.2.e.y.",
"5 5 ; + 5 t t 8 7 B Q G a K P G P Q E C K K a K V z z 7 r d 2 2 r u > o 4 ! o.o.8.5.o.s.d.Y u c r c I Y Y Y ! ~ / C p k p c x p c Z U E R -._ e.y.2.y.",
"9 6 , + = 7 8 5 g j P ^ a V Q ( Q ~ / z g L d z z g t r d V 2 * z l $ * p c / ) ) ~ ' o.^ k k i 2 ^ ^ ~ I R ~ ~ ~ ! C c C B d x x D U F W _ ( e.2._ 2.",
"5 , , ; - > 5 , H ' ^ P V K /  .( _ _ E z H G g H z 9 p j t t 2 2 r & > z c K E T / ) ) ) k i y k ' [ ) Y / ) ~ ~ ~ U U I c c V V U U R W / W _ _ ( _ ",
", - , < < , , 1 L t.<.( Q P L _ _ {  .( E K K g B C p z r > t p 2 ; > 2 z V C C Y ~ T ) [ I 0 i ) 0.o.' ) ' O.~ ) ^ ! E U C V x B A x U R W / W E P F ",
", , ; , 5 , = ; L @.>.( L K L _ _ %.:.E K K K j A z j z 7 2 1 2 p r 1 4 d z z c Y ^ ^ ) ^ c i ) o.5.5.o.o.[ [ 2.=.) ^ ^ Y U c s k z s A A U W R P K n ",
"; < ; ; < ; 1 G L X.%.! K G P { %.%.%.m K E K V g r p r 7 r > * r z y r a z z K ~ ) ^ ) U 0 ) 3.' 5.5.8.8.o.5.2.%.[ ( ~ ! Y U k p s x k 1 q A D D j j ",
"- * < , 1 , V <. ._ t.X.C m L ` _  .%.E ( ~ V G p g r 4 7 r 7 ; > d x i 7 r k I I ! ) ~ d I q.8.q.q.5.h.s.q.u.2.[ 5.o.) ) ~ c i p 0 d 0 1 p D A m g Z ",
"; 6 1 ; > 7 K ( K  .6.1.! z L ^ / %.9.;.( / E ) P r > 4 > 2 7 4 4 y p y > * u H I ~ ~ c Y q.0.d.5.w.h.p.w.d.u.0.2.o.5.[ 5.5.k k u 1 3 3 7 j P F h h m ",
"z n 4 - t K B g m 1.x.G.t.` <.1.%.>.9.@.~ Q Q ~ H 1 4 2 7 > > 2 7 y y 4 > > G T ~ ~ c H w.q.d.5.5.N.n.w.N.d.5.q.e.2.5.[ s.0.Y H 4 2 4 6 4 q 9 j f 9 f ",
"a t 9 r L ~ ! G G >.b.G.K.J.K.K.0.>.;. ./ / ~ ~ z p a > 7 2 1 ; ; e i > > k ! ! I U c w.N.h.p.[ 0.N.D.N.N.N.w.s.q.5.d.p.q.0.! j & 2 1 > 1 q f p 5 5 , ",
"m g , m P ~ %.@.' ~ <.F.K.J.K.K.q.%.>._ ( / K K z r p 1 > 3 7 1 * u y > * c Y H c c q.J.J.J.m.N.n.C.J.C.Z.N.N.w.[ 8.N.Z.N.N.) ; @ : : * * p p 6 s 7 < ",
"( ( D t z H { ` X.%.q.K.K.J.K.K.A.1.>.%.( E K z a k r 1 > > 4 r 2 y T ~ u v G k i ^ n.J.K.K.K.J.J.K.K.J.D.Z.n.9.d.n.d.h.d.C.' o > : * & - 0 7 0 p 5 5 ",
"( / ( ( L L !  .x.1.<.K.K.J.K.K.G.0.( ( E ! E z c V c r 2 2 2 r y k ' =.^ ! I a x ^ n.D.K.K.K.F.J.K.K.J.D.D.D.N.C.n.N.d.h.n.h.^ U y * * 0 p 3 1 q 9 6 ",
"/ _ _  .>.~ ! g.J.>.%.K.K.D.J.G.n.q.@.) Y E ^ ( Y V H a p r 2 u d b T ~ ~ ^ ! c I [ J.m.J.J.K.A.J.K.A.K.J.J.J.D.A.Z.n.N.n.h.n.=.u 0 > 3 p j 1 - 5 6 8 ",
"6._ :.{  .( / t.q.%.0.J.K.K.m.G.G.q.' / K Y X.X.<.X.%.H y u a u u v J u H ~ i k Y p.J.J.K.J.F.D.K.K.F.K.K.K.D.D.J.C.A.n.h.d.h.c & 3 3 > s p : h B p 1 ",
"e.6.(  ./ ( >.p.q.9.g.K.J.J.x.m.n.w.! Y Y G /  .1.0.8.' c J c u u H K u b Y k k c 5.A.H.K.K.F.A.K.K.K.K.K.J.Z.Z.J.n.t.=.0.n.>.z 1 : 3 0 7 ; 0 R K B p ",
" .h.%./ ( ( <.w.q.4.0.n.x.F.x.g.<.<.! T T l J $.=.w.g.<.^ ] ] T e c J i T ^ I k l ^ m.K.J.J.J.J.D.J.J.K.K.N.h.h.h.d.+.^ =.8.Y p a 2 > 0 4 1 D K M n 5 ",
"~ 1.%._ / ' w.q.0.4.0.h.z.F.m.g.g.w.! G ^ T v ' <.m.g.g.] ] ] ^ r e c u I Y H c c ~ n.J.J.C.m.n.m.C.J.J.J.w.5.5.9.6.o.' ' G p k a 4 4 4 p B K D B 8 , ",
"K _ P ( ! ( 1.X.<.8.s.x.x.F.m.z.m.g.^ r ' g.^ ^ [ w.w.d.*.$.] o.J r l u I ^ ^ I c ^ ' 4.F.J.5.[ q.s.C.N.s.2.[ o.' o.) ~ ^ k c ! y : y x B U R E f , < ",
"V A Q E C / %.X.=.<.h.H.F.F.G.x.g.w.^ 4 l x.x.<.$.8.w.w.8.q.<.=.' l k e I ' ^ T I ^ ^ ^ ' ^ ~ ) ' 2.q.5.! Y I T ~ ^ / ~ ~ ^ [ ' c k K Y K B R x 6 5 , ",
"K z K K B { >.$.0.6.h.n.m.K.J.w.+.h.<.k C g.m.N.w.s.s.w.p.0.=.5.o.T l > i [ ' ~ ^ ' ' <.' I T ^ ^ ^ ~ T I k u H Y c Y ^ ~ [ 5.~ W K x M x V B q w 5 , ",
"Q K z z K {  .( 4.h.0.s.b.J.J.0.<.m.F.w.<.<.n.b.d.q.d.A.w.5.' 3.q.J G k y ' 8.~ ^ ^ ' %.A.n.T U T I U Y I i 4 H G y H ( ) ' [ ~ x x 0 z U U j h f : 6 ",
"/ K z V ^ %.( / *.3.%.s.a.C.G.h.q.A.K.K.J.a.N.A.C.q.q.n.w.q.+.' 5.I v ' c x ^ Y I / ) o.5.T I c c C I ^ ' T u c c x U ^ ! ! ) ' x x d U _ / V 9 6 < 8 ",
"m V K ~ { { ( ~ X. .( 5.b.p.m.A.9.w.A.J.V.J.A.H.J.w.8.N.h.w.[ ~ %.' x ~ L i K H U I Y [ ! b i i b c I } 5.W c b x k x H U ^ [ 5.Y d x ) _ ( Q 7 = 5 q ",
"V j L ( { %.( ( >.*.( 5.6.>.N.l.9.8.l.N.A.A.A.A.F.n.n.h.w.d.' ~ o.=.H H Y G H K J K Y C [ w.c c C c ~ } ' b i i d c C U Y ^ ) ( Y H K / / / _ z , j f ",
"E c V / ~ ( ` / ~ )  .5.0.8.l.h.q.5.h.b.S.A.J.A.D.D.N.d.8.w.6.~ ~ [ ^ z C T c I I Y I c ' n.o.5.' I ) ^ W C i c H I I C H W ) ~ E / ~ / Q Q / B B Q B ",
"C K V K Y ! ( ! E ^  .>.8.8.h.n.w.8.w.n.q.m.A.A.J.D.C.N.w.p.w.E b W ' Y c Y x Y T T Y T T 5.5.8.2.^ Y Y ) ^ T ~ T I c W O.2.[ ) W W ~ ^ W W W U / _ W ",
"K C L ` X.X.1.9.%.%. ._  .w.h.G.h.q.6.n.q.h.C.D.D.D.Z.J.C.m.w.~ b c Y b c Y ' T U W Y I ) 5.5.' ^ ' ^ ~ 8.n.u.5.O.Y ^ [ n.u.u.~ W ^ ) W U D U ^ / W W ",
"E D / i.h.q.i.p.0.1.` ( <.g.w.w.5.2.' w.s.h.D.A.V.S.A.D.m.m.n.^ W T k c T ) ) T T ~ c I ^ ^ 2.o.' 2.' ^ O.q.n.$.) O.5.2.8.q.u.) E E W W x w K W / _ W ",
"K K 1.z.h.z.l.g.p.9.>.X.X.%.$.8.d.0.~ o.h.n.m.V.C.N.Z.Z.d.p.8.' ' ' ^ ^ ) U U Y Y T c T Y T ' 2.0.2.o.^ ) 5.' [ ' ) } w.q.u.8.' ) ) ^ ^ Y U U D R W W ",
"! K / q.h.l.b.h.p.a.h.0.^ L ' p.m.n.0.^ q.p.n.n.S.A.D.A.s.s.d.0.2.2.^ I ' I c W U x Y T T ' O.O.2.2.5.[ 2.8.5.2.o.^ ) u.n.Z.u.2.o.) _ ^ ^ W K F R F R ",
"! E X.h.b.b.b.m.h.a.a.a.e.( ' p.h.C.d.' [ d.w.d.N.J.D.D.n.2.8.p.k.q.5.U O.) Y T ^ c I ) ) ) O.' [ 2.O.O.O.2.*.5.2.2.) 2.n.w.2.2.) ) ) W W K D R W E U ",
"Y E ( <.l.x.G.J.V.a.<.5.q.%.^ 1.0.d.q.@.) 5.0.w.N.D.D.Z.J.n.*.q.n.q.e.O.2.[ ) ^ ^ o.^ T ~ T ~ O.8.2.[ o.O.2.5.5.u.5.^ ) q.[ 2.[ ) ) ) ^ W ^ ( / R M S ",
"K E E T ` 1.p.l.V.>.( ' ( ! !  .*.>.3.^ Y ^ 0.w.0.A.Z.Z.J.J.h.0.n.n.n.n.q.0.2.2.u.2.^ Y T T ) 5.8.2._ o.n.8.o.8.5.2.[ } 2.2.2.2.2.2.) ^ ~ W W U S D Z ",
"B R @.2.~ K / %.t.%.Y E Y c / ' ^ [ 5.5.Y I ' 5.$.u.Z.Z.Z.N.n.q.z.k.k.u.2.) ) ) ' 5.[ ' T ) ' 2.5.' o.[ 2.' [ 2.[ ) ) 5.u.u.2.' 2.8.^ ^ ) U C U R W D ",
"z U 2.6.) x a K E ( R c z C ^ ^ [ 5.q.0. .C ! 5.5.} d.n.d.y.8.8.w.w.u.k.u.o.W T ~ ) ^ [ ^ ) } O.[ [ ' ~ ) O.[ O.) ) ) ' 5.u.2.o.) } ) ) T j x W W W H ",
"D Y _ _ ~ C V c y d Y C d H H C H ~ ! ) ' ! H ' o.^ 5.8.2.2.5.2.2.a.u.e.5.' ^ I ~ ^ ' ' } ' [ [ 2.} ' ' O.' ' } } 5.5.[ ' O.q.[ ) ) ) ) ) U D W W W Z ",
"D E ) ( U x Y ( C 7 a j V ~ T c k k d C ) o.~ C ) ' $.5.*.8.k.y.u.a.D.u.2.o.' 2.[ ' ) ) ) [ O.' ) ) o.[ o.^ ' O.[ 2.u.5.} 2.8.[ ) o.) 2.) ) W E E U h ",
"B D / ) C C ) Y x p p p x ! ~ Y Y T C k x ' #.! Y ' o.3.2.q.w.u.k.k.k.k.5.[ 8.u.q.[ ) ~ ' ) ) ) 5.2.2.} ) O.[ *.2.[ 2.5.2.2.2.[ ) ) [ ) ) ) ( D x M B ",
"p j D / V W ( j 3 7 y g a j E ~ ! ) ^ C : x ) ' ' ' O.d.q.q.u.q.u.k.k.u.5.2.2.q.2.[ ~ ~ ^ ^ 5.5.5.[ 2.[ O.2.O.[ O.' [ ) ) o.[ 2.2.2.[ ) ( 2.Y j B U ( ",
"j p f R B B V d 6 1 g j z V / X.W U ! Y x y I ' *.o.5.n.N.n.N.N.u.u.n.8.8.2.[ o.[ ) T ^ ' ' 5.u.} 5.[ 2.u.[ [ ' 2.u.*.o.} 2.) ^ [ 2.s.y.( ( Y D ( / ) ",
"Z Z n D M 0 D 2.I < p 9 C 1.>.o.! Y ) ^ o.) ^ *.5.0.2.w.N.D.N.Z.n.2.k.u.5.2.8.[ ' ) T I ' [ 2.5.2.u.[ [ 2.2.2.[ 2.q.q.2.2.2.[ o.2.0.h.2.) _ _ _ ) Q Q ",
"Z F F j q N F Q H 6 f s K 1.t.` K ' h.e.t.t.0.w.6.=.9.0.h.V.b.A.Z.d.w.d.0.o.' ] o.5.' c ~ 5.q.p.p.s.8.2.5.0.5.2.2.2.5.5.q.8.2.[ O.O.~ ~ _ ' O.2.) ) W ",
"p n n N N N f 6 8 p ~ ~ K ) X. .V ~ b.Z.a.a.p.m.w.0.s.e.6.h.s.9.d.N.n.f.h.0.q.0.p.5.( I 5.w.q.w.n.q.d.w.5.5.5.0.0.5.2.8.8.8.2.^ ) ) ( ) O.o.2.O.o./ U ",
"q q w N h 6 q j h p K K V Q / E V ) 0.C.b.N.b.A.V.A.n.e.0.p.%.5.N.C.A.C.N.s.N.h.p.[ H ) q.N.h.h.h.d.N.h.q.2.2.q.u.3.[ 2.*.8.5.) ) ) O.2.O.2.) 2.2.W F ",
"f h n 8 5 6 q w p f h h B Z Q / R ) s.A.V.h.b.b.N.Z.N.V.s.d.2.q.m.d.N.A.A.N.n.C.h.5.' [ ) w.N.n.p.n.N.N.0.0.5.0.d.8.2.5.8.8.2.} [ 2.[ ) O.2.2.) ~ D W ",
"Z n Z j w h M h p D n a D E / @._ ;.d.K.z.m.A.h.N.D.s.s.A.h.0.s.h.e.a.A.D.Z.N.J.N.q.h.0.[ 5.w.n.u.n.d.q.h.q.0.q.q.2.u.n.d.0.o.) _ 2.) 2.y.k.) W U W _ ",
"M h w M f h Z h B F j h Q @./  .-.%.%.H.J.H.H.A.d.A.p.0.K.K.e.5.n.p.s.d.A.Z.C.A.D.w.n.A.n.h.h.N.n.q.5.y.N.d.q.q.q.q.2.0.8.2.5.o.) ) 2.2.2.2.^ W W W ) ",
"h n Z M j w f h M M B D / ../ ) ;._ / o.J.x.%.s.5.w.n.n.n.H.N.0.s.h.0.5.d.d.N.C.N.N.n.N.N.n.p.N.C.0.5.n.n.w.n.n.o.8.u.[ 5.2.2.) O.o.o.2.2.2.( U U W U ",
"M h / E f 0 h n M F E / / / ) ( ) ~ E R ~ ~ ! ^ ) >.q.q. .*.s.6.*.*.;.0.0.h.N.n.C.J.N.w.n.N.N.N.Z.u.n.n.q.8.d.d.8.0.u.8.' ) 2.5.o.o.2.2.2.2.( ^ W U W ",
"B f j Q D 0 j Z Z E E F E Q / Q U W E R K B K R / / ) ) / @.0.e.0.2.6.0.5.s.p.n.A.A.H.n.n.N.C.n.w.n.J.m.5.5.0.0.0.0.5.) o.) ) o.) ) -.2.) / W ~ / W / ",
"B M f n F S j Z C R D V / / R E Y / R K K K U U E E W / ) o.-.;.0.q.0.0.>.*.0.A.A.N.J.H.C.n.0.0.8.u.K.n.2.5.8.q.[ 2.q.) ! ) ) 2.) ^ ) ( W ~ ~ W / / W ",
"B B f p j N w p K B D K R ~ R U R W / R D V B C V C R ) ) o.*.)  .0.0.s.8.o.0.N.N.D.J.J.d.0.0.w.q.5.q.8.! I ^ 5.) ! ) ) ) ) [ [ 2.2.} W ~ ( ) ~ ( ) W "
};
