/* XPM */
static char *a9264dbecf7c4e8ec888bd3742f67fa44sbimLeFqOVU5Yj2[] = {
/* columns rows colors chars-per-pixel */
"57 75 240 2 ",
"   c None",
".  c #690000",
"X  c #004853",
"o  c #015B68",
"O  c #005D71",
"+  c #00676E",
"@  c #026A75",
"#  c #056A78",
"$  c #01727D",
"%  c #00797D",
"&  c #14747C",
"*  c #1C6F7F",
"=  c #22677B",
"-  c #E90000",
";  c #E81500",
":  c #EA3400",
">  c #EA2E05",
",  c #8B5B35",
"<  c #966733",
"1  c #AB7733",
"2  c #EB4A00",
"3  c #EC5511",
"4  c #EE6100",
"5  c #EE7300",
"6  c #EF6F19",
"7  c #EA5938",
"8  c #E94F2B",
"9  c #EC673C",
"0  c #F0722D",
"q  c #967155",
"w  c #EC6E44",
"e  c #ED7547",
"r  c #EA7458",
"t  c #D67F7F",
"y  c #BA863B",
"u  c #F48C02",
"i  c #F28611",
"p  c #F28D35",
"a  c #B5936B",
"s  c #A68665",
"d  c #F68849",
"f  c #ED8657",
"g  c #F38A54",
"h  c #F19654",
"j  c #EE8867",
"k  c #F1956F",
"l  c #C9A273",
"z  c #027582",
"x  c #017B84",
"c  c #017D89",
"v  c #0C7B86",
"b  c #167C85",
"n  c #297B8C",
"m  c #4B7992",
"M  c #DA7F84",
"N  c #008284",
"B  c #02838C",
"V  c #0D838B",
"C  c #00898E",
"Z  c #14848C",
"A  c #19858D",
"S  c #018C93",
"D  c #078D95",
"F  c #148B92",
"G  c #1A8D95",
"H  c #198692",
"J  c #019196",
"K  c #029399",
"L  c #00999E",
"P  c #0C949A",
"I  c #14959B",
"U  c #1C949A",
"Y  c #18959B",
"T  c #268A8E",
"R  c #258B93",
"E  c #24949C",
"W  c #269399",
"Q  c #399797",
"!  c #378E97",
"~  c #019CA2",
"^  c #0F98A9",
"/  c #1C9CA3",
"(  c #1799A1",
")  c #249CA4",
"_  c #2A9EA5",
"`  c #2B97A2",
"'  c #359CA7",
"]  c #06A2A7",
"[  c #18A0A4",
"{  c #2CA1A6",
"}  c #2CA3A9",
"|  c #2BABAE",
" . c #24A5A8",
".. c #34A2A9",
"X. c #3BA3AB",
"o. c #3EA3A7",
"O. c #2EAFB1",
"+. c #2CB3B4",
"@. c #31B6B7",
"#. c #459B97",
"$. c #4F859C",
"%. c #53A59B",
"&. c #5AA598",
"*. c #4BA19A",
"=. c #65AC9D",
"-. c #71B19D",
";. c #4599A5",
":. c #5897A9",
">. c #6699AC",
",. c #699CB5",
"<. c #46A7AA",
"1. c #55ACAB",
"2. c #49A7B6",
"3. c #55A8B6",
"4. c #57B2B8",
"5. c #66B4AB",
"6. c #77BAA6",
"7. c #63ABB9",
"8. c #76B8B6",
"9. c #6DAEB6",
"0. c #7AC3B3",
"q. c #31BDC1",
"w. c #53B1C1",
"e. c #79B4C6",
"r. c #6FB4CC",
"t. c #7A9DC1",
"y. c #33C3C3",
"u. c #AB9488",
"i. c #B8A79E",
"p. c #84BEAA",
"a. c #BDAEA5",
"s. c #D79497",
"d. c #E99C8D",
"f. c #F2B587",
"g. c #EEAF91",
"h. c #D5A0A7",
"j. c #CBB2AD",
"k. c #EBB2AB",
"l. c #CCAB86",
"z. c #87C4AF",
"x. c #F4C8B5",
"c. c #EFCFB3",
"v. c #EAD5AE",
"b. c #88B7CA",
"n. c #8CB9D2",
"m. c #97BBDC",
"M. c #89AFCC",
"N. c #A7BAD4",
"B. c #9CBBE1",
"V. c #87C5C3",
"C. c #8CC6D2",
"Z. c #99C4DA",
"A. c #94CAC3",
"S. c #A5C8DB",
"D. c #B0D3D4",
"F. c #A4C2E2",
"G. c #ABC6E2",
"H. c #ADC9E6",
"J. c #B3CCE5",
"K. c #BDCEE9",
"L. c #B6CDE8",
"P. c #BDD3E9",
"I. c #B9D2E7",
"U. c #BCD5F2",
"Y. c #B6D1F0",
"T. c #8BCBE3",
"R. c #D8D7D9",
"E. c #D0C7CD",
"W. c #E6C4C2",
"Q. c #EDD3CE",
"!. c #F1D6CE",
"~. c #F5DFCF",
"^. c #EAD4D2",
"/. c #E6DBDE",
"(. c #EBDCDB",
"). c #E9D9D6",
"_. c #F4DBD3",
"`. c #F1DAD6",
"'. c #F0CFC4",
"]. c #FFF8C5",
"[. c #EAE5DE",
"{. c #F4E3DA",
"}. c #FCF4D8",
"|. c #FBE3C5",
" X c #C5D4E6",
".X c #C8D6E6",
"XX c #C4D4EA",
"oX c #C9D6EA",
"OX c #C5D9ED",
"+X c #CCDBEC",
"@X c #D1DEED",
"#X c #D9DCE6",
"$X c #C3D9F3",
"%X c #CCDDF2",
"&X c #C7D9F8",
"*X c #D1DDF2",
"=X c #C0CFEA",
"-X c #E4DEE5",
";X c #CEE1EE",
":X c #D3E2EE",
">X c #DCE3ED",
",X c #D9E7EB",
"<X c #CCE1F4",
"1X c #D4E4F2",
"2X c #DAE5F2",
"3X c #D5E9F2",
"4X c #DCEAF3",
"5X c #D4E4FC",
"6X c #DCECFB",
"7X c #D5E8FA",
"8X c #DCF2FC",
"9X c #D8F1F9",
"0X c #ECE4E4",
"qX c #E4E3EC",
"wX c #ECE6E9",
"eX c #ECECED",
"rX c #E6E7E8",
"tX c #F4E5E2",
"yX c #F4E9E6",
"uX c #F3EBEA",
"iX c #F9EAE5",
"pX c #FAF5E9",
"aX c #E2EBF5",
"sX c #E3EEF9",
"dX c #E7EAF2",
"fX c #ECF1F5",
"gX c #E5F2FC",
"hX c #ECF5FB",
"jX c #E4FAFF",
"kX c #EEF9FC",
"lX c #E3F1F7",
"zX c #F3F3F4",
"xX c #F1F6FA",
"cX c #F5FEFF",
"vX c #F3FAFD",
"bX c #F9FDFE",
"nX c #FEFFFF",
"mX c #FAFCFD",
"MX c #FAF6F3",
"NX c #F1EFF2",
/* pixels */
"                                                                                        4X                        ",
"                                                                                      4XlXgX3X                    ",
"                                                                                      lX3X,X9X;X                  ",
"                                            sXgXgXsXgXfX                            A.7X4X3X8X                    ",
"                                      gXgXcXbXbXbXbXnXnXbXvXvXhX              D.D.p.;.D.3X;X;X                    ",
"                                  gXnXcXkXhXhXkXhXvXvXvXvXvXbXmXnXhX    r.C.C.C.D.V.3.) 9.                        ",
"                              hXnXcXhXhXkXhXkXxXvXvXvXvXvXvXvXvXvXbXcX3XT.r.r.3.e.e.2.'                           ",
"                          vXbXbXhXhXkXkXhXkXxXxXvXvXvXvXvXvXvXvXvXvXhXcXgXZ.2.2.w.w.2.<.                          ",
"                        vXnXkXhXkXkXkXkXkXvXvXvXvXvXvXmXmXmXcXcXvXhXvXhXkXlXZ.[ 3.4.2.                            ",
"                      kXbXdXkXvXkXkXfXzXkXvXvXvXmXvXmXvXmXmXvXMXvXvXvXxXfXkXlX8./ w.X.                            ",
"                      cXeXfXkXkXkXkXxXxXvXxXcXcXmXmXmXmXmXbXcXcXbXvXvXhXxXfXkX,X..w.<.                            ",
"                    gXbXcXcXfXxXzXvXvXvXcXvXcXMXbXvXmXbXbXmXmXmXzXvXcXxXkXkXlXkXD.]                               ",
"                    xXvXeXlXvXkXcXkXxXxXxXmXbXvXbXmXbXbXmXmXmXmXrXzXmXxXxXxXfXkX9XX.                              ",
"                  R.nXrXa a.cXcXcXcXcXcXbXbXxXbXbXbXbXmXcXvXmXmXmXxXvXvXvXxXkXhXjXD.                              ",
"                  R.nXR.. s '.k g.c.~.}.MXbXbXbXmXmXmXnXMXW./.nXMXmXzXzXzXkXkXhXcXgX                              ",
"                  -XbXlXa.R.tXi 4 u u h k g.x.MXnXmXmXnX).. u.MXMXyXpXuXNXNXNXfXkXlX                              ",
"                  (.[.yXMXcXcXyXf 4 p 5 5 4 2 x.mXmXmXmX0X, j.iXiXtXtX{.tXwXNXdXhX6X            6.z.p.            ",
"                  ^.^.[.NXzXxXvXuXj : e w 9 2 k.mXmXmXmXmXwXiXiXiXnXtX!.(.tXwXNXfXlX          -.0.6.z.-.          ",
"                E.{.{.[.uXxXxXvXcXzXd.- 8 2 : {.bXMXmXmXMXMXiX_._.iX{.!._.`.0XtXdXsX        &.=.=.&.&.-.-.        ",
"                W.[.).rXeXxXvXNXfXcXvXk.: - k.bXmXmXmXmXMXiXtX_.!.!.!.Q.Q.^.(.tXdXsX      #.%.*.&.&.&.-.0.=.      ",
"                  [.[.rXfXfXxXk.W.vXvXbXNXtXcXcX`.uXmXMXMXiX`.`._.!.!.Q.Q.Q.).-XdX2X    #.Q ! Q #.*.%.*.*.=.=.    ",
"                  [.rXeXfXfXkX[.zXvXvXvXbXcXcXvXk.!.mXzXNXiX`.!.!.!.!.Q.Q.Q.).-XqX*XM.N Q R T ! T Q #.Q Q %.5.    ",
"                  #XrXdXlXhXhXwXvXvXxXvXvXvXvXvXzXNXmXzXNXiXtX^.Q.Q.Q.Q.Q.Q.(.-X-X.X>.N ! Z H R T T Q Q o.*.<.#.  ",
"                  ,XjXsXlXlXhX0XfXvXvXxXvXvXvXvXuXNXxXxXNXuXtX`.^.Q.Q.Q.Q.`.-X-X*XK.R B H B v v A T T W W T T o.  ",
"                  4XkX4XlXsXgXeX0XvXvXhXvXvXvXNXtXvXxXxXfXNXwX(.).^.^.^.)./.-X-X#XN.z n c S c c c c V F Y G ` } Q ",
"                    jX3X4X8XlXgXdX-XNXfXfXNXwX-XxXhXhXhXxXdXwX-X-X/./.-X-X-X-X*X*X>.# n c c c z c c c B S K D I I ",
"                    3XjX3X4X6XlXgXgXwX0XwXwXNXxXxXxXhXsXhXfXdXqX-X-X-X-XqXqX2X*XN.O * & c z c z $ z z x S S B S K ",
"                      6X3X7X4X4XsXsXgXgXgXgXgXsXsXsXfXsXsXsXsXaXaXqX*XqX2X2X*XoXm o = # z z c c $ z z z B S K ~ K ",
"                      I.3X<X3X7X6XaXsXsXsXsXsXsXsXsXsXaXsXaXaXaX2X6X2X2X*X*X&X>.% T x v v $ $ $ # @ z z c S S ~ J ",
"                    0.z.I.<X<X<X1X7X4X6X6X4XsXsXaXsX6XsX2X2X5X2X2X1X%X%X*XK.>.x W K P P U I V B z # # O z S ~ D   ",
"                  z.A.6.6.G.U.U.$X<X1X1X1X5X2X5X*X2X2X5X5X*X1X*X%X%X%X$XS.:.N R D F I Y ) ( J K K J S V A Z       ",
"                  z.0.8.5.1.C.H.U.$XOX$X%X1X<X1X*X5X*X*X%X%X%XOX$X$XY.M.R N R D I Y U U ) P S K L L ~ +.@.@.      ",
"                0.V.8.5.5.1.<.7.B.H.Y.U.U.U.OX$X$XOX$XOXP.$X$X$XY.m.:.N N R F F U U U U Y J S J K K [ +.+.@.y.@.  ",
"                0.0.5.5.5.4.<.} ..4.n.F.Y.Y.U.U.U.U.U.U.U.Y.H.M.:.v N V T F F F G G U E F C S J J K  .| O.| | y.@.",
"                8.5.5.4.<.2.<.X.}  .} 2.7.e.n.m.m.Z.Z.n.e.,.! % + + A G F A F G G U U G B C C D J I | | O.|  .+.+.",
"              I.V.1.1.1.<.<.X.X.X.X.} / / / / ) ` ) P J C N x % & & + # F G F F G G G Z V V V D S ) | | | +.@.y.  ",
"            XX5XV.<.1.1.X.X.....' ..' ...._ ) / I ^ K K K D F V % $ @ + + A G G H G Z v V V Z S I { } |  ./ +.+.  ",
"          oX7XP.J.4.} <.X.......} .._ } _ } } _ { )  .E I D B B % % @ @ + o b U E H v v v V V B E { } | | } +. .  ",
"          7XXXP.OXS.4.~ ..X.....' } _ } { ) ) ) / ) / / I S S B N z # @ + o o * S c b v V Z V U  .} { } | +.+.    ",
"        oX7X+X%XoXOXI.b.{ ~ { ..} _ _ _ ) ) )  ./ / / I ^ D S B B z # # + o X X m ! x A V v Z E _ }  .U  .@.|     ",
"        gX1X1X1X@X+X+XOXJ.e.X.L ~ / ) ) ) ) ) ) ) ( ( ( D D D B c x $ + o o m M.M.M.m c A Z G _ _ { } |  . .      ",
"      *X6X1X1X2X3X2X3X@X+XoXJ.n.4.' ~ L L L L ~ L L K S S B c z $ $ n $.,.M.B.B.B.B.B.;.x G ` _ _ ) _ ..q.|       ",
"      gX2X2X2X2X2X2X2X2X1X:X+X%XXXJ.m.b.7.3.;.' ' ` ` ' ;.:.:.,.M.n.B.F.F.F.B.m.B.B.B.B.,.K ) _ _ E E @.|         ",
"    2XhX2X2XaX2X4X2X2X2X2X2X2X4X5X1X@X+XOXP.L.H.G.G.S.F.G.H.H.Y.H.H.H.N.F.S.F.S.F.B.B.B.F.e.I ( ' ..] ~           ",
"    2XsX2XaX2XaXaXaX4XaX4X4X8XR.E.,X2X:X:X:X@X*X+X+X+X+X XP.I.K.L.L.J.J.J.G.H.H.G.G.G.G.G.H.n.X.~ ~ w.            ",
"    aXaXsXaXaXaXaXaXaXaXaXgXR.l y j.4X2X2X2X2X:X:X@X%X+X+X+XoXOXXX=XP.P.K.L.J.J.L.L.J.J.J.J.I.S.e.9.<X7X          ",
"    hX2XrXdXdXsXaXaXsXdXaXfXj.l a 1 qXsX2XqXaX2X>X2X2X:X:X:X+X+X+X+XoXoX XOXXXXX=XK.P.P.P.P.P.P.OX;X9X;X          ",
"    bX}.}.rXsXdXdXaXaXaXaXsXR.a 1 j.aXaXaXaXaXaXaXaX2X>X4X2X2X2X*X2X@X@X%X+X;X+X%X+X+X+X+X+X+X;X;X;X;X<X          ",
"  }.pX}.c.f.wXsXaXaXsXaXdXsXsX#XR.aXaXaXdXaXaXaXaXaXaXaXaX2XaX4XaX2X6X8XrXrX1X,X2X2X1X3X,X:X,X3X3X3X3XjX          ",
"  ].].g.h i f.dXsXaXaXdXaXaXaXsXgXaXaXaXaXaXaXaXaX2XaXaXaX4X4XqX4XgX@Xv.].pXtX>X3X2X2X2X4X4X3X4X:X3X,XjX3X        ",
"  f.g 0 h h p c.sXaXsXaXaXaXsXdXaXaXaXaXaXaXaXaXaXaXaXaXaXaX4XlXaXW.k 6 k }.pX}.[.:X4X3X4X3X3X3X3X4X4XjX3X        ",
"  r 0 h h k u j #XsXaXaXaXaXaXdXaXaXsXdXaXaXaXaXaXaXaX2X4XsX4X4Xk.6 6 9 8 k x.].].#X4X,X2X4X,X4X:X3X4XjX3X        ",
"  k g g d h d.j.@XsXaXaXsXaXaXsXaXaXaXaXaXaXaX4XaXaX4XaX4XaX8Xk.2 0 f d e 3 8 j f.;X,X2X4X,X3X3X3X3X3X8X3X        ",
"  g d g d 0 j.7XdXaXaXaXaXaXaXaXaXaXaXaXaXaXlXaX4XaXsX4X4XaX8XW.d.d.e 9 e e w : s.;X,X4X4X3X4X3X4X3X3XjX3X        ",
"  k d r e 6 s.1XsXdXdXaXaXaXaXaXaXaXaXaXlXaXaXaXaXaX4XaXaX4XrX4X%Xk 0 e w w w 3 s.9X4X4X3X4X4X3X3X4X3XjX3X        ",
"    k 4 e 2 h.7XdXaXaXaXaXaXsXsXgXgXaXaXaXaXaXaXaXaXaX4X4XaX4X8XW.0 9 e 9 7 7 2 j.3X4X3X4X3X3X3X3X3X,XjX3X        ",
"    /.r 3 t  XsXaXaXaXaXaXsX#Xi.u.R.jX4XsXaX4XlXaXaX4XlXlX4XdX9Xh.4 9 9 7 7 8 8 R.3X3X4X3X4X3X3X,X3X3XjX3X        ",
"    5X*X.X+XaXsXaXaXaXsXaXsXj.a < < ,XlXaXaXaXaXaX4XaX4X4X4X4X9XE.3 8 7 8 8 - s.9XaX3X3X4X3X,X3X3X3X3XjX;X        ",
"    #XhXaXsXaXaXaXaXaX2XaXsXi.< , , >XlX4XaXaXlX4X4X3XaX4XaX4XdX2Xh.: > ; ; s.%X4X3X4X3X4X3X3X3X3X3X<X8X          ",
"    *XxX2X2X2XaXaXaXaXaX4XsX@Xu.q E.sX4XsXaX4X4X4XlXdX4XlX4XlX4XsX3XE.h.h.E.3X4X3X4X3X4X,X3X3X3X<X;X3X;X          ",
"      sX2X2X2XaXaXaXaXaXsXaXsXsXsXlXsXaXaX4XaX4XaX4X4XlX4X4XsX4X4X4X8X9X9X8X4X3X3X3X,X3X3X3X1X:X3X;X8X+X          ",
"      *X2X2X2XaX2XaX2XaX2XaX4XaXaXaX4XaXaXlX4XlX4XlXdX4XlX4X4X4X4X4X4X,X3X4X3X4X4X3X3X3X:X:X;X:X;X+X7X            ",
"      @XgX*X2X2X2X2X2X4XaX2XaX4XaX4X4XsX4X4XaX4XlX4X4X4X4X4X3X4X4X4X4X4X4X3X3X,X3X3X:X:X;X<X%X%X+X7X$X            ",
"        *X#X@X*X*X2X2X2X2XaX2X2X4X4X4X4XaX4X4X4X4X4X4X4X4X4X4X,X4X4X3X2X3X2X,X3X1X:X;X;X;X;X+X%X+X5X              ",
"        +XsX+X@X:X:X:X:X>X,X2X2X2X2X2X4X4X2X4X4X2X4X4X2X4X2X2X4X2X:X3X3X:X3X:X:X1X;X;X+X*X+XoXoX6XXX              ",
"          .X@X+X+X#X@X@X@X@X@X@X>X2X>X2X2X2X2X2X2X3X2X2X3X:X:X:X1X1X:X:X:X@X*X+X+X+X+X+XOX$XXX5XXX                ",
"            1XoX.X+X+X+X@X@X@X@X@X@X:X:X@X>X:X:X:X:X:X:X:X:X:X:X*X@X+X*X+X+X+XoXOXOXOXXXXX=X5X=X                  ",
"            XX7X.X.X+X.X+X.X+X@X@X@X@X+X@X@X@X@X@X+X@X+X+X+X+X+XoXoXoXoXXXXXXXXX=XXX=XK.XX&XK.                    ",
"               X5X X X.X.X.X.X.X.X+X+X+X+X+X#X@X+X@X+X+XoX+XoXoX.XXX=X.X=X=X=X=X=XK.K.&X&XK.                      ",
"                 X1X+X X.X.X.X X.X.X.X.X.X.X.X.XoXoXoXoXoXoXoXoXoX.XoXoXoX.XoXXXXX=X5XXX                          ",
"                     X7X X X X X.X X.X.X.X.X.X.X.X.XoX.XoXoX.XoXoX.X XoXoX=XoXXX5XXXXX                            ",
"                       X<X7X X X X X X X.X.X.X X.X.X X X X X X X X.X=XXXXXoX5XOXoX                                ",
"                           X X5X5X%XXX X XXX X X X X X XXXXXXX X X=X%X*X5XXXXX                                    ",
"                                 X XXX1X5X1X%XoX X XXXoX+X%X*X5X5XOXXX X                                          ",
"                                          XXXXXX XXXXXXXXXXXOXXX                                                  "
};
