/* XPM */
static char *_77b6d539e99487eacc173f76118fd506982oiFUIGwWe5Im[] = {
/* columns rows colors chars-per-pixel */
"57 75 240 2 ",
"   c None",
".  c #690000",
"X  c #004853",
"o  c #015B68",
"O  c #005D71",
"+  c #00676E",
"@  c #026A75",
"#  c #056A78",
"$  c #01727D",
"%  c #00797D",
"&  c #14747C",
"*  c #1C6F7F",
"=  c #22677B",
"-  c #E90000",
";  c #E81500",
":  c #EA3400",
">  c #EA2E05",
",  c #8B5B35",
"<  c #966733",
"1  c #AB7733",
"2  c #EB4A00",
"3  c #EC5511",
"4  c #EE6100",
"5  c #EE7300",
"6  c #EF6F19",
"7  c #EA5938",
"8  c #E94F2B",
"9  c #EC673C",
"0  c #F0722D",
"q  c #967155",
"w  c #EC6E44",
"e  c #ED7547",
"r  c #EA7458",
"t  c #D67F7F",
"y  c #BA863B",
"u  c #F48C02",
"i  c #F28611",
"p  c #F28D35",
"a  c #B5936B",
"s  c #A68665",
"d  c #F68849",
"f  c #ED8657",
"g  c #F38A54",
"h  c #F19654",
"j  c #EE8867",
"k  c #F1956F",
"l  c #C9A273",
"z  c #027582",
"x  c #017B84",
"c  c #017D89",
"v  c #0C7B86",
"b  c #167C85",
"n  c #297B8C",
"m  c #4B7992",
"M  c #DA7F84",
"N  c #008284",
"B  c #02838C",
"V  c #0D838B",
"C  c #00898E",
"Z  c #14848C",
"A  c #19858D",
"S  c #018C93",
"D  c #078D95",
"F  c #148B92",
"G  c #1A8D95",
"H  c #198692",
"J  c #019196",
"K  c #029399",
"L  c #00999E",
"P  c #0C949A",
"I  c #14959B",
"U  c #1C949A",
"Y  c #18959B",
"T  c #268A8E",
"R  c #258B93",
"E  c #24949C",
"W  c #269399",
"Q  c #399797",
"!  c #378E97",
"~  c #019CA2",
"^  c #0F98A9",
"/  c #1C9CA3",
"(  c #1799A1",
")  c #249CA4",
"_  c #2A9EA5",
"`  c #2B97A2",
"'  c #359CA7",
"]  c #06A2A7",
"[  c #18A0A4",
"{  c #2CA1A6",
"}  c #2CA3A9",
"|  c #2BABAE",
" . c #24A5A8",
".. c #34A2A9",
"X. c #3BA3AB",
"o. c #3EA3A7",
"O. c #2EAFB1",
"+. c #2CB3B4",
"@. c #31B6B7",
"#. c #459B97",
"$. c #4F859C",
"%. c #53A59B",
"&. c #5AA598",
"*. c #4BA19A",
"=. c #65AC9D",
"-. c #71B19D",
";. c #4599A5",
":. c #5897A9",
">. c #6699AC",
",. c #699CB5",
"<. c #46A7AA",
"1. c #55ACAB",
"2. c #49A7B6",
"3. c #55A8B6",
"4. c #57B2B8",
"5. c #66B4AB",
"6. c #77BAA6",
"7. c #63ABB9",
"8. c #76B8B6",
"9. c #6DAEB6",
"0. c #7AC3B3",
"q. c #31BDC1",
"w. c #53B1C1",
"e. c #79B4C6",
"r. c #6FB4CC",
"t. c #7A9DC1",
"y. c #33C3C3",
"u. c #AB9488",
"i. c #B8A79E",
"p. c #84BEAA",
"a. c #BDAEA5",
"s. c #D79497",
"d. c #E99C8D",
"f. c #F2B587",
"g. c #EEAF91",
"h. c #D5A0A7",
"j. c #CBB2AD",
"k. c #EBB2AB",
"l. c #CCAB86",
"z. c #87C4AF",
"x. c #F4C8B5",
"c. c #EFCFB3",
"v. c #EAD5AE",
"b. c #88B7CA",
"n. c #8CB9D2",
"m. c #97BBDC",
"M. c #89AFCC",
"N. c #A7BAD4",
"B. c #9CBBE1",
"V. c #87C5C3",
"C. c #8CC6D2",
"Z. c #99C4DA",
"A. c #94CAC3",
"S. c #A5C8DB",
"D. c #B0D3D4",
"F. c #A4C2E2",
"G. c #ABC6E2",
"H. c #ADC9E6",
"J. c #B3CCE5",
"K. c #BDCEE9",
"L. c #B6CDE8",
"P. c #BDD3E9",
"I. c #B9D2E7",
"U. c #BCD5F2",
"Y. c #B6D1F0",
"T. c #8BCBE3",
"R. c #D8D7D9",
"E. c #D0C7CD",
"W. c #E6C4C2",
"Q. c #EDD3CE",
"!. c #F1D6CE",
"~. c #F5DFCF",
"^. c #EAD4D2",
"/. c #E6DBDE",
"(. c #EBDCDB",
"). c #E9D9D6",
"_. c #F4DBD3",
"`. c #F1DAD6",
"'. c #F0CFC4",
"]. c #FFF8C5",
"[. c #EAE5DE",
"{. c #F4E3DA",
"}. c #FCF4D8",
"|. c #FBE3C5",
" X c #C5D4E6",
".X c #C8D6E6",
"XX c #C4D4EA",
"oX c #C9D6EA",
"OX c #C5D9ED",
"+X c #CCDBEC",
"@X c #D1DEED",
"#X c #D9DCE6",
"$X c #C3D9F3",
"%X c #CCDDF2",
"&X c #C7D9F8",
"*X c #D1DDF2",
"=X c #C0CFEA",
"-X c #E4DEE5",
";X c #CEE1EE",
":X c #D3E2EE",
">X c #DCE3ED",
",X c #D9E7EB",
"<X c #CCE1F4",
"1X c #D4E4F2",
"2X c #DAE5F2",
"3X c #D5E9F2",
"4X c #DCEAF3",
"5X c #D4E4FC",
"6X c #DCECFB",
"7X c #D5E8FA",
"8X c #DCF2FC",
"9X c #D8F1F9",
"0X c #ECE4E4",
"qX c #E4E3EC",
"wX c #ECE6E9",
"eX c #ECECED",
"rX c #E6E7E8",
"tX c #F4E5E2",
"yX c #F4E9E6",
"uX c #F3EBEA",
"iX c #F9EAE5",
"pX c #FAF5E9",
"aX c #E2EBF5",
"sX c #E3EEF9",
"dX c #E7EAF2",
"fX c #ECF1F5",
"gX c #E5F2FC",
"hX c #ECF5FB",
"jX c #E4FAFF",
"kX c #EEF9FC",
"lX c #E3F1F7",
"zX c #F3F3F4",
"xX c #F1F6FA",
"cX c #F5FEFF",
"vX c #F3FAFD",
"bX c #F9FDFE",
"nX c #FEFFFF",
"mX c #FAFCFD",
"MX c #FAF6F3",
"NX c #F1EFF2",
/* pixels */
"                        ,X                                                                                        ",
"                    ;XjXlX4X                                                                                      ",
"                  ;X4X3X,XlX                                                                                      ",
"                    8X3X4X9XA.                            gXfXgXgXsXsX                                            ",
"                    OX<X9XD.;.8.D.D.              kXhXmXbXnXbXbXbXbXbXcXhXgX                                      ",
"                        9.) 1.V.D.C.C.C.r.    fXnXnXcXhXvXvXvXhXkXhXkXhXhXcXnXhX                                  ",
"                          X.3.e.r.3.r.r.T.3XvXmXvXvXvXvXvXvXvXvXvXkXkXhXhXhXhXkXnXhX                              ",
"                          ;.2.w.2.2.w.Z.jXkXkXvXvXvXvXmXmXvXvXvXvXvXxXkXkXkXhXkXkXbXbXvX                          ",
"                            2.4.3.^ Z.jXkXfXvXvXvXvXvXmXmXvXmXvXvXvXhXvXkXkXkXfXkXhXkXnXvX                        ",
"                            X.w.( 8.lXhXhXxXxXvXvXvXmXmXmXmXmXvXmXvXvXvXvXxXkXkXkXxXkXeXnXkX                      ",
"                            <.4...,XkXfXvXvXxXvXmXmXmXmXmXmXmXmXvXmXmXvXxXvXkXxXkXkXkXeXdXcX                      ",
"                              ] D.kXfXxXkXxXvXvXfXmXmXmXcXmXmXmXmXvXmXvXvXvXvXxXzXkXkXcXcXbXfX                    ",
"                              <.9XkXhXkXxXvXcXzXwXmXmXmXmXbXbXmXmXmXmXvXxXxXkXxXvXvXkXhXdXkXvX                    ",
"                              S.kXhXkXxXxXvXvXzXmXcXnXnXnXbXbXnXmXvXvXmXbXbXcXcXvXvXkXa.a rXmXR.                  ",
"                              jXcXhXkXxXzXMXMXmXmXnX/.j.MXbXmXmXmXbXbXmXMX}.~.c.g.f.'.s . R.nXR.                  ",
"                              lXkXfXNXNXNXuXuXiXpXmXu.. ).mXmXmXcXMXx.g.k h u u 5 5 tXR.a.eXnX(.                  ",
"            z.z.6.            4XkXfXeXuXtXtX{.yXiXiXj., qXmXmXmXmXx.2 4 5 5 0 4 f yXvXMXMXyX{.).                  ",
"          -.p.p.0.-.          6XfXeX0XtX{.^.tXnXiXiXiXwXmXmXmXmXbXk.4 9 9 r : j eXcXxXxXeX[.).).                  ",
"        -.-.&.&.=.5.&.        gXdXwX0X`.!.Q._.iX_._.iXMXMXmXmXMXbX`.: 2 3 - d.zXvXvXvXxXeX[.).{.E.                ",
"      =.6.=.&.&.&.*.%.#.      gXdX0X(.^.Q._.!.!.!._.tXiXMXmXmXmXbXbXk.- 8 k.vXcXzXNXvXxXeXyX[.{.W.                ",
"    =.1.*.&.%.*.#.Q Q #.#.    6XqX0X).Q.Q.!.!.!.!.!.`.iXMXMXmXuX`.mXcXtXuXcXvXcXx.k.vXzXlX[.[.[.                  ",
"    5.1.Q Q #.Q T ! T T #.x M.*XqX-X).Q.Q.Q.Q.!.!.!.tXiXNXzXmX!.k.vXcXmXmXvXvXvXfX-XkXfXfXeX,X[.                  ",
"  #.*.*.o.Q T T T T A H T c :.oXqX-X).^.Q.Q.Q.^.Q.`.(.yXNXMXvXNXNXmXvXvXvXvXvXvXvX0XhXhXlXrXeX#X                  ",
"  o.T T W W T T A Z v c H c n L.2X-X-X^.Q.Q.Q.Q.^.`.tXuXNXxXvXNXuXvXvXhXvXvXkXkXfX0XhXlXlXlXjX,X                  ",
"Q } E U Y F V c c c c B c n z N.*X-X-X-X).^.^.^.^.(.wXNXNXxXxXxXwXNXvXxXvXxXhXvX0XdXgXsX4X4XkX3X                  ",
"I P D P S B c c z z B B z n # >.*XqX-X-X-X-X-X/.-X-XwXNXxXxXhXxXxX-XwXNXfXfXNX-XeXgXlXlX9X4XjX                    ",
"J S B J S z z z z z B c v v b O N.*XqX>X-X-X-XqXqXqXdXsXhXsXhXhXhXxXdXwXqXwXwXfXgXlX4X6X3XjX1X                    ",
"L L J S B $ z z z c c z z O = o m XX5X*X#X2X>XqXdXdXsXsXsXfXsXsXhXsXhXhXhXgXgXsXsX4X6X3X3X6X                      ",
"J ~ S S c z z @ # z z v z b c T v >.XX1X1X1X2X7X2XsXaXaXsXsXsXsXsXsXdXsXsXaXsX6X4X3X7X<X9X X                      ",
"  K ~ J z @ # # z c c I Y G P J W N >.K.%X%X%X1X*X*X2X5X5XaXaX6XaX6XsX6XsX6X7X2X7X<X$X<XI.z.6.                    ",
"      H b V S J K K J ( / Y I F F W N ;.G.&X%X+X*X*X*X1X*X2X7X2X2X7X7X2X7X1X1X%X<XU.U.S.8.6.A.z.                  ",
"      @.@.+.~ ~ K J S P ) / U Y F F R N R M.Y.$X&X%X%X%X*X*X*X1X1X*X<X1X%X$XOX$XY.H.C.5.5.5.0.z.                  ",
"  @.y.@.@.+.[ J K J S S ( ( ( U Y F F T N N >.m.Y.&X$XXXOX$XOXOX$X$X$XP.U.Y.Y.Y.C.r.<.1.5.5.8.V.0.                ",
"@.y. .| O.O. .J J S S B H E E G G F F F T V N V :.M.F.Y.U.U.U.U.U.U.U.U.Y.F.n.4.X.} <.1.4.5.5.V.0.                ",
"+.+.| | O.| | ( S J S B c G U G G F A F F F b + + % ! 7.e.n.m.Z.m.m.n.e.w.2._ ) } X.<.<.1.4.1.5.8.                ",
"  y.O.+.O.| | ) S D D V v Z E G G F F G A $ + & b % x N C S P U ` ) [ ( ) ) } X.X.X.X.X.<.1.5.1.V.I.              ",
"  +.+.{  .| } } F C V V c v H U G F U A # o @ $ % V Z D D K K ^ ^ / ) _ ' ..........X.X.<.<.1.<.b.5XXX            ",
"   .+. . .| } } E D F V F b v H W U & o o + @ % x B C J I ) _ _ _ _ } } { { { ' ' ........<...5.J.I.7X.X          ",
"    +.+.|  .} } { G B Z v v b c C * o o + # $ z x B S D ( ( / ) _ ) ) ) ) _ { ..{ ....X...~ 4.G.XXP.P.5X          ",
"    | @.{ Y { { ) ) Z v v b z ! m X X + + # $ z B B D J P I ( / ) / ) )  ._ _ _ { ..{ ~ } b.I.OXOX+X;X7X+X        ",
"       . .} } { _ ` E Z A x ! M.m.,.m o o # # z c B D D P P / ) / ) ) ) ) ) ) / ~ ~ X.e.H.OX+X:X*X1X1X*XgX        ",
"      | q.| _ ) _ ` ` G % :.n.B.B.F.B.M.,.m n z x x x B S J K ~ ~ ~ L ~ L L ~ ' 7.n.J.+X+X:X:X1X2X1X2X2X6X1X      ",
"        | @.` E _ ` ) J ,.m.B.m.B.m.B.F.F.F.B.n.t.t.:.:.;.` ` ` _ ' ;.3.7.b.Z.H.XX%X+X:X:X2X2X2X2X2X2X2X2XgX      ",
"          ~ ] .._ ( ( e.F.F.F.F.F.F.F.F.F.F.G.L.H.L.L.H.G.G.S.G.G.H.L.P.XX+X@X1X1X2X2X3X2X2X4X2X4X4X6X2X2XhX2X    ",
"            w.~ ~ ' n.J.G.S.H.H.S.H.S.H.L.H.J.J.I.I.K.P.XXoX+X+X+X*X@X@X:X:X3X1XR.R.sX4X4X2XaXaXaXaX2XaX4XsX2X    ",
"          1X<X9.8.S.P.J.J.J.J.J.L.L.L.I.K.K.=X=XXXOX.X+X+X+X@X@X:X:X1X2X2XaX4Xj.y l.R.lXaXdXaXaXaXaXdXaXaX4XaX    ",
"          ;X9X<XOXOXP.P.XXP.P.P.XXXXXXOXXXoXoX+X+X+X@X@X:X1X@X2X2X2XaXqXaXaX>X1 s l j.gXqXaXaXaXaXaXaXdXeX,XhX    ",
"          1X;X<X;XOX;XOX+X+XOX+X+X+X+X;X*X@X@X:X2X>X2X2X2X2XaX2XaXaXaXaXaXaXdXj.1 a ^.lXaXsXaXdXaXsXsX[.}.iXmX    ",
"          jX3X3X1X3X2X2X:X2X2X,X2X1X1XqXrX4X6XaXaX2XaXaXaX4XaXaXaXaXaXaXaXaXsXaXR.-XsXaXaXaXaXsXdXgXqXf.c.}.pX].  ",
"        3XkX,X3X2X3X3X,X2X3X2X2X1X#X0X}.].v.@X8X2XaX2XaX4XaXaXaXaXaXaXaXaXaXaXsXsXsXsXaXaXaXsXaXsXqXg.i k g.|.].  ",
"        3XjX4X3X,X4X2X4X4X3X4X1X[.}.pX}.f.6 j c.aX4XaXaXaXaXaXaXaXaXaXaXaXaXaXdXaXaXdXsXaXaXaXdX4Xc.p h g 0 g f.  ",
"        3XjX3X,X3X3X3X3X4X3X6XR.].].x.k 7 9 6 0 k.4X4XqX4X4XaXaXaX2XaXaXaXdXaXaXaXaXaXaXaXaXdXsX@Xk u h h g p e   ",
"        3XjX3X3X3X3X3X4X3X,X4X:Xf.j 8 3 9 f f 0 2 k.8XaX4XaXaXaXaXaXaXaXaXaXaXsXaXaXaXaXaXaXaXsX@Xj.g.j d g g j   ",
"        3XjX,X9X3X4X,X3X4X2X,X7XM > 9 e e 9 r d.d.W.lX,X4XaX4XaXaXaXsXaXaXaXaXaXaXaXaXaXsXdXaXaXdX5Xj.0 d g d j   ",
"        3XjX3X3X4X3X,X4X4X4X4X3Xs.3 w w e e 0 j ,X8X4XlXaX4XaXaXaXaXaXsXsXaXsXaXaXaXaXaXaXaXaXaXsX7Xs.6 e f d k   ",
"        3X8X3X3X,X3X3X3X4X3X3X9Xj.2 7 9 9 e 9 0 W.8XaX4X4XaX4XsXaX4XaXaXdXaXaXsXsXsXsXaXaXaXaX4XdX3Xh.2 9 4 j     ",
"        3XjX3X3X3X3X3X,X9X,X4X9X X8 8 7 7 9 w 3 k.9XrX4X4XaX4XlXaX4X4XaXlXaXlXR.u.j.,XlXaXaXaXaXaXaX Xt 8 r ).    ",
"        ;XjX1X3X3X3X3X3X,X9X,X4X9Xs.- 8 7 7 3 2 E.9X4XlXaX4XaX4XaXlXaXaXaXaX,Xq < a a.gXqXaXaXaXaXaXaX*X.X#X5X    ",
"          8X1X1X3X3X3X,X4X3X4X4X4X3Xs.; ; > : h.3XaX4XaX4XaX4XaX4X4XaXlX4XlX#X, , < i.gX4XaXaXaXaXaXaXaXdXhX*X    ",
"          ;X3X:X3X3X3X3X3X4X,X9X,X4X<XE.h.h.E.7XaX4X4X4X4XlXaX4X4XlXaXaXaX4X,XE.q u.#XsX4XsXaXaXqXaXsX4X2XhX1X    ",
"          +X8X<X<X:X:X3X3X,X3X3X4X,X4X8X9X8X9X4X4XlX4X4XaX4XaX4X4XaX4X4XaXaXaXlXaXsXsXaXaXaXaXaX6XaXqX5X2XsX      ",
"            7X%X;X;X;X1X3X3X3X,X3X4X4X,X4X,X4X4X4X4XlX4X4XaX4XlXsX4XsXsX4XlXsX4XsXaX4XaX4XaX2XaX2X2X2X2X2X@X      ",
"            $X6X;X;X<X;X;X1X1X1X3X3X3X3X,X4X4X4X4X4X4X4X4X4XlX4X4X4XaX4X4XaX4XsXaX2XaXaXaX2X2X2XqX2X2X*XgX+X      ",
"              %X+X+X+X+X;X:X;X;X1X:X2X3X3X3X4X,X9X,X4X,X4X4X4X4XaX4X4XaX4X4X4X4X4X2X2X2X2X2X2X2X*X@X@X@X1X        ",
"              XX6XoXoX%X%X+X+X1X%X:X1X:X2X1X1X3X2X3X3X4X4X4X2X4X4X2X4X4X2X4X2X2X2X2X2X1X,X:X:X@X@X@X+X6X+X        ",
"                XX5X$XoXoXoX%X%X+X@X;X:X@X:X:X:X1X>X:X1X2X1X2X,X2X2X2X2X2X,X2X2X>X1X:X@X@X#X@X@X@X@X@X.X          ",
"                  =X*X=XXXXXXXoX+XXX+X+X@X%X@X*X@X@X:X@X:X1X:X:X1X:X:X>X@X@X>X@X@X@X@X@X+X+X+X+X X.X2X            ",
"                    U.5XK.=X=X=XP.XXXXXXXXoXoXoX+X+X+X+X+X+X+X@X+X@X@X@X@X@X@X+X@X@X.X+X+X.X+X X X7X X            ",
"                      K.&X&XK.=XK.=X=X=XXXXX XXXoX+XoXoX+X+X@X+X@X+X+X#X+X@X+X+X.X.X.X.X.X+X X X7X X              ",
"                          =X5X$XXXXXXXXXoXoXoXXX.XoXoXoXoXoX.X.X+X.X.X.X.X.X.X.X.X.X.X.X X X+X1X X                ",
"                            XXXX5XXXXXXXoXoX X XoX XoXoXoX X.X.X.X.X.X.X.X.X.X X.X.X X X X1X X                    ",
"                                XXoX5XoX=X X X XoX X X X X XoX.X X X X X X X X X X X.X1X<X X                      ",
"                                    XXXX5X5X%XXX=X XXXXXXXXX X X X X XXX X X X%X5X1XXX X                          ",
"                                          =XXXoX*X5X*X*X%XoXXXXX X+X%X1X5X%XXXXXXX                                ",
"                                                  XXoXXXXXXXXXXXXXXX XXX                                          "
};
