/* XPM */
static char *e0b9111e0a4c4501ddd3f8e3f27124c6BpSXPiRqQppVXlLw[] = {
/* columns rows colors chars-per-pixel */
"75 75 71 1 ",
"  c #8FAFC8",
". c #94B3CC",
"X c #99B6CF",
"o c #9CB9D1",
"O c #A3BED5",
"+ c #A6C1D8",
"@ c #ACC6DB",
"# c #AFC8DD",
"$ c #B1C6D8",
"% c #B2CADE",
"& c #B5CDE1",
"* c #B9CFE3",
"= c #BDD3E5",
"- c #BFD5E8",
"; c #C2D6E6",
": c #C9D7E6",
"> c #C6D8E7",
", c #CBDAE6",
"< c #C2D6E8",
"1 c #C6D9EA",
"2 c #CCDDEC",
"3 c #D1DFEC",
"4 c #CFE0EE",
"5 c #D1E1ED",
"6 c #D1E0EE",
"7 c #D0E0EF",
"8 c #D1E0EF",
"9 c #D3E3EE",
"0 c #D3E3EF",
"q c #D4E2ED",
"w c #D7E4EF",
"e c #DAE4ED",
"r c #D1E2F0",
"t c #D3E2F0",
"y c #D2E3F0",
"u c #D4E3F1",
"i c #D5E5F0",
"p c #D5E4F1",
"a c #D7E6F0",
"s c #D6E4F2",
"d c #D9E7F1",
"f c #DBE7F1",
"g c #D8E5F2",
"h c #D8E7F2",
"j c #DBE7F3",
"k c #D9E8F2",
"l c #DDE8F1",
"z c #DBE8F4",
"x c #DCE8F4",
"c c #DCEAF4",
"v c #DFEBF4",
"b c #DFEBF5",
"n c #E0E7EF",
"m c #E0ECF3",
"M c #E0EBF4",
"N c #E0ECF4",
"B c #E1ECF4",
"V c #E3ECF5",
"C c #E1ECF6",
"Z c #E3EDF7",
"A c #E4EDF6",
"S c #E6EFF7",
"D c #E6F0F7",
"F c #E8F0F7",
"G c #E7F0F8",
"H c #E8F1F8",
"J c #EAF2F9",
"K c #F7F7F8",
"L c #F7F8F8",
"P c #F9F9F9",
"I c gray98",
/* pixels */
"Il1pggkNNq2kq2Z3qp2pqwquklgNltkqt1-=>t<tp27pzpuugpglNzbAk22pMp14p;2q2yq27yp",
"I31gkkgg22ut2sg2pl<kg2pHNbbjtp2212<2q22t2qpNvvNNZpkgpggpkg2q412q4-2kp27thtt",
"I2pgpyq3q2tpglt131<kk2Alzpuq7p2q221pt2tgqNNbvGMZllgpqtgggw2pqp21p1447qyb47k",
"Kg21722uq1gppMu1q<2gppkpN4tgp3<1<1<31=tvggNMNpMMgg4ppNpq21222<&pq=244p7p2tq",
"I2<21ppq;;ztbz2;g4g42t44q1epq<=1q2qg2tbblNDHgkgq42pltq2u4>42<<14<-t224<41q2",
"Keuqqg4*14zbgl3qgp4qq;1417211=;2u322ttbbpqNMgzz221py2tu22424-<<<q4p4422p227",
"Iqp2tp14p2b72427pp12&1t23p<>-<;1zpgubglt22z2qt4pp2wq22u2q4<<==<4pq2t21k4tzy",
"Kwq2u11g14tq2427kq;==2p7p11431<2kgNNzbzt12p2q224=2glqpgp421-=,gq12k2=w22y7p",
"I22t;<pp112gpyptp<*;-22qtpbqt2NNNNq212p1;2q2qtt42NgblMzl44t42hk121t&=t2qq1u",
"Ig2t141122qzq223p&&<1ktqtlt2bNHgNg21->q=;2pjklppuggbpuptqkwwqtpwtq1&1224222",
"Iqq7<1=2p<2sp2tt3<1qqMqgykgquMAy212p2=2<;qgMgkgpqtNpplplkt4ptqk42pppytpwtu2",
"K2q<y2wvq23tqptt217qjktpkpzg3Nkttqt2&2p13gkpqggppg22Nkqkppwzppppgbtzsgppugu",
"Iq32w<t2<t3qg2w<1t4qlq2uqklpub222gpq1u=2tpbgllkpbq2ppqplkzztqtpzvglNlpppbFN",
"Iqqs44224ppvppp-pg444zgbjlqg2kMlqtuq232kpvkppNvpp4ttpgpgNppqpq4bvgGpqppbgNb",
"I3gt4k2tllkptyq<gp<74pq2gp322ble2gpptqpebbgbvv223qt4gApspqbg2pyppgvyqtqbubt",
"Iqgpuuqtlktkutq3bq4q2t22tqpuNbbputpkpgkggu2l2l2zbgkpAg1qpuq22qtppppt27tk1tq",
"Iqtt2qtyggkkggkqq4kp22tkuMNqgjlkquqttMptqtpp2g2gtp4qt;4tyq2>q<2tty2t4t2q2t2",
"IjqpttqNkggg2qgq2qq12pgpNxq2uMpp2u2p2g222tytplpq4211-<212p222<22qp2ptp2ptt2",
"Iq2q22yp=2p22pp2pq272pklNu22qu2274qbgl2<=2qtbb11111-22<*4<-<12ttgqttbqt7yy7",
"Iq227tq&#qz7zvwkp2geqqlggp33g122p4g212212hblpt&2p412q>2p2-212pkzkpvkptttpz4",
"Iw2q42@X4NMqqpqp2gbtbbgMNkkbppqupl412pN2tlpvq42qy22722p22kkppgppppbpkgkpzvk",
"L2<21==wGvgu2ptgulgkbbbAk2q1qsugpk123bq2tpvpppppl4qet2p1qzpkyvvvl2p2gpkqkNk",
"I41;-4kzsptptk7jquuupx2b2222tlb2p21ptp221pp1pplb44kpt444hv7ptpzlq4z4wq22glp",
"Lq1404w422qq21qkppttlp3b4kpppt-&q12ttk44tgsqztt41ppp21ptlp2y1qkq24y1tp24ppg",
"Le14t22##tpq22u41<qqgpktpp=*2-&#sstq2t2pypk2t3214424212ypq<7<2u2<-<<4p422q3",
"I,14t1<1sNpu7qq2;qpkpbtqb2=<2222Hg2g3pqptquqg722212q1=qz2t22=24*1&--24-==21",
"I212vqqzMu2q22u2kNgqlptll2#<gb12ppNugbvMvtpp11p422lp24q4244t2p22<=714q22423",
"K22kg11sp2tz12t2puuup2q24+o272=qgNg1pbgbgqk21stt2kvtq1241epqpt42211y21=-;11",
"Ig2kq23pq2tztqtqeglbpg2=1 *bpqpplb21uquN24y4kt4q2g4y-*42qN21g1s2z2421<1=222",
"Iqqw22tp2gM22utbkMlgk2=*=&zNpg1qu22ejgbb10g22442p42q22blgk1gkqgpqgqq214241t",
"Iqq2p232ulq2up2lggpg1=>;2lMp21>q==2qubup2p02t422pq2442gltkgNglNppp222pht1w4",
"KqtgeqtpMgu2pbbg1%2-;2%1q2<<1=2>1bgugM1120<>4024k41pqygApAHgNGNskgp2bNqtqgp",
"Lgtt2tqgl>21u22<.>g12&=1<*&2==21gg2tgg12ggpppe2ygv1gNkNNpHAxANNMeeeplgp22pg",
"Ip4244tu2=12121O=A312&1<-<&1*1<2q>2gbup2guw2qtt7kp;gzNbMNZNMZNMje,qgpu2ppqk",
"Iq3tp4g122pp<u22l1212=q=222u323pttgggpguguut24tzt22NBlejNZFMVMAeq32q12gM3qH",
"Leubq2212uM<q2;2p11;212=222qu1ggttqbNqqqblp27ty4-qpgggpAHFMpjbNe2,2p2kugtbl",
"L2w<X=722M22u1222-p2t<p2<2pu7uugllAne,<eleq3pqq;17qqeMAABlje33e3q>2,te3,22e",
"Ip>.$u3uqp2u11g2<;q-=2p=;jMMu2gMlBj33,qqe22,32,:,3qeeqneke3,3::3,;2,32,qeqe",
"I;o+MMpq222k22p22tq-2zp2uNgg2uMMFMq3eee3e23:32:q,:,jeen3lq;2:q,2,,;,,,3qqee",
"K2>4Hg22=1pp-qk<2ptpyzlgqgllgpgNBlleje33ee,,q22q233q3eg32:qq,,2,e,%,:;322,e",
"Ie2gN2&22kt11q<=24wvyggwpMNbCbZFDADleq72qp2,;,2,2,,4pqp,:,21q,,4p<,2,qqut,p",
"Lq11t2=1422pg2pjp2pp22NqgbNNbgNJDlNptt227p;>-wq2<=14et42=2p442uqt<22pepp224",
"Kq12t2=242122kp2wkvvwpp4MANMgxZZNvgqt22<tq#1yk4t2=12q2qtqt2-=12qt<2qtlp1kvg",
"Le2q2<22414wpg2qpppkqgpNMxxgMMAMNk2ts222tq1gk4<q2;22t247qq22<kp442gg2p42Ngb",
"L42<<k4<1qgzqk2sb4qp2zblMxbbAAGNv2ppb1qq4ttp421411-3qq4t4<2<2pqt2uzt4lppgpz",
"L2442-%=p4w22p7bq44y2pzpNgAbNGNz4gypp=--4q3q21<41=-7044q<41222212tp22pp4q2q",
"Lt4q-24tp1wpssqy24<p2t22uMMpNbv2p222&-2q4k11=+==#&1402pwtp2p11;4t2p<2u41112",
"Lqp42ekw44Nz2t442t=41ptzbbgpttq-112@&1144p;<<<=*#12q44kwp42q<2121tt=1-12447",
"Lgp2uuut2tl1tt22gt2sppsNt2qtvv2-11&1p12py2y4p-247qty2424kp2112221p4-t1211t7",
"Lpk222qtpbtqkq2p21qtpzuq3blsNptp2;1p4pZv42h44221t7ppt22tvk2ppq2ttp1=1-==1t=",
"Ipw1guplbgwlpt2spq414p24kpsvglzpp2121gzp414t4214tqpt2qklN22pst222<2=2<;4t2t",
"IuqqgNggugp2pp2lp22ppqukg7pgpNpqt11gbk2pq2t422&42tpzglbpgqqty7774>1=-q22<qt",
"Iggpglpkbbq2spttt14t2pkk4yp2qblqpp4Nppy222ttq2-t7tgNNMlkpvy<t422211--y2177q",
"Iepqpkgglb2ubp12t2q72kp42pkkgppkbpggtz4tpt21142tpgNNbgb2pp;;t2=242<1tg212yp",
"Iq2kNbuugqtutpttb21ptptt4lppggkg2pq2pt2kyt124p72plvZzzt2p1=1221p421tp1t1241",
"IqpNgqpMgt212ytqq-1l212q1pqkgqpgzt2qpttkh1t2t77tzpbbggpptu212121-27712t1742",
"Iq4p00t4pu<2bqt<12;2-2ypppsquggpb2qpq4pb2=t2qtqt2pNppp42<2&22-1<4442t21211<",
"Ilkp4w4qt2=44<21tu&222tttpvplMgNlzlpttp21tppvstupvgpy4y<<1-t2<22244qp222212",
"Ivpww2pt22qp4<<pt<&t24t42pNqbbgNbku-2tqtklgkNptbApqb0k22q21212t2<4p44441qty",
"I3-<22p<2tp2-1bv2222q7qgzpgplbklb2<2t2ptgpppvptbNthqpp2h7-<272q2222q22&11tt",
"I2==422%422@=pp1<-<t2bxMlgvNzNgpq2tb2yq7gpp2pqpkvt0kpq4q-=2y424<12yp2211=tt",
"L2=2p2=2h2-&lp<22<s2uppgylNgzv4p72tk71pkkp4yzgp2pp2104t2=*2y22<224p1<t21qp2",
"Iq;lh42t4222p<1t2q2qtbMxgMpgZlpp<=42<2kg2N2p1<<4pt=202442<y<-2422p44t41244g",
"I;2v<&<<qp2<tt2222pMuMpgbutbpytt1tg=<2uqtb<p-&4pp2<240<-42tt4422y44zyttp2pb",
"Lqq2#=2tp21t7222u2bgzNputqpNzzug2tt1t2ytpy27<2kvp1p1pp2pq4yyp47u3pzppkpt7sv",
"I2#O#2gt1=2212tpttkkNptNs1pp2pu1121t2t22qt4744pDtpp2gzzzkptpkqq2qpzgp212tqN",
"L,&1vz14y1p<1tGptgZNgpsg2zpvtb4<122t=t1tppp1tpyv7py4gpb44phzkp217plNq22kMzp",
"I<2tp2tt1qypbbb72pMpt2sqp42l2z2;123211t7qkp<2tyyy4pvkg2<pph21p;42pgvp2gpNtp",
"K=21222=1q4NZMNgtbbutb42t22quq42tkp22<u<2vp-tp2744ytp<<uqt2*pt2yzMpkq2ztl74",
"I11<qt21gkplxub2qzttt1<<222pu231ppq-2,uupv2-tqq24272q&24=1-=4412;4qptp4tppp",
"I=22pp24pgqpugu<24<21-22t22tq4=ts<7ts1x2tzqb2t42221tt=1&-;%=yyq11pptpyt22Ng",
"I=<uk4=2gg3gggq2t-122222tt2ybppz11g7ttp;pgty<74242qp-&2<12=2p42<4upptq111uq",
"I$=qq;qpMtgylk<1<2tqpt2pt7tggkpqpkp=11;qj2p3pq22222=;122;,&q2<=12q2222<<1up",
"K32eq;qelqkqqj<q2qqpl3qeqtsqqg12t3;,311glelNN211221<222==<22<<:,24222,t4quw",
"IIIILIIKILIILIIIILIIIIILIIIKIIIIIKKIIIIKIIIIKKIILLIILIILLILIKLILIIIILIIIILI"
};
